<svg width="180" height="12" viewBox="0 0 180 12" fill="none" xmlns="http://www.w3.org/2000/svg">
<path d="M5.7372 2.4648L10.4868 11.964L11.4744 11.4708L5.7372 0L0 11.4708L0.9876 11.964L5.7372 2.4648Z" fill="white"/>
<path d="M174.263 9.4992L169.513 0L168.526 0.4932L174.263 11.964L180 0.4932L179.012 0L174.263 9.4992Z" fill="white"/>
<path d="M35.7564 5.982L45.2556 1.2324L44.7624 0.244805L33.2916 5.982L44.7624 11.7192L45.2556 10.7316L35.7564 5.982Z" fill="white"/>
<path d="M101.993 1.7832L110.425 6L101.993 10.2168V1.7832ZM100.891 0V12L112.891 6L100.891 0Z" fill="white"/>
<path d="M73.0728 1.1028C75.774 1.1028 77.97 3.3 77.97 6C77.97 8.7 75.7728 10.8972 73.0728 10.8972C70.3728 10.8972 68.1756 8.7 68.1756 6C68.1756 3.3 70.3728 1.1028 73.0728 1.1028ZM73.0728 0C69.7596 0 67.0728 2.6868 67.0728 6C67.0728 9.3132 69.7596 12 73.0728 12C76.386 12 79.0728 9.3132 79.0728 6C79.0728 2.6868 76.3872 0 73.0728 0Z" fill="white"/>
<path d="M140.708 1.1028C143.41 1.1028 145.606 3.3 145.606 6C145.606 8.7 143.408 10.8972 140.708 10.8972C138.008 10.8972 135.811 8.7 135.811 6C135.811 3.3 138.008 1.1028 140.708 1.1028ZM140.708 0C137.395 0 134.708 2.6868 134.708 6C134.708 9.3132 137.395 12 140.708 12C144.022 12 146.708 9.3132 146.708 6C146.708 2.6868 144.022 0 140.708 0Z" fill="white"/>
</svg>
