<svg viewBox="0 0 272 158" xmlns="http://www.w3.org/2000/svg" xmlns:xlink="http://www.w3.org/1999/xlink" width="272.000000" height="158.000000" fill="none" customFrame="#000000">
	<g id="Group 2">
		<g id="1">
			<path id="Vector" d="M2.69425 16.9332L2.2797 17.4981L2.24328 16.5921L5.71658 2.52638C5.767 2.57671 5.82863 2.62705 5.90425 2.67738C6.15635 2.87872 6.41965 3.06608 6.69695 3.24225L2.69145 16.9332L2.69425 16.9332ZM9.79771 13.2756L9.53442 13.3119L9.27112 13.2756L8.62968 12.1067L9.80052 12.1067L9.80052 13.2756L9.79771 13.2756ZM33.0352 0.451481C38.1471 -0.379038 43.1974 -0.0630492 48.1833 1.39385C49.469 1.72103 50.651 2.28589 51.735 3.09124C52.8947 3.89659 53.6986 4.97599 54.1523 6.33502C54.5557 7.79192 54.3792 9.15095 53.6229 10.4093C52.8919 11.5922 51.9619 12.5345 50.8275 13.2392C49.6931 13.9187 48.5474 14.4976 47.3906 14.973C46.231 15.4763 45.0489 15.9405 43.8389 16.3684C41.4468 17.224 39.0407 17.9763 36.6234 18.6306C34.7607 19.1088 32.8952 19.5618 31.0325 19.9896L30.5423 21.536L30.0129 22.291L30.0885 21.1585L30.391 20.1015C27.5452 20.7055 24.6853 21.2452 21.8142 21.7234L19.0188 21.9499L22.4557 21.1194C25.1755 20.6412 27.8701 20.1015 30.5395 19.4975C31.9484 14.0669 33.0969 8.57211 33.9764 3.01574C34.1529 3.16674 34.3545 3.31775 34.5814 3.46875C34.7075 3.56942 34.8447 3.67009 34.996 3.77076C33.9624 9.02512 32.7047 14.218 31.2173 19.3465C33.2817 18.8683 35.3349 18.3286 37.3741 17.7246C39.8418 17.0451 42.2591 16.2285 44.626 15.2722C45.8108 14.8192 46.9817 14.3158 48.1385 13.7649C49.2981 13.2616 50.3681 12.6212 51.3485 11.841C52.3317 11.0357 52.9983 10.043 53.3512 8.86293C53.6538 7.62973 53.4521 6.5 52.7462 5.46815C52.0656 4.43629 51.1608 3.6589 50.0264 3.13039C48.9172 2.60188 47.7351 2.1992 46.4747 1.92237C41.4888 0.764673 36.5253 0.72832 31.5899 1.81051C29.8028 2.16285 28.265 2.60188 26.9822 3.13039L26.1138 3.5079C25.8869 3.63374 25.7609 3.74559 25.7357 3.84626C25.7357 3.89659 25.7413 3.9721 25.7553 4.07276C25.7665 4.17343 25.8001 4.26012 25.8505 4.33562C25.9514 4.51179 26.1138 4.6628 26.3407 4.78863C26.4163 5.04031 26.5536 5.29198 26.7553 5.54365C26.9569 5.79532 27.1586 6.02183 27.3603 6.22316C27.0074 6.17283 26.6236 6.08614 26.2091 5.96031C25.7945 5.83447 25.4108 5.5828 25.0578 5.20529C24.7301 4.80261 24.5789 4.32444 24.6041 3.77076C24.6797 3.46875 24.8057 3.21708 24.9822 3.01574C25.1839 2.8144 25.3856 2.6634 25.5872 2.56273C27.0242 1.93355 28.5592 1.4386 30.195 1.07227C31.8308 0.708746 32.7775 0.499019 33.0268 0.448684L33.0352 0.451481ZM70.4741 11.841L71.3424 11.69L71.0035 12.3304C69.9951 12.5569 68.8887 12.7638 67.6786 12.954C66.4686 13.1414 65.3369 13.2504 64.2781 13.2756C63.295 13.2756 62.3398 13.2001 61.4071 13.0491L61.295 13.2364C60.9421 13.8153 60.5023 14.2795 59.9729 14.6318C59.3931 15.0093 58.7769 15.247 58.1214 15.3477C57.7937 15.398 57.4548 15.384 57.1019 15.3113C56.9002 15.2862 56.7041 15.2163 56.5164 15.1044C56.3288 14.9925 56.1691 14.8332 56.0431 14.6318C55.8414 14.204 55.7657 13.8013 55.8162 13.4238C55.8666 13.0463 55.9786 12.7191 56.1551 12.4423C56.508 11.8131 56.987 11.3097 57.5892 10.935C57.8413 10.8092 57.9786 10.8847 58.0038 11.1615C58.029 11.4384 57.917 11.8271 57.6649 12.3304C57.3119 12.6576 57.0738 13.0351 56.9478 13.4629C56.8722 13.6643 56.861 13.8404 56.9114 13.9914C56.9366 14.0418 56.9618 14.0865 56.987 14.1229C57.0122 14.1592 57.0626 14.1928 57.1383 14.218C57.2895 14.2935 57.4772 14.3298 57.7041 14.3298C57.931 14.3298 58.1578 14.3046 58.3847 14.2543C58.8637 14.1285 59.2923 13.9159 59.6704 13.6139C59.9981 13.3874 60.2754 13.1106 60.5023 12.7834C60.225 12.7079 59.9729 12.6073 59.746 12.4814L59.0654 12.1794C58.9141 12.1542 58.7629 12.0843 58.6116 11.9725C58.4604 11.8606 58.3847 11.7152 58.3847 11.539C58.3847 11.3377 58.4464 11.1503 58.5724 10.9742C58.6985 10.798 58.8357 10.6722 58.987 10.5967C59.3399 10.4457 59.6676 10.3702 59.9701 10.3702C60.1466 10.3702 60.3091 10.3758 60.4603 10.3897C60.6116 10.4009 60.774 10.4205 60.9505 10.4457C61.1522 10.496 61.323 10.6023 61.4603 10.7672C61.5975 10.9294 61.6928 11.114 61.7432 11.3153C61.8188 11.6928 61.7936 12.0452 61.6676 12.3724C62.5751 12.5234 63.4938 12.5989 64.4266 12.5989C66.4406 12.5989 68.4573 12.3472 70.4713 11.8438L70.4741 11.841ZM60.1242 11.8047C60.1746 11.8299 60.225 11.855 60.2754 11.8802C60.4267 11.9557 60.6032 12.0312 60.8048 12.1067L60.8048 11.9948C60.8048 11.9697 60.816 11.9445 60.8441 11.9193C60.8945 11.718 60.8945 11.5558 60.8441 11.43C60.8188 11.4048 60.8048 11.3936 60.8048 11.3936C60.8048 11.3685 60.7992 11.3489 60.7852 11.3377C60.7712 11.3237 60.7544 11.3125 60.7292 11.3014C60.704 11.2874 60.6676 11.2818 60.6172 11.2818C60.3903 11.2314 60.1522 11.2203 59.9001 11.2454C59.6732 11.2454 59.4967 11.2818 59.3707 11.3573C59.3455 11.3824 59.3203 11.3936 59.2951 11.3936C59.2951 11.4188 59.2895 11.43 59.2755 11.43L59.2559 11.43L59.3679 11.4691C59.4435 11.4943 59.5444 11.539 59.6704 11.6006C59.7965 11.6621 59.9085 11.7208 60.0093 11.7711C60.0598 11.7711 60.0962 11.7851 60.1214 11.8075L60.1242 11.8047ZM79.9948 10.071C81.3561 9.61794 82.6642 9.07825 83.9247 8.44907C84.7314 8.07156 85.4485 7.60736 86.0787 7.05368C86.3812 6.77684 86.6333 6.46365 86.835 6.11131C86.9358 5.90997 86.9863 5.7338 86.9863 5.5828C86.9863 5.30596 86.8546 5.11021 86.5885 4.99836C86.3224 4.88651 86.0143 4.82778 85.6642 4.82778C85.3616 4.82778 85.0591 4.85854 84.7566 4.92286C84.4541 4.98438 84.202 5.06827 84.0003 5.16894C83.0172 5.57161 82.174 6.20079 81.4682 7.05368C80.838 7.90937 80.359 8.85174 80.034 9.8808L79.9948 10.0682L79.9948 10.071ZM79.8436 10.7868C79.6419 11.4915 79.4654 12.2074 79.3142 12.9372L78.936 14.8611L82.4121 11.3908C82.6138 11.1895 82.8407 11.0133 83.0928 10.8623C83.2945 10.7365 83.5326 10.675 83.8099 10.675C83.9863 10.675 84.1488 10.7113 84.3 10.7868C84.4765 10.8623 84.6278 10.9742 84.7538 11.1252C84.8799 11.2762 84.9807 11.4272 85.0563 11.5782C85.132 11.7795 85.1684 11.9921 85.1684 12.2186C86.2776 11.8662 87.384 11.6397 88.4932 11.539L90.2691 11.4635C91.5548 11.4635 92.8376 11.5502 94.1233 11.7264C94.2746 11.7767 94.4006 11.8215 94.5015 11.8578C94.6023 11.8942 94.6527 11.9277 94.6527 11.9529C94.6527 12.0032 94.5771 12.048 94.4258 12.0843C94.2746 12.1207 94.0225 12.1542 93.6696 12.1794C92.7368 12.1039 91.7929 12.0676 90.8377 12.0676C89.9806 12.0676 89.1375 12.1067 88.3056 12.1794C87.1459 12.2801 86.0507 12.5569 85.0199 13.0099C84.9947 13.0603 84.9695 13.0966 84.9443 13.1218C84.8939 13.2224 84.8575 13.3231 84.8322 13.4238C84.7314 13.6503 84.5689 13.8768 84.3421 14.1033L84.3056 14.1397C84.2804 14.19 84.2356 14.2459 84.174 14.3102C84.1124 14.3718 84.0284 14.4305 83.9275 14.4808L83.8911 14.4808C83.7903 14.5311 83.6642 14.5563 83.513 14.5563L83.4009 14.5563C83.2496 14.5311 83.1292 14.4808 83.0424 14.4053C82.9556 14.3298 82.8855 14.2543 82.8351 14.1788L82.6082 13.7649C82.9107 13.4881 83.188 13.2616 83.4401 13.0854C83.6922 12.9093 84.0059 12.7331 84.3841 12.5569C84.4093 12.4562 84.4233 12.3444 84.4233 12.2186C84.4233 12.0676 84.3841 11.9305 84.3113 11.8047C84.16 11.5782 83.9835 11.4663 83.7819 11.4663C83.6558 11.4663 83.5186 11.5279 83.3673 11.6537C83.1152 11.855 82.8631 12.0927 82.611 12.3696L82.3477 12.6324C82.02 12.9848 81.7623 13.2616 81.5718 13.4629C81.3842 13.6643 81.2385 13.8153 81.1377 13.9159C81.0368 14.0418 80.936 14.1536 80.8352 14.2543C80.7343 14.355 80.5971 14.492 80.4206 14.6682C80.2441 14.8443 79.9556 15.1324 79.5523 15.535C79.4766 15.6105 79.4066 15.6804 79.345 15.742C79.2834 15.8035 79.1993 15.8622 79.0985 15.9125C78.8968 16.0132 78.6951 16.0635 78.4935 16.0635C78.3926 16.0635 78.2918 16.0496 78.191 16.0244L78.1517 16.0244C78.1013 15.9992 78.0649 15.9741 78.0397 15.9489C78.0145 15.9237 78.0005 15.8986 78.0005 15.8734C78.0005 15.4456 78.0145 15.1687 78.0397 15.0429L78.0397 14.6654C78.0649 14.313 78.0901 14.0558 78.1153 13.8908C78.1405 13.7286 78.1601 13.5944 78.1713 13.4937C78.1854 13.393 78.2162 13.2924 78.2666 13.1917C78.2918 13.0155 78.3674 12.6632 78.4935 12.1347C78.5439 11.7823 78.6195 11.444 78.7204 11.1168C75.3451 12.0983 71.883 12.7387 68.3313 13.0407L67.6898 13.0798C67.1856 13.0798 66.9475 13.0295 66.9727 12.9288C66.9727 12.7778 67.603 12.6268 68.8607 12.4758C72.2863 12.0731 75.6364 11.3685 78.9108 10.3646L78.9865 10.0626C79.2386 9.25721 79.4962 8.5777 79.7595 8.02682C80.0228 7.47314 80.4458 6.85794 81.0256 6.17842C81.8071 5.32274 82.7511 4.69635 83.8603 4.29368C84.4905 4.09234 85.132 3.99167 85.7874 3.99167L86.4681 4.03082C86.9722 4.13149 87.3056 4.33283 87.468 4.63483C87.6305 4.93684 87.7145 5.25003 87.7145 5.57721L87.6753 6.06657C87.4988 6.67058 87.1207 7.19909 86.5409 7.64931C85.7846 8.30365 84.9807 8.807 84.1236 9.15655C82.7371 9.81089 81.3141 10.3506 79.8548 10.7784L79.8436 10.7868ZM107.344 11.8802C108.126 11.704 108.445 11.6845 108.308 11.8243C108.171 11.9613 107.809 12.171 107.232 12.4479C106.375 12.5737 105.154 12.926 103.568 13.5049C102.258 13.9579 100.899 14.3718 99.4873 14.7493C98.0756 15.1268 96.8039 15.2973 95.6723 15.2582C94.5379 15.2218 93.72 14.7996 93.2158 13.9942C92.8881 13.2644 92.8769 12.5094 93.1766 11.732C93.6808 10.5491 94.5127 9.74658 95.6695 9.31873C95.8712 9.24323 96.1177 9.19849 96.4062 9.1873C96.6947 9.17332 96.9664 9.22366 97.2185 9.33831C97.4706 9.45016 97.6078 9.65989 97.633 9.9619C97.633 10.1381 97.5826 10.3394 97.4818 10.5659C97.2549 10.9434 96.902 11.2958 96.423 11.6229C95.6919 12.1514 94.8992 12.5401 94.0421 12.7918C93.9665 13.572 94.395 14.1005 95.3278 14.3745C96.311 14.5759 97.549 14.506 99.0476 14.1676C100.546 13.8293 102.14 13.3958 103.826 12.8673C105.011 12.515 106.182 12.1878 107.339 11.8858L107.344 11.8802ZM96.3894 10.222C95.6835 10.222 95.0533 10.6498 94.5015 11.5055C95.3334 11.2035 96.0364 10.8148 96.6163 10.3366L96.3894 10.2248L96.3894 10.222ZM124.383 11.6928L124.156 12.2577C121.89 12.4339 119.635 12.6855 117.394 13.0127C116.31 13.1889 115.24 13.4154 114.184 13.6922C113.932 13.7426 113.669 13.8041 113.392 13.8796L113.014 13.9914L112.826 14.0669L112.563 14.1425L110.07 15.0093L111.053 13.7258L111.619 12.9708C111.644 12.8953 111.669 12.8338 111.694 12.7834C111.694 12.7583 111.708 12.7331 111.734 12.7079L111.809 12.4814C111.86 12.2046 111.82 11.9669 111.697 11.7655C111.621 11.6649 111.546 11.6034 111.47 11.5782C111.395 11.553 111.283 11.5418 111.131 11.5418C110.022 11.5167 109.028 11.855 108.148 12.5597L107.582 14.2571L106.487 17.7637L104.297 24.7043L103.843 25.2692L103.843 24.3631L105.77 17.1989L106.753 13.6167C107.056 12.4087 107.521 11.2147 108.151 10.0346C108.353 10.3366 108.566 10.6386 108.792 10.9406C108.843 10.9155 108.879 10.9043 108.904 10.9043C109.031 10.8288 109.168 10.7784 109.319 10.7533C109.697 10.6274 110.061 10.5519 110.414 10.5268L110.451 10.5268C110.627 10.5016 110.804 10.4904 110.98 10.4904C111.157 10.4904 111.358 10.5156 111.585 10.5659C111.837 10.6162 112.075 10.7421 112.302 10.9434C112.479 11.1448 112.605 11.3573 112.68 11.5838C112.832 12.0368 112.832 12.4758 112.68 12.9037L112.568 13.242L113.249 13.0547L114.081 12.8673C115.19 12.6408 116.31 12.4535 117.442 12.3024C119.759 12.0256 122.075 11.8243 124.394 11.6984L124.383 11.6928ZM142.78 11.9557C143.285 11.9054 143.573 11.8998 143.649 11.9361C143.724 11.9725 143.654 12.048 143.441 12.1626C143.229 12.2745 142.943 12.3947 142.593 12.5206C142.139 12.6212 141.467 12.7834 140.57 13.0099C139.677 13.2364 138.744 13.4825 137.775 13.7454C136.806 14.0082 135.968 14.2431 135.262 14.4445C134.556 14.6458 134.204 14.7465 134.204 14.7465C133.8 14.7465 133.669 14.5703 133.806 14.218C133.943 13.8656 134.178 13.4014 134.506 12.8226C134.607 12.6716 134.708 12.5094 134.809 12.3332C134.783 12.308 134.758 12.2969 134.733 12.2969L134.621 12.2969L134.394 12.3724C131.473 13.5552 128.728 14.4473 126.159 15.0513L124.649 15.2778L124.271 15.2778C124.12 15.3029 123.983 15.3169 123.856 15.3169C123.781 15.3169 123.674 15.3113 123.534 15.2973C123.397 15.2862 123.251 15.2414 123.1 15.1659C122.949 15.0904 122.837 14.9897 122.761 14.8639C122.66 14.6877 122.61 14.4864 122.61 14.2599C122.56 13.9831 122.649 13.6755 122.873 13.3371C123.1 12.9987 123.363 12.652 123.666 12.2997C124.145 11.746 124.459 11.2426 124.61 10.7924C124.812 10.8176 125.008 10.9043 125.195 11.0553C125.383 11.2063 125.554 11.3685 125.705 11.5446C125.705 11.5446 125.635 11.6313 125.498 11.8075C125.361 11.9837 125.195 12.2046 125.008 12.4674C124.82 12.7303 124.655 13.0015 124.518 13.2784C124.38 13.5552 124.305 13.7817 124.291 13.9579C124.279 14.1341 124.372 14.2207 124.574 14.2207C125.053 14.1704 125.481 14.1145 125.859 14.0502C126.237 13.9887 126.627 13.9048 127.03 13.8041C127.383 13.7286 127.772 13.6419 128.201 13.5412C128.503 13.4909 128.876 13.4098 129.316 13.2952C129.755 13.1833 130.4 12.9876 131.243 12.7107C132.086 12.4339 133.265 12.02 134.775 11.4663C135.355 11.3405 135.688 11.4607 135.775 11.8243C135.862 12.1878 135.492 12.8981 134.66 13.9551C134.66 13.9551 134.993 13.8684 135.66 13.6922C136.327 13.5161 137.133 13.3091 138.077 13.0687C139.021 12.831 139.929 12.61 140.797 12.4087C141.666 12.2074 142.327 12.0564 142.78 11.9557ZM157.097 11.8802C157.878 11.704 158.197 11.6845 158.06 11.8243C157.923 11.9613 157.562 12.171 156.985 12.4479C156.127 12.5737 154.906 12.926 153.321 13.5049C152.01 13.9579 150.651 14.3718 149.24 14.7493C147.828 15.1268 146.556 15.2973 145.425 15.2582C144.29 15.2218 143.472 14.7996 142.968 13.9942C142.64 13.2644 142.629 12.5094 142.929 11.732C143.433 10.5491 144.265 9.74658 145.422 9.31873C145.623 9.24323 145.87 9.19849 146.158 9.1873C146.447 9.17332 146.719 9.22366 146.971 9.33831C147.223 9.45016 147.36 9.65989 147.385 9.9619C147.385 10.1381 147.335 10.3394 147.234 10.5659C147.007 10.9434 146.654 11.2958 146.175 11.6229C145.444 12.1514 144.651 12.5401 143.794 12.7918C143.719 13.572 144.147 14.1005 145.077 14.3745C146.06 14.5759 147.301 14.506 148.797 14.1676C150.296 13.8293 151.889 13.3958 153.576 12.8673C154.76 12.515 155.931 12.1878 157.088 11.8858L157.097 11.8802ZM146.142 10.222C145.436 10.222 144.806 10.6498 144.254 11.5055C145.086 11.2035 145.789 10.8148 146.369 10.3366L146.142 10.2248L146.142 10.222ZM20.1868 34.9613C20.691 34.911 20.9795 34.9054 21.0551 34.9418C21.1308 34.9781 21.0607 35.0536 20.8479 35.1683C20.635 35.2801 20.3493 35.4004 19.9991 35.5262C19.5454 35.6269 18.8731 35.7891 17.9768 36.0156C17.0832 36.2421 16.1505 36.4882 15.1813 36.751C14.2122 37.0139 13.3747 37.2488 12.6688 37.4501C11.9629 37.6514 11.61 37.7521 11.61 37.7521C11.2066 37.7521 11.075 37.5759 11.2122 37.2236C11.3495 36.8713 11.5848 36.4071 11.9097 35.8282C12.0105 35.6772 12.1114 35.515 12.2122 35.3388C12.187 35.3137 12.1618 35.3025 12.1366 35.3025L12.0245 35.3025L11.7977 35.378C8.87617 36.5609 6.13114 37.4529 3.56258 38.0569L2.05281 38.2834L1.67467 38.2834C1.52341 38.3086 1.38616 38.3198 1.26011 38.3198C1.18448 38.3198 1.07805 38.3142 0.937993 38.3002C0.800741 38.289 0.655086 38.2443 0.50383 38.1688C0.352573 38.0933 0.240531 37.9926 0.164903 37.8668C0.0640649 37.6906 0.013646 37.4893 0.013646 37.2627C-0.036773 36.9859 0.0528606 36.6783 0.276945 36.3399C0.50383 36.0016 0.767128 35.6548 1.06964 35.3025C1.54862 34.7488 1.86234 34.2455 2.0136 33.7953C2.21527 33.8204 2.41134 33.9071 2.59902 34.0581C2.78669 34.2091 2.95755 34.3713 3.10881 34.5475C3.10881 34.5475 3.03878 34.6342 2.90153 34.8103C2.76428 34.9865 2.59902 35.2074 2.41134 35.4703C2.22367 35.7331 2.05841 36.0044 1.92116 36.2812C1.78391 36.5581 1.70828 36.7846 1.69428 36.9607C1.68027 37.1369 1.77551 37.2236 1.97718 37.2236C2.45616 37.1733 2.88472 37.1173 3.26286 37.053C3.64101 36.9915 4.03035 36.9076 4.4337 36.8069C4.78664 36.7314 5.17598 36.6447 5.60454 36.5441C5.90706 36.4937 6.2796 36.4127 6.71936 36.298C7.15913 36.1861 7.80337 35.9904 8.64648 35.7136C9.4896 35.4367 10.6688 35.0229 12.1786 34.4692C12.7584 34.3433 13.0917 34.4636 13.1786 34.8271C13.2654 35.1906 12.8957 35.9009 12.0638 36.9579C12.0638 36.9579 12.3971 36.8713 13.0637 36.6951C13.7304 36.5189 14.5371 36.312 15.481 36.0715C16.425 35.8338 17.3325 35.6129 18.2009 35.4116C19.0692 35.2102 19.7302 35.0592 20.184 34.9585L20.1868 34.9613ZM46.7884 34.7348C46.9901 34.7852 47.1021 34.8411 47.1273 34.9054C47.1525 34.9669 47.1133 35.0312 47.0125 35.0928C46.9116 35.1543 46.7856 35.2242 46.6343 35.2997C43.133 36.1806 39.5953 36.9076 36.0183 37.4865C35.8419 37.5116 35.6654 37.5368 35.4889 37.562C34.7579 37.6626 34.0044 37.713 33.2229 37.713C32.7439 37.713 32.2649 37.562 31.786 37.2599C31.5339 37.1089 31.3322 36.8824 31.1809 36.5804C31.0801 36.2784 31.0549 35.9904 31.1053 35.7136C31.307 34.6062 31.9232 33.8036 32.9568 33.3003C33.461 33.0738 33.9764 32.9731 34.5058 32.9983C34.7831 33.0235 35.0464 33.0738 35.2985 33.1493C35.6262 33.25 35.8279 33.3311 35.9035 33.3954C35.9791 33.4569 35.9847 33.5268 35.9231 33.6023C35.8587 33.6778 35.7522 33.7533 35.601 33.8288C35.3741 33.9295 35.1724 34.0665 34.996 34.2427C34.2901 34.0162 33.6235 34.1057 32.9932 34.5055C32.6907 34.7069 32.4526 34.9697 32.2761 35.2969C32.2005 35.4479 32.1445 35.6045 32.1053 35.7695C32.0661 35.9317 32.0605 36.0659 32.0857 36.1666C32.1361 36.3679 32.3238 36.5301 32.6515 36.6559C32.9792 36.7818 33.3433 36.8321 33.7467 36.8069C34.5786 36.8069 35.4329 36.7314 36.3153 36.5804C39.8418 36.1023 43.3291 35.4871 46.78 34.732L46.7884 34.7348ZM55.6285 33.0766C56.9898 32.6236 58.2979 32.0839 59.5584 31.4547C60.3651 31.0772 61.0821 30.613 61.7124 30.0593C62.0149 29.7825 62.267 29.4693 62.4687 29.117C62.5695 28.9156 62.6199 28.7394 62.6199 28.5884C62.6199 28.3116 62.4883 28.1159 62.2222 28.004C61.9589 27.8921 61.648 27.8334 61.2978 27.8334C60.9953 27.8334 60.6928 27.8642 60.3903 27.9285C60.0878 27.99 59.8357 28.0739 59.634 28.1746C58.6508 28.5773 57.8077 29.2064 57.1019 30.0593C56.4716 30.915 55.9926 31.8574 55.6677 32.8892L55.6285 33.0766ZM55.4772 33.7925C55.2756 34.4971 55.0991 35.213 54.9478 35.9429L54.5697 37.8668L58.0458 34.3965C58.2475 34.1951 58.4744 34.019 58.7265 33.868C58.9281 33.7421 59.1662 33.6806 59.4435 33.6806C59.62 33.6806 59.7825 33.717 59.9337 33.7925C60.1102 33.868 60.2614 33.9798 60.3875 34.1308C60.5135 34.2818 60.6144 34.4328 60.69 34.5838C60.7656 34.7852 60.802 34.9977 60.802 35.2242C61.9113 34.8719 63.0177 34.6454 64.1269 34.5447L65.9027 34.4692C67.1884 34.4692 68.4713 34.5559 69.757 34.732C69.9083 34.7824 70.0343 34.8271 70.1351 34.8635C70.236 34.8998 70.2864 34.9334 70.2864 34.9585C70.2864 35.0089 70.2108 35.0536 70.0595 35.09C69.9082 35.1291 69.6562 35.1599 69.3032 35.1851C68.3705 35.1096 67.4265 35.0732 66.4714 35.0732C65.6142 35.0732 64.7711 35.1096 63.9392 35.1851C62.7796 35.2857 61.6844 35.5626 60.6536 36.0156C60.6284 36.0659 60.6032 36.1023 60.578 36.1274C60.5275 36.2281 60.4911 36.3288 60.4659 36.4294C60.3651 36.6559 60.2026 36.8824 59.9757 37.1089L59.9393 37.1453C59.9141 37.1956 59.8693 37.2516 59.8077 37.3159C59.746 37.3774 59.662 37.4361 59.5612 37.4865L59.5248 37.4865C59.4239 37.5368 59.2979 37.562 59.1466 37.562L59.0346 37.562C58.8833 37.5368 58.7629 37.4865 58.676 37.4109C58.5892 37.3354 58.5192 37.2599 58.4688 37.1844L58.2419 36.7706C58.5444 36.4937 58.8217 36.2672 59.0738 36.0911C59.3259 35.9149 59.6396 35.7387 60.0177 35.5626C60.043 35.4619 60.0542 35.35 60.0542 35.2242C60.0542 35.0732 60.0177 34.9362 59.9421 34.8103C59.7909 34.5838 59.6144 34.472 59.4127 34.472C59.2867 34.472 59.1494 34.5335 58.9982 34.6593C58.7461 34.8607 58.494 35.0984 58.2419 35.3752L57.9786 35.6381C57.6509 35.9904 57.3932 36.2672 57.2055 36.4686C57.0178 36.6699 56.8722 36.8209 56.7713 36.9216C56.6705 37.0474 56.5696 37.1593 56.4688 37.2599C56.368 37.3606 56.2307 37.4976 56.0543 37.6738C55.8778 37.85 55.5893 38.138 55.1859 38.5407C55.1103 38.6162 55.0403 38.6861 54.9787 38.7476C54.917 38.8091 54.833 38.8679 54.7322 38.9182C54.5305 39.0189 54.3288 39.0692 54.1271 39.0692C54.0263 39.0692 53.9255 39.0552 53.8246 39.0328L53.7854 39.0328C53.735 39.0077 53.6986 38.9825 53.6734 38.9573C53.6482 38.9322 53.6369 38.907 53.6369 38.8818C53.6369 38.454 53.6482 38.1772 53.6734 38.0513L53.6734 37.6738C53.6986 37.3215 53.7238 37.0642 53.749 36.902C53.7742 36.7398 53.7938 36.6056 53.805 36.5049C53.819 36.4043 53.8498 36.3036 53.9002 36.2029C53.9255 36.0268 54.0011 35.6744 54.1271 35.1459C54.1776 34.7936 54.2532 34.4552 54.354 34.128C50.9788 35.1095 47.5167 35.7499 43.9649 36.0519L43.3235 36.0883C42.8193 36.0883 42.5812 36.0379 42.6064 35.9373C42.6064 35.7863 43.2366 35.6353 44.4943 35.4843C47.92 35.0816 51.2701 34.3769 54.5445 33.373L54.6201 33.071C54.8722 32.2657 55.1299 31.5861 55.3932 31.0353C55.6565 30.4816 56.0795 29.8664 56.6593 29.1869C57.4408 28.3312 58.3847 27.7048 59.4939 27.3021C60.1242 27.1008 60.7656 27.0001 61.4211 27.0001L62.1017 27.0365C62.6059 27.1371 62.9392 27.3385 63.1017 27.6405C63.2642 27.9425 63.3482 28.2557 63.3482 28.5828L63.309 29.0722C63.1325 29.6762 62.7544 30.2047 62.1746 30.6549C61.4183 31.3093 60.6144 31.8126 59.7572 32.1622C58.3707 32.8165 56.9478 33.3562 55.4884 33.7841L55.4772 33.7925ZM82.5998 34.8467L83.4681 34.6957L83.1292 35.3361C82.1208 35.5626 81.0144 35.7695 79.8044 35.9596C78.5943 36.147 77.4627 36.2561 76.4039 36.2812C75.4207 36.2812 74.4656 36.2057 73.5328 36.0547L73.4208 36.2421C73.0678 36.8209 72.6281 37.2851 72.0987 37.6375C71.5189 38.015 70.9026 38.2527 70.2472 38.3533C69.9195 38.4037 69.5805 38.3925 69.2276 38.317C69.0259 38.2918 68.8298 38.2219 68.6422 38.11C68.4545 37.9982 68.2948 37.8388 68.1688 37.6375C67.9671 37.2096 67.8915 36.8069 67.9419 36.4294C67.9923 36.0519 68.1044 35.7247 68.2808 35.4479C68.6338 34.8187 69.1128 34.3154 69.715 33.9407C69.9671 33.8148 70.1043 33.8903 70.1295 34.1672C70.1547 34.444 70.0427 34.8327 69.7906 35.3361C69.4377 35.6632 69.1996 36.0407 69.0735 36.4686C68.9979 36.6699 68.9867 36.8461 69.0371 36.9971C69.0623 37.0474 69.0875 37.0922 69.1128 37.1285C69.138 37.1677 69.1884 37.1984 69.264 37.2236C69.4153 37.2991 69.6029 37.3354 69.8298 37.3354C70.0567 37.3354 70.2836 37.3103 70.5105 37.2599C70.9895 37.1341 71.418 36.9216 71.7962 36.6196C72.1239 36.3931 72.4012 36.1162 72.6281 35.7891C72.3508 35.7136 72.0987 35.6129 71.8718 35.4871L71.1911 35.1851C71.0399 35.1599 70.8886 35.09 70.7374 34.9781C70.5861 34.8663 70.5105 34.7209 70.5105 34.5447C70.5105 34.3433 70.5721 34.156 70.6982 33.9798C70.8242 33.8036 70.9614 33.6778 71.1127 33.6023C71.4656 33.4513 71.7934 33.3758 72.0959 33.3758C72.2723 33.3758 72.4348 33.3814 72.5861 33.3954C72.7373 33.4066 72.8998 33.4261 73.0762 33.4513C73.2779 33.5016 73.4488 33.6079 73.586 33.7729C73.7261 33.9351 73.8185 34.1196 73.8689 34.321C73.9446 34.6985 73.9193 35.0508 73.7933 35.378C74.7008 35.529 75.6196 35.6045 76.5523 35.6045C78.5663 35.6045 80.5831 35.3528 82.597 34.8495L82.5998 34.8467ZM72.2499 34.8103C72.3004 34.8355 72.3508 34.8607 72.4012 34.8858C72.5524 34.9613 72.7289 35.0368 72.9306 35.1123L72.9306 35.0005C72.9306 34.9753 72.9418 34.9502 72.9698 34.925C73.0202 34.7236 73.0202 34.5615 72.9698 34.4356C72.9446 34.4105 72.9306 34.3993 72.9306 34.3993C72.9306 34.3741 72.925 34.3545 72.911 34.3433C72.897 34.3294 72.8802 34.3182 72.855 34.307C72.8298 34.293 72.7933 34.2874 72.7429 34.2874C72.516 34.2371 72.2779 34.2259 72.0258 34.2511C71.799 34.2511 71.6225 34.2874 71.4964 34.3629C71.4712 34.3881 71.446 34.3993 71.4208 34.3993C71.4208 34.4244 71.4152 34.4356 71.4012 34.4356L71.3816 34.4356L71.4936 34.472C71.5693 34.4971 71.6701 34.5419 71.7962 34.6034C71.9222 34.6649 72.0342 34.7236 72.1351 34.774C72.1855 34.774 72.2219 34.788 72.2471 34.8103L72.2499 34.8103Z" fill="rgb(0,0,0)" fill-rule="nonzero" />
			<path id="Vector" d="M89.2105 34.282L89.4374 34.2065L89.7399 34.0555C89.8408 34.0303 89.9528 34.0191 90.0788 34.0191C89.7007 33.2641 89.1601 32.5734 88.4542 31.9442C88.2273 31.7177 87.9893 31.5052 87.7372 31.3039C87.6111 31.2032 87.4851 31.0914 87.359 30.9655L86.754 30.5125L86.5271 30.3615C86.4011 30.2608 86.2638 30.149 86.1125 30.0231L86.0369 29.9476C85.9361 29.8721 85.8493 29.7715 85.7736 29.6456C85.6224 29.4191 85.5355 29.1926 85.5103 28.9661C85.5103 28.6893 85.5972 28.4628 85.7736 28.2866C85.9753 28.0853 86.163 27.9594 86.3394 27.9091C86.894 27.6826 87.4347 27.5456 87.9641 27.4952C89.0481 27.3946 90.0928 27.3442 91.0984 27.3442L93.2888 27.4952C93.3897 27.5204 93.5017 27.5456 93.6278 27.5707C94.2328 27.6966 94.8742 27.8979 95.5549 28.1748C95.1011 28.0741 94.6866 28.0126 94.3084 27.9874L94.0451 27.9874L92.611 27.9119L90.3057 28.0238C89.2721 28.0489 88.2525 28.1608 87.247 28.3621C86.9949 28.4124 86.7624 28.4879 86.5467 28.5886C86.3338 28.6893 86.2498 28.8403 86.3002 29.0416C86.3254 29.1423 86.3758 29.229 86.4515 29.3045C86.5271 29.38 86.6139 29.4555 86.7148 29.531L87.3198 30.0204C88.2021 30.6244 88.9948 31.3151 89.7007 32.0952C90.4822 32.8251 90.9472 33.4403 91.0984 33.9436C91.1993 34.3212 91.2609 34.6232 91.2861 34.8497L91.3981 34.9615C92.3813 35.4649 93.639 35.6606 95.1768 35.546C96.7117 35.4341 98.059 35.2384 99.2187 34.9615C99.8993 34.8608 100.087 34.9475 99.7845 35.2244C98.6248 35.7781 97.1767 36.0968 95.44 36.1863C93.7034 36.273 92.1908 36.0409 90.908 35.4872C90.7567 35.4117 90.6306 35.3111 90.5298 35.1852C90.5046 35.1601 90.4794 35.1237 90.4542 35.0734L90.4178 35.0734C90.2413 34.9979 90.0788 34.9112 89.9276 34.8105C89.9024 34.8357 89.8772 34.8469 89.852 34.8469L89.3982 35.0734L87.5103 35.9402L85.6588 36.7708L85.5832 36.8071C85.3059 36.9833 84.9529 37.0951 84.5244 37.1455C84.2975 37.1455 84.0706 37.084 83.8437 36.9581C83.6168 36.8323 83.4544 36.6058 83.3535 36.2786C83.3535 36.0269 83.3843 35.82 83.4488 35.655C83.5104 35.4928 83.5804 35.3586 83.656 35.2579C83.6812 35.2579 83.6925 35.2467 83.6925 35.2216C83.8437 34.9699 84.0202 34.7322 84.2218 34.5057L84.2611 34.4694C84.7148 34.0163 85.219 33.664 85.7708 33.4123C87.0061 32.8587 88.1377 32.7468 89.1713 33.074C88.8436 33.3508 88.5411 33.678 88.2638 34.0555C87.9612 33.98 87.6027 33.9856 87.1882 34.0751C86.7736 34.1618 86.3646 34.3072 85.9613 34.5085C85.5579 34.7098 85.205 34.9727 84.9025 35.2999C84.7512 35.4509 84.614 35.6271 84.4879 35.8284C84.3871 35.9542 84.3367 36.0549 84.3367 36.1304L84.3759 36.1304C84.4011 36.1556 84.4263 36.1751 84.4515 36.1863C84.4767 36.2003 84.5019 36.1919 84.5272 36.1667C84.6532 36.1919 84.8297 36.1556 85.0566 36.0549C85.1322 36.0046 85.219 35.9682 85.3199 35.943L89.1741 34.2848L89.2105 34.2848L89.2105 34.282ZM112.935 34.8469L113.804 34.6959L113.465 35.3362C112.456 35.5627 111.35 35.7697 110.14 35.9598C108.93 36.1472 107.798 36.2562 106.739 36.2814C105.756 36.2814 104.801 36.2059 103.868 36.0549L103.756 36.2423C103.403 36.8211 102.964 37.2853 102.434 37.6376C101.854 38.0151 101.238 38.2528 100.583 38.3535C100.255 38.4038 99.9161 38.3927 99.5632 38.3172C99.3615 38.292 99.1654 38.2221 98.9778 38.1102C98.7901 37.9984 98.6304 37.839 98.5044 37.6376C98.3027 37.2098 98.2271 36.8071 98.2775 36.4296C98.3279 36.0521 98.44 35.7249 98.6164 35.4481C98.9694 34.8189 99.4483 34.3156 100.053 33.9408C100.305 33.815 100.443 33.8905 100.468 34.1674C100.493 34.4442 100.381 34.8329 100.129 35.3362C99.7761 35.6634 99.538 36.0409 99.4119 36.4688C99.3363 36.6701 99.3251 36.8463 99.3755 36.9973C99.4007 37.0476 99.4259 37.0923 99.4511 37.1287C99.4764 37.1678 99.5268 37.1986 99.6024 37.2238C99.7537 37.2993 99.9413 37.3356 100.168 37.3356C100.395 37.3356 100.622 37.3105 100.849 37.2601C101.328 37.1343 101.756 36.9218 102.135 36.6198C102.462 36.3933 102.74 36.1164 102.966 35.7892C102.689 35.7137 102.437 35.6131 102.21 35.4872L101.53 35.1852C101.378 35.1601 101.227 35.0902 101.076 34.9783C100.925 34.8664 100.849 34.721 100.849 34.5449C100.849 34.3435 100.91 34.1562 101.037 33.98C101.163 33.8038 101.3 33.678 101.451 33.6025C101.804 33.4515 102.132 33.376 102.434 33.376C102.611 33.376 102.773 33.3816 102.924 33.3956C103.076 33.4067 103.238 33.4263 103.415 33.4515C103.616 33.5018 103.787 33.6081 103.924 33.7731C104.062 33.9353 104.157 34.1198 104.207 34.3212C104.283 34.6987 104.258 35.051 104.132 35.3782C105.039 35.5292 105.958 35.6047 106.891 35.6047C108.905 35.6047 110.921 35.353 112.935 34.8497L112.935 34.8469ZM102.586 34.8105C102.636 34.8357 102.686 34.8608 102.737 34.886C102.888 34.9615 103.065 35.037 103.266 35.1125L103.266 35.0007C103.266 34.9755 103.277 34.9503 103.303 34.9252C103.353 34.7238 103.353 34.5616 103.303 34.4358C103.277 34.4106 103.266 34.3995 103.266 34.3995C103.266 34.3743 103.261 34.3547 103.247 34.3435C103.233 34.3295 103.216 34.3184 103.191 34.3072C103.165 34.2932 103.129 34.2876 103.079 34.2876C102.852 34.2373 102.614 34.2261 102.361 34.2512C102.135 34.2512 101.958 34.2876 101.832 34.3631C101.807 34.3883 101.782 34.3995 101.756 34.3995C101.756 34.4246 101.751 34.4358 101.737 34.4358L101.717 34.4358L101.829 34.4722C101.905 34.4973 102.006 34.5421 102.132 34.6036C102.258 34.6651 102.37 34.7238 102.471 34.7742C102.521 34.7742 102.558 34.7881 102.583 34.8105L102.586 34.8105ZM130.655 34.8469C131.714 34.7965 132.159 34.8525 131.997 35.0174C131.834 35.1796 131.209 35.3139 130.125 35.4145C126.7 35.8172 123.35 36.5219 120.075 37.5258L119.661 38.8093C119.257 39.8663 118.692 40.8339 117.96 41.7147C117.179 42.5704 116.235 43.1968 115.126 43.5995C114.269 43.8763 113.4 43.963 112.518 43.8623C111.888 43.7113 111.51 43.4233 111.384 42.9955C111.258 42.5676 111.232 42.1789 111.308 41.8266C111.51 41.2226 111.888 40.6941 112.442 40.2438C113.224 39.5895 114.028 39.0861 114.86 38.7366C116.269 38.0571 117.72 37.5034 119.204 37.0784C119.28 36.9022 119.33 36.7009 119.355 36.4743C119.381 36.2982 119.406 36.1472 119.431 36.0213C119.456 35.9207 119.467 35.8591 119.467 35.834C119.467 35.8088 119.462 35.7892 119.448 35.7781C119.434 35.7669 119.417 35.7473 119.392 35.7221L119.28 35.7221C118.826 35.7473 118.322 35.834 117.77 35.985C117.367 36.0857 116.977 36.1975 116.599 36.3233C116.473 36.3485 116.347 36.3849 116.221 36.4352L114.596 36.9637L114.182 37.0756L113.994 37.1119L113.882 37.1119C113.832 37.1371 113.77 37.1483 113.694 37.1483C113.442 37.1986 113.21 37.1986 112.994 37.1483C112.781 37.0979 112.61 36.9721 112.484 36.7708C112.459 36.6953 112.459 36.6337 112.484 36.5834L112.484 36.1304C112.484 36.0801 112.496 36.0241 112.521 35.9598C112.546 35.8983 112.571 35.8396 112.596 35.7892L112.748 35.4872L113.011 35.0734L113.389 34.735C113.919 34.3323 114.473 34.0555 115.05 33.9045C116.235 33.6277 117.392 33.541 118.526 33.6416C118.047 33.9688 117.594 34.3463 117.165 34.7742C116.182 34.7742 115.263 34.9615 114.406 35.339C114.204 35.4649 114.042 35.5907 113.916 35.7165L113.728 35.9794L113.652 36.0912L113.728 36.0912C114.232 35.9654 114.748 35.8144 115.277 35.6382C115.756 35.4872 116.235 35.3502 116.711 35.2244C117.241 35.0482 117.77 34.9224 118.297 34.8469C118.574 34.7714 118.862 34.735 119.165 34.735C119.367 34.735 119.588 34.7658 119.826 34.8301C120.064 34.8944 120.235 35.037 120.336 35.2635C120.437 35.49 120.462 35.7417 120.411 36.0185L120.336 36.4715C120.285 36.5974 120.26 36.6981 120.26 36.7736C123.635 35.792 127.098 35.1517 130.649 34.8497L130.655 34.8469ZM118.944 38.0151L118.944 37.9396C118.969 37.9145 118.98 37.8781 118.98 37.8278C117.619 38.2808 116.311 38.8205 115.05 39.4497C114.269 39.8272 113.552 40.2914 112.896 40.8451C112.594 41.1219 112.342 41.4351 112.14 41.7874C111.913 42.3411 111.977 42.699 112.328 42.8612C112.681 43.0234 113.126 43.0821 113.669 43.0318C114.21 42.9815 114.644 42.8808 114.972 42.7298C115.98 42.3271 116.823 41.6979 117.504 40.8451C118.134 39.9894 118.613 39.047 118.938 38.0151L118.944 38.0151ZM146.635 34.9615C147.316 34.8608 147.503 34.9475 147.201 35.2244C146.041 35.7781 144.593 36.0968 142.856 36.1863C141.12 36.273 139.607 36.0409 138.324 35.4872C138.173 35.4117 138.047 35.3111 137.946 35.1852C137.845 35.0594 137.744 34.9587 137.643 34.8832C137.543 34.8077 137.417 34.7965 137.265 34.8469L136.812 35.0734L134.924 35.9402L133.072 36.7708C133.047 36.7708 133.022 36.7819 132.997 36.8071C132.719 36.9833 132.366 37.0951 131.938 37.1455C131.711 37.1455 131.484 37.084 131.257 36.9581C131.03 36.8323 130.868 36.6058 130.767 36.2786C130.767 36.0269 130.798 35.82 130.862 35.655C130.924 35.4928 130.994 35.3586 131.069 35.2579C131.095 35.2579 131.109 35.2467 131.109 35.2216C131.26 34.9699 131.436 34.7322 131.638 34.5057C131.638 34.5057 131.649 34.4917 131.674 34.4694C132.128 34.0163 132.632 33.664 133.187 33.4123C134.372 32.8587 135.604 32.758 136.89 33.1103C136.562 33.3872 136.26 33.7143 135.982 34.0919C135.075 33.9157 134.207 34.0527 133.375 34.5057C132.971 34.7071 132.618 34.9699 132.316 35.2971C132.165 35.4481 132.027 35.6243 131.901 35.8256C131.8 35.9514 131.75 36.0521 131.75 36.1276L131.786 36.1276C131.812 36.1528 131.837 36.1723 131.862 36.1835C131.887 36.1975 131.913 36.1891 131.938 36.164C132.064 36.1891 132.24 36.1528 132.467 36.0521C132.543 36.0018 132.63 35.9654 132.73 35.9402L136.585 34.282L136.848 34.2065L137.15 34.0555C137.529 33.9548 137.856 34.0191 138.134 34.2429C138.31 34.4442 138.422 34.5812 138.473 34.6567C138.498 34.6819 138.523 34.7071 138.548 34.7322L138.812 34.9587C139.795 35.4621 141.052 35.6578 142.59 35.5432C144.125 35.4313 145.475 35.2356 146.632 34.9587L146.635 34.9615Z" fill="rgb(0,0,0)" fill-rule="nonzero" />
		</g>
		<g id="2">
			<path id="Vector" d="M7.91857 83.205L9.35271 83.4315L7.69168 83.7335C6.33317 83.7838 5.03349 83.8453 3.80102 83.9208L1.83749 83.9572C1.45935 84.0075 1.07 83.9824 0.666652 83.8817C0.540605 83.8565 0.414556 83.8202 0.288509 83.7699C0.162461 83.7195 0.0756281 83.6636 0.0252091 83.5993C-0.0252098 83.5378 8.86619e-07 83.479 0.100839 83.4287L1.31089 82.6373L2.29406 81.8823C2.6722 81.6055 3.07555 81.3174 3.50411 81.0154C3.78142 80.8141 4.06993 80.6016 4.37244 80.3751C5.65812 79.3684 6.76454 78.2387 7.69729 76.9803C8.17627 76.3259 8.50399 75.6213 8.68045 74.869C8.75608 74.4915 8.73088 74.1084 8.60483 73.7197C8.47878 73.331 8.2659 73.0206 7.96339 72.7969C7.63566 72.5453 7.24071 72.3747 6.77294 72.288C6.30796 72.2013 5.8598 72.1426 5.43124 72.1174C4.97747 72.1174 4.5377 72.1538 4.10914 72.2293L4.03351 72.2293C4.0083 72.2293 3.9887 72.2349 3.97749 72.2488C3.96629 72.2628 3.95789 72.2684 3.95789 72.2684C3.95789 72.2684 3.95228 72.274 3.93828 72.288C3.92707 72.2992 3.90747 72.3188 3.88226 72.3439C3.88226 72.3439 3.87105 72.3551 3.84584 72.3803C3.84584 72.4054 3.84024 72.4166 3.82624 72.4166C3.81223 72.4166 3.80663 72.4222 3.80663 72.4362L3.80663 72.4558L3.84584 72.4558C3.77021 72.4809 3.66378 72.467 3.52372 72.4194C3.38647 72.3691 3.25202 72.2936 3.12597 72.1929C3.07556 72.0922 3.02513 71.972 2.97472 71.835C2.9243 71.698 2.88788 71.5637 2.86268 71.4379C2.98872 71.3372 3.13438 71.2673 3.29684 71.231C3.4593 71.1918 3.60495 71.1611 3.731 71.1359C3.95788 71.0856 4.19598 71.0604 4.44807 71.0604C4.95226 71.0352 5.46765 71.0604 5.99705 71.1359C6.57687 71.1862 7.14268 71.3372 7.69729 71.5889C7.97459 71.7147 8.2575 71.8853 8.54601 72.0978C8.83451 72.3104 9.0698 72.5564 9.24627 72.8333C9.5992 73.387 9.78687 73.9155 9.81208 74.416C9.83729 74.9194 9.76166 75.3584 9.5852 75.7359C9.30789 76.5413 8.90454 77.2683 8.37514 77.9227C7.36676 79.1307 6.19593 80.2101 4.86263 81.1664C4.48448 81.4433 4.10634 81.7061 3.7282 81.9578C3.40048 82.1591 3.09796 82.3605 2.82066 82.5618L1.64982 83.3532L3.80383 83.3168C4.2576 83.2917 4.71137 83.2805 5.16514 83.2805C6.07268 83.2302 6.99142 83.205 7.92417 83.205L7.91857 83.205ZM14.0389 80.8644L13.7756 80.9008L13.5123 80.8644L12.8708 79.6956L14.0417 79.6956L14.0417 80.8644L14.0389 80.8644ZM37.24 87.3156L36.7862 87.956L36.8254 86.9381L40.4892 72.6431C37.4921 74.4272 34.3941 76.0491 31.1953 77.5088C30.3382 77.9115 29.4082 78.0625 28.3999 77.9618C27.8957 77.8863 27.4307 77.6738 27.0021 77.3214C26.624 76.9188 26.3719 76.4658 26.2458 75.9624C26.0442 74.9557 26.0582 74.0022 26.2823 73.0961C26.4587 72.1398 26.7864 71.2478 27.2654 70.4172C27.4671 70.7947 27.7052 71.1583 27.9825 71.5106C27.6044 72.2405 27.3523 73.0178 27.2262 73.8484C27.0498 74.704 27.089 75.4563 27.3383 76.1106C27.666 76.7398 28.2066 77.0782 28.9629 77.1285C29.7191 77.1285 30.4866 76.9411 31.2681 76.5636C32.8787 75.8589 34.4781 75.1291 36.0663 74.3769L38.408 73.1689C38.6601 73.043 38.9122 72.9172 39.1643 72.7913C39.7441 72.5145 40.2483 72.2377 40.6769 71.9608L40.9037 71.0939L41.2427 71.3568L41.2819 71.0939L41.2819 71.396L41.8869 71.849L37.24 87.3128L37.24 87.3156ZM49.2173 91.8038L48.6879 92.8608C48.6879 92.3575 48.7271 91.8681 48.7999 91.3899C49.3293 89.3038 49.9203 87.2401 50.5758 85.2044L51.5589 82.1508L52.0491 80.6044L52.3124 79.8885C52.3376 79.8382 52.3516 79.8018 52.3516 79.7766C52.4021 79.676 52.4329 79.5949 52.4469 79.5306C52.4581 79.469 52.4525 79.4103 52.4273 79.36C52.3768 79.3097 52.332 79.2845 52.2956 79.2845C52.2592 79.2845 52.2004 79.2957 52.1248 79.3208L52.0127 79.3208C51.811 79.346 51.6094 79.3963 51.4077 79.4718C51.3573 79.4718 51.3068 79.4858 51.2564 79.5082C50.7522 79.6592 50.2481 79.8354 49.7439 80.0367L48.2341 80.5652C48.0072 80.6407 47.7691 80.7414 47.517 80.8672C47.2649 80.9679 47.0128 81.0686 46.7607 81.1692C46.2818 81.3957 45.7776 81.5971 45.251 81.7732L44.3827 81.9997C44.0801 82.0753 43.7412 82.0501 43.3631 81.9243C43.2622 81.8991 43.1614 81.8487 43.0606 81.7732C42.9597 81.6977 42.8729 81.6111 42.7973 81.5104C42.772 81.4852 42.7608 81.4489 42.7608 81.3985C42.6852 81.2979 42.6292 81.1972 42.59 81.0965C42.5508 80.9959 42.5452 80.8952 42.5704 80.7945L42.6824 80.4562L42.7945 80.2297L42.9821 79.8521C43.2594 79.3488 43.5984 78.8846 44.0017 78.4568C44.1025 78.9098 44.2286 79.3488 44.3798 79.7766C44.2286 79.9528 44.1025 80.1402 44.0017 80.3415C43.9261 80.4422 43.8645 80.554 43.814 80.6799L43.702 80.9064C43.7272 80.9315 43.7832 80.9427 43.8729 80.9427L44.1558 80.9427C45.0381 80.7666 45.9821 80.4534 46.9904 80.0004L47.7467 79.6983L48.503 79.4718L50.0128 78.9825C50.5169 78.7811 51.0463 78.6301 51.5982 78.5295L51.825 78.4931C51.8503 78.4931 51.8755 78.4791 51.9007 78.4568L52.1276 78.4568C52.4049 78.4316 52.643 78.4707 52.8446 78.5686C53.0463 78.6441 53.1976 78.8063 53.2984 79.058C53.2984 79.1083 53.3096 79.1587 53.3348 79.209L53.3348 79.3963L53.2592 79.7347L52.6542 81.3566L52.1248 82.8275L51.066 85.8056C50.4105 87.791 49.7943 89.7904 49.2145 91.801L49.2173 91.8038ZM64.6286 77.6598C65.99 77.2068 67.298 76.6671 68.5585 76.0379C69.3652 75.6604 70.0823 75.1962 70.7125 74.6425C71.015 74.3657 71.2671 74.0525 71.4688 73.7002C71.5696 73.4988 71.6201 73.3226 71.6201 73.1716C71.6201 72.8948 71.4884 72.6991 71.2223 72.5872C70.959 72.4753 70.6481 72.4166 70.298 72.4166C69.9955 72.4166 69.6929 72.4474 69.3904 72.5117C69.0879 72.576 68.8358 72.6571 68.6341 72.7578C67.651 73.1605 66.8079 73.7896 66.102 74.6425C65.4718 75.4982 64.9928 76.4406 64.6651 77.4724L64.6286 77.6598ZM64.4774 78.3757C64.2757 79.0804 64.0992 79.7962 63.948 80.5261L63.5699 82.45L67.046 78.9797C67.2476 78.7784 67.4745 78.6022 67.7266 78.4512C67.9283 78.3253 68.1664 78.2638 68.4437 78.2638C68.6201 78.2638 68.7826 78.3002 68.9339 78.3757C69.1103 78.4512 69.2616 78.563 69.3876 78.714C69.5137 78.865 69.6145 79.016 69.6901 79.167C69.7658 79.3684 69.8022 79.5809 69.8022 79.8074C70.9114 79.4551 72.0178 79.2286 73.127 79.1279L74.9029 79.0524C76.1886 79.0524 77.4715 79.1391 78.7571 79.3152C78.9084 79.3656 79.0344 79.4103 79.1353 79.4467C79.2361 79.483 79.2865 79.5166 79.2865 79.5417C79.2865 79.5921 79.2109 79.6368 79.0597 79.6732C78.9084 79.7095 78.6563 79.7431 78.3034 79.7683C77.3706 79.6928 76.4267 79.6564 75.4687 79.6564C74.6116 79.6564 73.7685 79.6928 72.9366 79.7683C71.7769 79.8689 70.6817 80.1458 69.6509 80.5988C69.6257 80.6491 69.6005 80.6855 69.5753 80.7106C69.5249 80.8113 69.4885 80.912 69.4633 81.0126C69.3624 81.2391 69.2 81.4656 68.9731 81.6921L68.9367 81.7285C68.9115 81.7788 68.8666 81.8348 68.805 81.8991C68.7406 81.9606 68.6594 82.0193 68.5585 82.0697L68.5193 82.0697C68.4185 82.12 68.2924 82.1452 68.1412 82.1452L68.0291 82.1452C67.8779 82.12 67.7574 82.0697 67.6706 81.9942C67.5838 81.9187 67.5137 81.8432 67.4633 81.7677L67.2364 81.3538C67.5389 81.077 67.8162 80.8504 68.0683 80.6743C68.3204 80.4981 68.6341 80.3219 69.0123 80.1458C69.0375 80.0451 69.0487 79.9332 69.0487 79.8074C69.0487 79.6564 69.0123 79.5194 68.9367 79.3935C68.7854 79.167 68.6089 79.0552 68.4073 79.0552C68.2812 79.0552 68.144 79.1167 67.9927 79.2425C67.7406 79.4439 67.4885 79.6816 67.2364 79.9584L66.9731 80.2213C66.6454 80.5736 66.3877 80.8504 66.2 81.0518C66.0124 81.2531 65.8667 81.4041 65.7659 81.5048C65.665 81.6306 65.5642 81.7425 65.4634 81.8432C65.3625 81.9438 65.2253 82.0808 65.0488 82.257C64.8723 82.4332 64.5838 82.7212 64.1805 83.1239C64.1049 83.1994 64.0348 83.2693 63.9732 83.3308C63.9116 83.3923 63.8275 83.4511 63.7267 83.5014C63.525 83.6021 63.3234 83.6524 63.1217 83.6524C63.0208 83.6524 62.92 83.6384 62.8192 83.6133L62.7827 83.6133C62.7323 83.5881 62.6959 83.5629 62.6707 83.5378C62.6455 83.5126 62.6315 83.4874 62.6315 83.4622C62.6315 83.0344 62.6455 82.7576 62.6707 82.6317L62.6707 82.2542C62.6959 81.9019 62.7211 81.6446 62.7463 81.4824C62.7716 81.3202 62.7912 81.186 62.8024 81.0853C62.8136 80.9847 62.8472 80.884 62.8976 80.7833C62.9228 80.6072 62.9984 80.2548 63.1245 79.7263C63.1749 79.374 63.2505 79.0356 63.3514 78.7084C59.9761 79.69 56.514 80.3303 52.9623 80.6323L52.3208 80.6687C51.8166 80.6687 51.5786 80.6184 51.6038 80.5177C51.6038 80.3667 52.234 80.2157 53.4917 80.0647C56.9174 79.662 60.2674 78.9573 63.5418 77.9534L63.6175 77.6514C63.8696 76.8461 64.1273 76.1665 64.3906 75.6157C64.6539 75.062 65.0768 74.4468 65.6566 73.7673C66.4381 72.9116 67.3821 72.2852 68.4885 71.8825C69.1187 71.6812 69.7602 71.5805 70.4156 71.5805L71.0963 71.6169C71.6005 71.7175 71.9338 71.9189 72.0962 72.2209C72.2587 72.5229 72.3427 72.8361 72.3427 73.1633L72.3063 73.6526C72.1299 74.2566 71.7517 74.7851 71.1719 75.2354C70.4156 75.8897 69.6117 76.3931 68.7546 76.7426C67.3681 77.3969 65.9451 77.9366 64.4858 78.3645L64.4774 78.3757ZM93.3786 79.3208C93.5803 79.3712 93.6923 79.4271 93.7176 79.4914C93.7428 79.5529 93.7064 79.6173 93.6055 79.6788C93.5047 79.7403 93.3786 79.8102 93.2274 79.8857C89.7261 80.7666 86.1883 81.4936 82.6114 82.0725C82.4349 82.0976 82.2585 82.1228 82.082 82.148C81.3509 82.2486 80.5974 82.299 79.8159 82.299C79.337 82.299 78.858 82.148 78.3818 81.846C78.1297 81.695 77.928 81.4684 77.7768 81.1664C77.6759 80.8644 77.6507 80.5764 77.7011 80.2996C77.9028 79.1922 78.5191 78.3897 79.5527 77.8863C80.0568 77.6598 80.5722 77.5591 81.1016 77.5843C81.3789 77.6095 81.6422 77.6598 81.8943 77.7353C82.222 77.836 82.4237 77.9171 82.4994 77.9814C82.575 78.0429 82.5806 78.1128 82.519 78.1883C82.4573 78.2638 82.3481 78.3393 82.1968 78.4148C81.97 78.5155 81.7683 78.6525 81.5918 78.8287C80.8859 78.6022 80.2193 78.6917 79.5891 79.0915C79.2865 79.2929 79.0485 79.5557 78.872 79.8829C78.7964 80.0339 78.7403 80.1905 78.7011 80.3555C78.6647 80.5177 78.6563 80.6519 78.6815 80.7526C78.7319 80.9539 78.9196 81.1161 79.2473 81.2419C79.575 81.3678 79.9392 81.4181 80.3425 81.3929C81.1744 81.3929 82.0288 81.3174 82.9111 81.1664C86.4376 80.6883 89.9249 80.0731 93.3758 79.318L93.3786 79.3208ZM116.913 79.469C117.342 79.4942 117.781 79.5054 118.235 79.5054C117.706 79.7067 117.165 79.8829 116.611 80.0339C114.95 80.2604 113.274 80.3974 111.585 80.4478L110.3 80.5233C109.896 80.5736 109.482 80.5848 109.053 80.5596C108.826 80.5345 108.6 80.4841 108.373 80.4086C108.146 80.3331 107.969 80.1961 107.843 79.9948C107.742 79.8186 107.681 79.6676 107.656 79.5417C107.605 79.3907 107.555 79.2705 107.504 79.1838C107.454 79.0971 107.367 79.0384 107.241 79.0132C107.014 78.9629 106.737 78.9769 106.409 79.0496C106.308 79.0748 106.207 79.0999 106.107 79.1251C105.703 79.2258 105.3 79.3516 104.897 79.5026C104.14 79.7543 103.398 80.0926 102.667 80.5205L101.608 81.2C101.406 81.3258 101.18 81.4265 100.927 81.502C100.675 81.5775 100.412 81.5775 100.135 81.502C100.009 81.4768 99.8827 81.4069 99.7566 81.2951C99.6306 81.1832 99.5438 81.063 99.4933 80.9371C99.3925 80.7358 99.3421 80.5345 99.3421 80.3331C99.3169 80.2828 99.3029 80.2325 99.3029 80.1821L99.3029 79.8801C99.3029 79.7794 99.2916 79.6928 99.2664 79.6173C99.2412 79.5418 99.216 79.4914 99.1908 79.4662C99.1656 79.4411 99.1404 79.4159 99.1152 79.3908C98.737 79.3908 98.3225 79.4523 97.8687 79.5781C97.2889 79.7291 96.6923 79.9556 96.0732 80.2576C95.4542 80.5596 94.908 80.898 94.429 81.2755L92.9949 82.3689C92.642 82.394 92.4291 82.2626 92.3534 81.9718C92.2778 81.6838 92.2834 81.3314 92.3731 80.9148C92.4599 80.5009 92.5551 80.1178 92.656 79.7655C92.6812 79.6396 92.7064 79.5278 92.7316 79.4271L92.8829 78.9741L93.0341 78.6357C93.3114 78.0317 93.5495 77.794 93.7512 77.9199C93.9529 78.0457 94.0789 78.398 94.1293 78.9769L93.5635 80.5596L93.9024 80.3331C94.0033 80.2828 94.1041 80.2213 94.2049 80.1458C95.2637 79.4914 96.4094 78.9769 97.6418 78.5994C97.8939 78.5239 98.1712 78.4735 98.4737 78.4484L98.6614 78.4484C98.737 78.4232 98.8127 78.412 98.8883 78.412C99.0396 78.412 99.2524 78.4484 99.5297 78.5239C99.7314 78.6245 99.8827 78.7616 99.9835 78.9377C100.11 79.1139 100.185 79.2761 100.21 79.4271L100.21 79.4635C100.236 79.7151 100.25 79.9528 100.25 80.1793C100.25 80.28 100.255 80.3611 100.269 80.4254C100.28 80.4869 100.3 80.5317 100.325 80.5568C100.325 80.582 100.331 80.6016 100.345 80.6128C100.359 80.6239 100.37 80.6379 100.381 80.6491C100.392 80.6603 100.412 80.6687 100.437 80.6687C100.614 80.719 100.866 80.6323 101.194 80.4058C101.42 80.2548 101.673 80.1038 101.95 79.9528C102.076 79.8773 102.202 79.8018 102.328 79.7263C103.135 79.3236 103.953 78.9713 104.785 78.6693L106.107 78.3309L106.824 78.2191C106.95 78.2191 107.101 78.2331 107.277 78.2582C107.454 78.2834 107.63 78.3589 107.807 78.4847C107.983 78.6106 108.109 78.756 108.185 78.9182C108.261 79.0804 108.311 79.2146 108.336 79.3152C108.361 79.3907 108.387 79.4523 108.412 79.5026C108.437 79.5529 108.451 79.5893 108.451 79.6145C108.476 79.6145 108.49 79.6256 108.49 79.6508C108.541 79.7263 108.642 79.7822 108.793 79.8214C108.944 79.8605 109.107 79.8773 109.283 79.8773C109.686 79.9025 110.101 79.8913 110.529 79.841L111.815 79.8046C113.552 79.7794 115.252 79.6676 116.916 79.4662L116.913 79.469ZM126.546 77.6598C127.907 77.2068 129.215 76.6671 130.476 76.0379C131.282 75.6604 132 75.1962 132.63 74.6425C132.932 74.3657 133.184 74.0525 133.386 73.7002C133.487 73.4988 133.537 73.3226 133.537 73.1716C133.537 72.8948 133.406 72.6991 133.14 72.5872C132.876 72.4753 132.565 72.4166 132.215 72.4166C131.913 72.4166 131.61 72.4474 131.308 72.5117C131.005 72.576 130.753 72.6571 130.551 72.7578C129.568 73.1605 128.725 73.7896 128.019 74.6425C127.389 75.4982 126.91 76.4406 126.585 77.4724L126.546 77.6598ZM126.395 78.3757C126.193 79.0804 126.016 79.7962 125.865 80.5261L125.487 82.45L128.963 78.9797C129.165 78.7784 129.392 78.6022 129.644 78.4512C129.846 78.3253 130.084 78.2638 130.361 78.2638C130.537 78.2638 130.7 78.3002 130.851 78.3757C131.028 78.4512 131.179 78.563 131.305 78.714C131.431 78.865 131.532 79.016 131.607 79.167C131.683 79.3684 131.719 79.5809 131.719 79.8074C132.829 79.4551 133.935 79.2286 135.044 79.1279L136.82 79.0524C138.106 79.0524 139.389 79.1391 140.674 79.3152C140.826 79.3656 140.952 79.4103 141.053 79.4467C141.153 79.483 141.204 79.5166 141.204 79.5417C141.204 79.5921 141.128 79.6368 140.977 79.6732C140.826 79.7095 140.574 79.7431 140.221 79.7683C139.288 79.6928 138.344 79.6564 137.386 79.6564C136.529 79.6564 135.686 79.6928 134.854 79.7683C133.694 79.8689 132.599 80.1458 131.568 80.5988C131.543 80.6491 131.518 80.6855 131.493 80.7106C131.442 80.8113 131.406 80.912 131.38 81.0126C131.28 81.2391 131.117 81.4656 130.89 81.6921L130.854 81.7285C130.829 81.7788 130.784 81.8348 130.722 81.8991C130.661 81.9606 130.577 82.0193 130.476 82.0697L130.439 82.0697C130.338 82.12 130.212 82.1452 130.061 82.1452L129.949 82.1452C129.798 82.12 129.677 82.0697 129.591 81.9942C129.504 81.9187 129.434 81.8432 129.383 81.7677L129.156 81.3538C129.459 81.077 129.736 80.8504 129.988 80.6743C130.24 80.4981 130.554 80.3219 130.932 80.1458C130.958 80.0451 130.969 79.9332 130.969 79.8074C130.969 79.6564 130.932 79.5194 130.857 79.3935C130.705 79.167 130.529 79.0552 130.327 79.0552C130.201 79.0552 130.064 79.1167 129.913 79.2425C129.661 79.4439 129.409 79.6816 129.156 79.9584L128.893 80.2213C128.565 80.5736 128.308 80.8504 128.12 81.0518C127.932 81.2531 127.787 81.4041 127.686 81.5048C127.585 81.6306 127.484 81.7425 127.383 81.8432C127.283 81.9438 127.145 82.0808 126.969 82.257C126.792 82.4332 126.504 82.7212 126.101 83.1239C126.025 83.1994 125.955 83.2693 125.893 83.3308C125.832 83.3923 125.748 83.4511 125.647 83.5014C125.445 83.6021 125.243 83.6524 125.042 83.6524C124.941 83.6524 124.84 83.6384 124.739 83.6133L124.703 83.6133C124.652 83.5881 124.616 83.5629 124.591 83.5378C124.566 83.5126 124.554 83.4874 124.554 83.4622C124.554 83.0344 124.568 82.7576 124.591 82.6317L124.591 82.2542C124.616 81.9019 124.641 81.6446 124.666 81.4824C124.692 81.3202 124.711 81.186 124.722 81.0853C124.736 80.9847 124.767 80.884 124.818 80.7833C124.843 80.6072 124.918 80.2548 125.045 79.7263C125.095 79.374 125.171 79.0356 125.271 78.7084C121.896 79.69 118.434 80.3303 114.882 80.6323L114.241 80.6687C113.737 80.6687 113.499 80.6184 113.524 80.5177C113.524 80.3667 114.154 80.2157 115.412 80.0647C118.837 79.662 122.187 78.9573 125.462 77.9534L125.537 77.6514C125.79 76.8461 126.047 76.1665 126.311 75.6157C126.574 75.062 126.997 74.4468 127.577 73.7673C128.358 72.9116 129.302 72.2852 130.411 71.8825C131.042 71.6812 131.683 71.5805 132.338 71.5805L133.019 71.6169C133.523 71.7175 133.857 71.9189 134.019 72.2209C134.182 72.5229 134.266 72.8361 134.266 73.1633L134.226 73.6526C134.05 74.2566 133.672 74.7851 133.092 75.2354C132.336 75.8897 131.532 76.3931 130.675 76.7426C129.288 77.3969 127.865 77.9366 126.406 78.3645L126.395 78.3757ZM153.898 79.469C154.68 79.2929 154.999 79.2733 154.862 79.4131C154.724 79.5501 154.363 79.7599 153.786 80.0367C152.929 80.1625 151.708 80.5149 150.122 81.0937C148.811 81.5467 147.453 81.9606 146.041 82.3381C144.629 82.7156 143.358 82.8862 142.226 82.847C141.092 82.8107 140.274 82.3884 139.77 81.5831C139.442 80.8532 139.431 80.0982 139.73 79.3208C140.235 78.138 141.067 77.3354 142.223 76.9076C142.425 76.8321 142.672 76.7873 142.96 76.7762C143.249 76.7622 143.52 76.8125 143.772 76.9272C144.024 77.039 144.162 77.2487 144.187 77.5507C144.187 77.7269 144.136 77.9283 144.036 78.1548C143.809 78.5323 143.456 78.8846 142.977 79.2118C142.246 79.7403 141.453 80.129 140.596 80.3807C140.52 81.1608 140.949 81.6894 141.882 81.9634C142.865 82.1647 144.106 82.0948 145.601 81.7565C147.1 81.4181 148.694 80.9847 150.38 80.4562C151.565 80.1038 152.736 79.7766 153.893 79.4746L153.898 79.469ZM142.943 77.8108C142.237 77.8108 141.607 78.2387 141.055 79.0943C141.887 78.7923 142.59 78.4036 143.17 77.9255L142.943 77.8136L142.943 77.8108ZM163.531 79.2817C163.556 79.181 163.567 79.1055 163.567 79.0552C163.567 78.9294 163.548 78.8343 163.511 78.7728C163.475 78.7112 163.455 78.6413 163.455 78.5658C163.455 78.5155 163.481 78.454 163.531 78.3785L163.719 78.3785C164.097 78.3785 164.284 78.5658 164.284 78.9433C164.284 79.3963 164.122 79.9612 163.794 80.6407L165.948 80.3387C168.34 80.0367 170.091 79.7738 171.2 79.5473L171.917 79.511C172.043 79.511 172.105 79.525 172.105 79.5473C172.105 79.8997 170.041 80.3779 165.909 80.9819L163.34 81.4349C163.038 81.4349 162.887 81.3342 162.887 81.1329C162.887 80.9315 162.976 80.6044 163.15 80.1514C160.279 80.5037 157.408 80.7302 154.537 80.8309C154.512 80.856 154.512 80.9315 154.537 81.0574C154.537 81.1832 154.562 81.2839 154.612 81.3594L154.612 81.4349C154.688 81.5104 154.775 81.5859 154.876 81.6614C154.977 81.7369 155.089 81.7872 155.215 81.8124C155.265 81.8627 155.327 81.8935 155.402 81.9075C155.478 81.9187 155.554 81.9131 155.629 81.8879C155.629 81.9886 155.554 82.0753 155.402 82.1508C155.251 82.2263 155.089 82.2514 154.912 82.2263C154.509 82.1256 154.22 81.8739 154.044 81.4712C153.943 81.0686 153.932 80.6659 154.005 80.2632L154.005 80.1514C154.03 80.101 154.044 80.0255 154.044 79.9249C154.069 79.7235 154.131 79.4523 154.231 79.1139C154.332 78.7755 154.509 78.4036 154.761 78.001L155.442 79.1335C155.442 79.1587 155.43 79.1698 155.402 79.1698C155.402 79.195 155.391 79.2062 155.366 79.2062C155.366 79.2565 155.341 79.3069 155.29 79.3572C155.189 79.5334 155.077 79.7347 154.951 79.9612C154.901 80.0115 154.864 80.0619 154.839 80.1122C158.038 80.0619 160.934 79.785 163.528 79.2817L163.531 79.2817ZM181.096 79.2817C181.122 79.181 181.136 79.1055 181.136 79.0552C181.136 78.9294 181.116 78.8343 181.08 78.7728C181.043 78.7112 181.024 78.6413 181.024 78.5658C181.024 78.5155 181.049 78.454 181.099 78.3785L181.287 78.3785C181.665 78.3785 181.853 78.5658 181.853 78.9433C181.853 79.3963 181.69 79.9612 181.362 80.6407L183.516 80.3387C185.909 80.0367 187.659 79.7738 188.768 79.5473L189.485 79.511C189.612 79.511 189.673 79.525 189.673 79.5473C189.673 79.8997 187.609 80.3779 183.477 80.9819L180.909 81.4349C180.606 81.4349 180.455 81.3342 180.455 81.1329C180.455 80.9315 180.545 80.6044 180.718 80.1514C177.847 80.5037 174.976 80.7302 172.105 80.8309C172.08 80.856 172.08 80.9315 172.105 81.0574C172.105 81.1832 172.13 81.2839 172.181 81.3594L172.181 81.4349C172.256 81.5104 172.343 81.5859 172.444 81.6614C172.545 81.7369 172.657 81.7872 172.783 81.8124C172.833 81.8627 172.895 81.8935 172.97 81.9075C173.046 81.9187 173.122 81.9131 173.197 81.8879C173.197 81.9886 173.122 82.0753 172.97 82.1508C172.819 82.2263 172.657 82.2514 172.48 82.2263C172.077 82.1256 171.788 81.8739 171.612 81.4712C171.511 81.0686 171.5 80.6659 171.576 80.2632L171.576 80.1514C171.601 80.101 171.612 80.0255 171.612 79.9249C171.637 79.7235 171.699 79.4523 171.8 79.1139C171.901 78.7755 172.077 78.4036 172.329 78.001L173.01 79.1335C173.01 79.1587 172.999 79.1698 172.97 79.1698C172.97 79.195 172.959 79.2062 172.934 79.2062C172.934 79.2565 172.909 79.3069 172.858 79.3572C172.758 79.5334 172.646 79.7347 172.52 79.9612C172.469 80.0115 172.433 80.0619 172.407 80.1122C175.606 80.0619 178.503 79.785 181.096 79.2817ZM192.581 80.1486L192.732 80.2241C192.883 80.2996 193.06 80.3751 193.261 80.4506L193.261 80.3387C193.261 80.3135 193.275 80.2884 193.298 80.2632C193.348 80.0619 193.348 79.8997 193.298 79.7738L193.261 79.7347C193.261 79.7095 193.256 79.69 193.242 79.6788C193.23 79.6676 193.211 79.6536 193.186 79.6424C193.16 79.6312 193.124 79.6228 193.074 79.6228C192.847 79.5725 192.609 79.5613 192.357 79.5865C192.13 79.5865 191.953 79.6228 191.827 79.6983C191.802 79.7235 191.777 79.7347 191.752 79.7347L191.752 79.7738L191.715 79.7738L191.827 79.8102C191.903 79.8354 192.004 79.8801 192.13 79.9416C192.256 80.0032 192.368 80.0619 192.469 80.1122C192.519 80.1122 192.555 80.1234 192.581 80.1486ZM188.427 82.601L188.427 82.45C188.427 82.4248 188.441 82.3884 188.466 82.3381L188.466 82.2626L188.505 81.8851L188.617 81.1692L188.92 79.7347L188.92 79.6983L188.956 79.662C188.981 79.5362 189.043 79.2733 189.144 78.8706C189.295 78.2918 189.572 77.5368 189.976 76.6084L190.656 77.9674L190.656 78.0038C190.631 78.0289 190.617 78.0541 190.617 78.0793L190.541 78.2303C190.466 78.4316 190.379 78.6637 190.278 78.9294C190.177 79.1922 190.077 79.469 189.976 79.7599C189.875 80.0479 189.799 80.308 189.749 80.5317L189.485 81.8907L189.373 82.3801L189.449 82.4556C189.474 82.5059 189.525 82.5422 189.6 82.5674C189.752 82.6429 189.939 82.6793 190.166 82.6793C190.393 82.6793 190.62 82.6541 190.847 82.6038C191.326 82.4779 191.754 82.2654 192.132 81.9634C192.46 81.7369 192.738 81.4601 192.964 81.1329C192.687 81.0574 192.435 80.9567 192.208 80.8309L191.527 80.5289C191.376 80.5037 191.225 80.4338 191.074 80.3219C190.922 80.2101 190.847 80.0647 190.847 79.8885C190.847 79.6872 190.911 79.4998 191.034 79.3236C191.161 79.1475 191.298 79.0216 191.449 78.9461C191.802 78.7951 192.13 78.7196 192.432 78.7196C192.609 78.7196 192.771 78.7252 192.922 78.7392C193.074 78.7504 193.236 78.77 193.413 78.7951C193.614 78.8455 193.785 78.9517 193.922 79.1167C194.06 79.2789 194.155 79.4635 194.205 79.6648C194.281 80.0423 194.256 80.3946 194.13 80.7218C195.037 80.8728 195.956 80.9483 196.889 80.9483L196.889 80.912C197.267 79.9305 197.555 79.1698 197.757 78.6301C197.959 78.0904 198.121 77.6934 198.247 77.4417C198.373 77.19 198.499 76.9887 198.625 76.8377C198.827 77.19 199.065 77.5172 199.342 77.8192C198.939 78.7252 198.631 79.4159 198.418 79.8941C198.205 80.3723 198.059 80.7162 197.984 80.9315C197.908 81.1441 197.872 81.3035 197.872 81.4041C197.872 81.6306 197.883 81.7928 197.911 81.8935C197.936 81.9187 197.947 81.9438 197.947 81.969C198.023 82.0193 198.11 82.0808 198.211 82.1563C198.538 82.2822 198.942 82.3185 199.421 82.2682C199.925 82.2179 200.415 82.1312 200.894 82.0053C201.398 81.8543 202.141 81.5775 203.124 81.1748C203.83 80.8728 204.522 80.596 205.202 80.3443C205.883 80.0926 206.437 79.9221 206.863 79.8354C207.292 79.7487 207.468 79.8158 207.393 80.0423C205.177 81.2503 202.998 82.1927 200.858 82.8722C200.328 83.0484 199.788 83.1602 199.233 83.2106C198.956 83.2357 198.659 83.2301 198.345 83.191C198.031 83.1546 197.721 83.0344 197.421 82.8331C197.118 82.5814 196.931 82.2682 196.855 81.8907C196.83 81.639 196.83 81.4013 196.855 81.1748L196.743 81.6278C195.76 81.6278 194.805 81.5523 193.872 81.4013L193.76 81.5887C193.407 82.1675 192.967 82.6317 192.438 82.9841C191.858 83.3616 191.242 83.5993 190.586 83.6999C190.259 83.7503 189.92 83.7363 189.567 83.6636C189.365 83.6384 189.169 83.5685 188.981 83.4566C188.794 83.3448 188.634 83.1854 188.508 82.9841L188.508 82.9086C188.483 82.8834 188.469 82.8331 188.469 82.7576C188.443 82.7072 188.43 82.6569 188.43 82.6066L188.427 82.601Z" fill="rgb(0,0,0)" fill-rule="nonzero" />
			<path id="Vector" d="M217.555 72.3412C217.051 72.6936 216.522 73.0207 215.97 73.3227L215.177 73.7366C215.127 73.7618 215.076 73.7869 215.026 73.8121C214.925 73.8624 214.813 73.9128 214.687 73.9631C214.561 74.0134 214.424 74.0638 214.272 74.1141C214.046 74.1896 213.793 74.2148 213.516 74.1896C213.264 74.1141 213.062 74.0274 212.911 73.9267C212.886 73.9016 212.861 73.8876 212.835 73.8876C212.583 73.6863 212.396 73.5101 212.27 73.3591C212.219 73.2836 212.158 73.2081 212.082 73.1326C211.956 72.9816 211.855 72.8809 211.779 72.8306C211.754 72.7802 211.723 72.7439 211.684 72.7187C211.648 72.6936 211.609 72.6488 211.572 72.5873C211.533 72.5258 211.477 72.4307 211.401 72.3049L212.46 71.438C212.536 71.6142 212.611 71.7708 212.687 71.9106C212.763 72.0476 212.819 72.1567 212.858 72.2322C212.897 72.3077 212.903 72.3077 212.877 72.2322C212.928 72.3328 212.978 72.4195 213.029 72.495C213.155 72.6712 213.267 72.8082 213.368 72.9089C213.443 73.0095 213.519 73.085 213.595 73.1354C213.67 73.1857 213.771 73.2109 213.897 73.2109C214.124 73.1857 214.387 73.1242 214.69 73.0235L215.522 72.6852C216.051 72.4587 216.592 72.1958 217.146 71.8938L217.636 71.9301L217.561 72.344L217.555 72.3412ZM225.11 79.5446C225.614 79.4943 225.902 79.4887 225.978 79.5251C226.054 79.5614 225.984 79.6313 225.771 79.732C225.558 79.8327 225.272 79.9585 224.922 80.1095C224.468 80.336 223.788 80.5933 222.883 80.8813C221.975 81.1693 221.037 81.4545 220.068 81.7286C219.099 82.0054 218.261 82.2263 217.555 82.3885C216.849 82.5507 216.496 82.6206 216.496 82.5955C216.295 82.5955 216.2 82.4948 216.214 82.2935C216.225 82.0921 216.289 81.846 216.401 81.558C216.513 81.27 216.648 80.9848 216.799 80.7107C216.975 80.3584 217.087 80.0955 217.138 79.9193C217.113 79.8942 217.087 79.8802 217.062 79.8802L216.95 79.8802L216.723 79.9557C213.928 81.1385 210.931 82.0306 207.732 82.6346L206.222 82.8611L205.844 82.8611C205.693 82.8863 205.556 82.8975 205.429 82.8975C205.354 82.8975 205.247 82.8919 205.107 82.8779C204.97 82.8667 204.824 82.822 204.673 82.7465C204.522 82.671 204.41 82.5703 204.334 82.4445C204.233 82.2683 204.183 82.0669 204.183 81.8404C204.133 81.5636 204.228 81.2868 204.466 81.0099C204.704 80.7331 205.04 80.4199 205.466 80.0676C206.071 79.5894 206.763 78.935 207.544 78.1073C207.746 78.1325 207.942 78.2192 208.13 78.3702C208.317 78.5212 208.488 78.6834 208.639 78.8595L206.222 80.7834C205.718 81.2113 205.449 81.4881 205.41 81.6139C205.371 81.7398 205.617 81.8013 206.147 81.8013C207.581 81.6755 209.043 81.449 210.53 81.1218C210.833 81.0714 211.205 80.9903 211.645 80.8757C212.085 80.7638 212.729 80.5681 213.572 80.2913C214.415 80.0144 215.595 79.6006 217.104 79.0469C217.634 78.9462 217.872 79.1475 217.821 79.6509C217.771 80.1542 217.482 80.8701 216.953 81.8013C216.978 81.8516 217.312 81.8153 217.953 81.6894C218.594 81.5636 219.39 81.3762 220.334 81.1246C221.278 80.8729 222.191 80.61 223.073 80.3332C223.956 80.0564 224.633 79.7935 225.112 79.5418L225.11 79.5446Z" fill="rgb(0,0,0)" fill-rule="nonzero" />
			<path id="Vector" d="M165.196 102.438L166.065 102.287L165.726 102.927C164.717 103.154 163.611 103.361 162.401 103.551C161.191 103.738 160.059 103.847 159.001 103.873C158.017 103.873 157.062 103.797 156.129 103.646L156.017 103.833C155.664 104.412 155.225 104.877 154.695 105.229C154.116 105.606 153.499 105.844 152.844 105.945C152.516 105.995 152.177 105.981 151.824 105.908C151.623 105.883 151.426 105.813 151.239 105.701C151.051 105.59 150.891 105.43 150.765 105.229C150.564 104.801 150.488 104.398 150.539 104.021C150.589 103.643 150.701 103.316 150.878 103.039C151.23 102.41 151.709 101.907 152.314 101.532C152.567 101.406 152.704 101.482 152.729 101.759C152.754 102.035 152.642 102.424 152.39 102.927C152.037 103.255 151.799 103.632 151.673 104.06C151.597 104.261 151.586 104.437 151.637 104.588C151.662 104.639 151.687 104.684 151.712 104.72C151.737 104.756 151.788 104.79 151.863 104.815C152.015 104.891 152.202 104.927 152.429 104.927C152.656 104.927 152.883 104.902 153.11 104.851C153.589 104.726 154.017 104.513 154.396 104.211C154.723 103.984 155.001 103.708 155.228 103.38C154.95 103.305 154.698 103.204 154.471 103.078L153.791 102.776C153.639 102.751 153.488 102.681 153.337 102.57C153.186 102.458 153.11 102.312 153.11 102.136C153.11 101.935 153.174 101.747 153.298 101.571C153.424 101.395 153.561 101.269 153.712 101.194C154.065 101.043 154.393 100.967 154.695 100.967C154.872 100.967 155.034 100.973 155.186 100.987C155.337 100.998 155.499 101.018 155.676 101.043C155.877 101.093 156.048 101.199 156.185 101.364C156.323 101.526 156.418 101.711 156.468 101.912C156.544 102.29 156.519 102.642 156.393 102.969C157.3 103.12 158.219 103.196 159.152 103.196C161.166 103.196 163.183 102.944 165.196 102.441L165.196 102.438ZM154.844 102.402C154.894 102.427 154.945 102.452 154.995 102.477C155.146 102.553 155.323 102.628 155.524 102.704L155.524 102.592C155.524 102.567 155.536 102.542 155.561 102.516C155.611 102.315 155.611 102.153 155.561 102.027C155.536 102.002 155.524 101.991 155.524 101.991C155.524 101.966 155.519 101.946 155.505 101.935C155.491 101.921 155.474 101.91 155.449 101.898C155.424 101.884 155.387 101.879 155.337 101.879C155.11 101.828 154.872 101.817 154.62 101.842C154.393 101.842 154.216 101.879 154.09 101.954C154.065 101.979 154.04 101.991 154.015 101.991C154.015 102.016 154.009 102.027 153.995 102.027L153.975 102.027L154.087 102.063C154.163 102.089 154.264 102.133 154.39 102.195C154.516 102.256 154.628 102.315 154.729 102.365C154.779 102.365 154.816 102.377 154.841 102.402L154.844 102.402ZM183.104 102.477C183.507 102.402 183.739 102.391 183.804 102.441C183.868 102.491 183.823 102.567 183.672 102.667C183.521 102.768 183.308 102.88 183.031 103.006C182.476 103.182 181.72 103.353 180.765 103.515C179.807 103.677 178.838 103.836 177.854 103.987C176.77 104.138 175.916 104.275 175.286 104.401C175.135 104.426 175.009 104.451 174.908 104.477C174.832 104.502 174.751 104.521 174.661 104.533C174.574 104.544 174.454 104.552 174.303 104.552L174.266 104.552C174.165 104.527 174.059 104.496 173.944 104.457C173.832 104.421 173.748 104.337 173.698 104.211C173.672 104.085 173.672 103.954 173.698 103.814C173.723 103.677 173.759 103.557 173.81 103.456L173.81 103.417C173.885 103.215 173.93 103.034 173.941 102.869C173.953 102.707 173.911 102.586 173.81 102.511C173.684 102.41 173.521 102.349 173.32 102.323C173.168 102.298 172.992 102.312 172.79 102.36C171.983 102.536 171.205 102.799 170.448 103.151C169.667 103.453 168.899 103.792 168.143 104.169L167.009 104.698C166.631 104.874 166.278 104.91 165.95 104.809C165.773 104.734 165.642 104.614 165.552 104.451C165.465 104.289 165.432 104.105 165.457 103.903C165.457 103.576 165.496 103.35 165.569 103.224C165.594 103.174 165.608 103.123 165.608 103.073C165.608 103.048 165.619 103.023 165.645 102.997C165.67 102.872 165.72 102.701 165.796 102.488C165.872 102.276 165.958 102.075 166.059 101.884C166.16 101.697 166.247 101.563 166.322 101.487C166.499 101.512 166.661 101.613 166.813 101.789C166.888 101.865 166.925 101.94 166.925 102.016C166.95 102.091 166.964 102.167 166.964 102.242C166.964 102.343 166.958 102.424 166.944 102.488C166.933 102.55 166.913 102.62 166.888 102.695L166.888 102.732L166.661 103.372L166.586 103.635C166.586 103.66 166.58 103.685 166.566 103.71C166.552 103.736 166.547 103.747 166.547 103.747L168.171 103.031C168.423 102.93 168.687 102.83 168.964 102.729C169.468 102.502 169.997 102.301 170.549 102.125C170.927 101.974 171.331 101.837 171.759 101.711C171.81 101.711 171.86 101.697 171.911 101.672C172.238 101.546 172.653 101.485 173.157 101.485C173.308 101.485 173.434 101.51 173.535 101.56L173.611 101.56C173.737 101.56 173.863 101.596 173.989 101.672L174.216 101.784L174.443 102.01C174.594 102.161 174.681 102.337 174.706 102.539C174.731 102.74 174.731 102.902 174.706 103.028C174.681 103.154 174.656 103.266 174.63 103.366C174.605 103.392 174.594 103.417 174.594 103.442L174.443 103.819L174.63 103.819C174.782 103.794 174.919 103.769 175.045 103.744C175.171 103.694 175.308 103.657 175.46 103.632C176.014 103.557 176.756 103.456 177.689 103.33C178.698 103.204 179.711 103.067 180.731 102.916C181.751 102.765 182.538 102.614 183.092 102.463L183.104 102.477ZM186.919 103.154L187.07 103.229C187.221 103.305 187.398 103.38 187.599 103.456L187.599 103.344C187.599 103.319 187.61 103.294 187.636 103.269C187.686 103.067 187.686 102.905 187.636 102.779L187.599 102.74C187.599 102.715 187.594 102.695 187.58 102.684C187.568 102.673 187.549 102.659 187.524 102.648C187.498 102.637 187.462 102.628 187.412 102.628C187.185 102.578 186.947 102.567 186.695 102.592C186.468 102.592 186.291 102.628 186.165 102.704C186.14 102.729 186.115 102.74 186.089 102.74L186.089 102.779L186.053 102.779L186.165 102.816C186.241 102.841 186.342 102.886 186.468 102.947C186.594 103.009 186.706 103.067 186.807 103.118C186.857 103.118 186.893 103.129 186.919 103.154ZM182.762 105.606L182.762 105.455C182.762 105.43 182.776 105.394 182.801 105.344L182.801 105.268L182.837 104.891L182.95 104.175L183.252 102.74L183.252 102.704L183.288 102.667C183.314 102.542 183.375 102.279 183.476 101.876C183.627 101.297 183.905 100.542 184.308 99.6138L184.989 100.973L184.989 101.009C184.963 101.034 184.952 101.059 184.952 101.085L184.877 101.236C184.801 101.437 184.714 101.669 184.613 101.935C184.513 102.198 184.412 102.474 184.311 102.765C184.21 103.053 184.134 103.313 184.084 103.537L183.821 104.896L183.709 105.385L183.784 105.461C183.809 105.511 183.86 105.548 183.935 105.573C184.087 105.648 184.274 105.685 184.501 105.685C184.728 105.685 184.955 105.66 185.182 105.609C185.661 105.483 186.089 105.271 186.468 104.969C186.795 104.742 187.073 104.465 187.3 104.138C187.022 104.063 186.77 103.962 186.543 103.836L185.863 103.534C185.711 103.509 185.56 103.439 185.409 103.327C185.258 103.215 185.182 103.07 185.182 102.894C185.182 102.693 185.246 102.505 185.37 102.329C185.496 102.153 185.633 102.027 185.784 101.952C186.137 101.801 186.465 101.725 186.767 101.725C186.944 101.725 187.106 101.731 187.258 101.745C187.409 101.756 187.571 101.775 187.748 101.801C187.949 101.851 188.12 101.957 188.258 102.122C188.398 102.284 188.49 102.469 188.54 102.67C188.616 103.048 188.591 103.4 188.465 103.727C189.372 103.878 190.291 103.954 191.224 103.954L191.224 103.917C191.602 102.936 191.89 102.175 192.092 101.636C192.294 101.096 192.456 100.699 192.582 100.447C192.708 100.195 192.834 99.9941 192.96 99.8431C193.162 100.195 193.4 100.523 193.678 100.825C193.274 101.731 192.966 102.421 192.753 102.899C192.54 103.378 192.395 103.722 192.319 103.937C192.243 104.149 192.207 104.309 192.207 104.41C192.207 104.636 192.218 104.798 192.243 104.899C192.269 104.924 192.283 104.949 192.283 104.974C192.358 105.025 192.445 105.086 192.546 105.162C192.874 105.288 193.277 105.324 193.756 105.274C194.26 105.223 194.75 105.137 195.229 105.011C195.734 104.86 196.476 104.583 197.459 104.18C198.165 103.878 198.857 103.601 199.537 103.35C200.218 103.098 200.773 102.927 201.198 102.841C201.627 102.754 201.803 102.821 201.728 103.048C199.512 104.256 197.333 105.198 195.193 105.878C194.663 106.054 194.123 106.166 193.568 106.216C193.291 106.241 192.994 106.236 192.68 106.196C192.367 106.16 192.056 106.04 191.756 105.838C191.454 105.587 191.266 105.274 191.19 104.896C191.165 104.644 191.165 104.407 191.19 104.18L191.078 104.633C190.095 104.633 189.14 104.558 188.207 104.407L188.095 104.594C187.742 105.173 187.302 105.637 186.773 105.989C186.193 106.367 185.577 106.605 184.921 106.705C184.594 106.756 184.255 106.742 183.902 106.669C183.7 106.644 183.504 106.574 183.316 106.462C183.129 106.35 182.969 106.191 182.843 105.989L182.843 105.914C182.818 105.889 182.807 105.838 182.807 105.763C182.781 105.713 182.767 105.662 182.767 105.612L182.762 105.606ZM224.733 102.477C225.161 102.502 225.601 102.514 226.055 102.514C225.525 102.715 224.985 102.891 224.43 103.042C222.769 103.269 221.094 103.406 219.405 103.456L218.12 103.531C217.716 103.582 217.302 103.593 216.873 103.568C216.646 103.543 216.419 103.492 216.192 103.417C215.965 103.341 215.789 103.204 215.663 103.003C215.562 102.827 215.501 102.676 215.475 102.55C215.425 102.399 215.374 102.279 215.324 102.192C215.274 102.105 215.187 102.047 215.061 102.021C214.834 101.971 214.557 101.985 214.229 102.058C214.128 102.083 214.027 102.108 213.926 102.133C213.523 102.234 213.12 102.36 212.716 102.511C211.96 102.762 211.218 103.101 210.487 103.529L209.428 104.208C209.226 104.334 208.999 104.435 208.747 104.51C208.495 104.586 208.232 104.586 207.954 104.51C207.828 104.485 207.702 104.415 207.576 104.303C207.45 104.191 207.363 104.071 207.313 103.945C207.212 103.744 207.162 103.543 207.162 103.341C207.137 103.291 207.123 103.241 207.123 103.19L207.123 102.888C207.123 102.788 207.111 102.701 207.086 102.625C207.061 102.55 207.036 102.5 207.011 102.474C206.985 102.449 206.96 102.424 206.935 102.399C206.557 102.399 206.142 102.46 205.688 102.586C205.109 102.737 204.512 102.964 203.893 103.266C203.274 103.568 202.728 103.906 202.249 104.284L200.815 105.377C200.462 105.402 200.249 105.271 200.173 104.98C200.098 104.692 200.103 104.34 200.193 103.923C200.28 103.509 200.375 103.126 200.476 102.774C200.501 102.648 200.526 102.536 200.551 102.435L200.703 101.982L200.854 101.644C201.131 101.04 201.369 100.802 201.571 100.928C201.773 101.054 201.899 101.406 201.949 101.985L201.383 103.568L201.722 103.341C201.823 103.291 201.924 103.229 202.025 103.154C203.083 102.5 204.229 101.985 205.462 101.608C205.714 101.532 205.991 101.482 206.293 101.457L206.481 101.457C206.557 101.431 206.632 101.42 206.708 101.42C206.859 101.42 207.072 101.457 207.349 101.532C207.551 101.633 207.702 101.77 207.803 101.946C207.929 102.122 208.005 102.284 208.03 102.435L208.03 102.472C208.055 102.723 208.069 102.961 208.069 103.188C208.069 103.288 208.075 103.369 208.089 103.434C208.103 103.495 208.12 103.54 208.145 103.565C208.145 103.59 208.151 103.61 208.165 103.621C208.176 103.635 208.19 103.646 208.201 103.657C208.212 103.668 208.232 103.677 208.257 103.677C208.433 103.727 208.686 103.641 209.013 103.414C209.24 103.263 209.492 103.112 209.77 102.961C209.896 102.886 210.022 102.81 210.148 102.735C210.954 102.332 211.772 101.979 212.604 101.677L213.926 101.339L214.643 101.227C214.769 101.227 214.921 101.241 215.097 101.264C215.274 101.289 215.45 101.364 215.627 101.49C215.803 101.616 215.929 101.761 216.005 101.924C216.08 102.086 216.131 102.22 216.156 102.321C216.181 102.396 216.206 102.458 216.232 102.508C216.257 102.558 216.271 102.595 216.271 102.62C216.296 102.62 216.31 102.631 216.31 102.656C216.36 102.732 216.461 102.788 216.613 102.827C216.764 102.863 216.926 102.883 217.103 102.883C217.506 102.908 217.921 102.894 218.349 102.846L219.635 102.81C221.372 102.785 223.072 102.673 224.736 102.472L224.733 102.477Z" fill="rgb(0,0,0)" fill-rule="nonzero" />
		</g>
		<g id="3">
			<path id="Vector" d="M1.39772 149.966L0 150.117L1.62461 149.401C3.56294 148.873 5.36401 148.107 7.02783 147.1C7.91017 146.597 8.66365 146.007 9.29388 145.327C9.64682 144.975 9.91011 144.611 10.0866 144.234C10.3387 143.781 10.3891 143.378 10.2378 143.026C10.1622 142.9 10.0418 142.793 9.8793 142.704C9.71684 142.615 9.54598 142.547 9.36951 142.497C9.14263 142.396 8.91574 142.321 8.68886 142.271C8.56281 142.245 8.43676 142.209 8.31072 142.159C7.55443 141.983 6.78694 141.82 6.00545 141.669C5.95503 141.644 5.90461 141.633 5.85419 141.633C5.75336 141.608 5.65252 141.577 5.55168 141.538C5.45084 141.499 5.37522 141.443 5.3248 141.367C5.24917 141.267 5.21275 141.155 5.21275 141.029C5.21275 140.903 5.23796 140.777 5.28838 140.651C5.31359 140.576 5.36401 140.5 5.43964 140.425C5.46485 140.375 5.49006 140.338 5.51527 140.313C5.5909 140.238 5.66652 140.162 5.74215 140.087C5.8682 139.961 6.00545 139.824 6.15671 139.673C6.78694 139.195 7.42838 138.756 8.08383 138.353C8.73928 137.95 9.40592 137.561 10.0866 137.184C10.137 137.184 10.1734 137.178 10.1986 137.164C10.2238 137.153 10.2434 137.139 10.2546 137.128C10.2687 137.114 10.2743 137.108 10.2743 137.108C10.2743 137.083 10.2799 137.072 10.2939 137.072C10.3079 137.072 10.3135 137.067 10.3135 137.053L10.3135 137.033C10.2883 137.008 10.2686 136.988 10.2574 136.977C10.2462 136.966 10.2126 136.957 10.1622 136.957L9.89891 136.957C8.38914 136.882 6.90179 137.033 5.44244 137.41C5.61891 136.983 5.82058 136.569 6.04747 136.166C6.82896 136.015 7.59645 135.928 8.35273 135.903L9.48716 135.903L10.053 135.94L10.2406 135.976L10.5039 136.012C10.7056 136.012 10.8821 136.037 11.0333 136.088C11.3106 136.188 11.4871 136.39 11.5627 136.692C11.6384 136.943 11.5767 137.206 11.3751 137.483C11.2994 137.609 11.1874 137.721 11.0361 137.822C10.8849 137.922 10.7336 137.998 10.5824 138.048L10.0922 138.311C9.46195 138.588 8.84572 138.926 8.24069 139.329C8.11464 139.404 7.98859 139.491 7.86255 139.592C7.38357 139.868 6.9438 140.182 6.54045 140.534C6.4144 140.66 6.31357 140.761 6.23794 140.836L6.20152 140.836L6.42841 140.912C7.18469 141.063 7.92697 141.25 8.65805 141.476C9.01098 141.552 9.37511 141.664 9.75326 141.815C9.85409 141.84 9.94093 141.876 10.0166 141.927C10.1174 142.002 10.2294 142.064 10.3555 142.114C10.5572 142.189 10.7588 142.391 10.9605 142.718C11.0866 143.07 11.123 143.403 11.0725 143.716C11.0221 144.029 10.9213 144.315 10.77 144.564C10.4675 145.092 10.1286 145.52 9.75045 145.847C8.99417 146.577 8.15106 147.206 7.21831 147.732C5.38082 148.688 3.43969 149.429 1.40052 149.958L1.39772 149.966ZM14.9604 146.007L14.6971 146.043L14.4338 146.007L13.7924 144.838L14.9632 144.838L14.9632 146.007L14.9604 146.007ZM62.6035 138.839C62.3766 139.494 62.0993 140.123 61.7716 140.724C62.0236 139.894 62.1497 139.066 62.1497 138.235C62.2505 137.279 61.9984 136.437 61.3934 135.708C60.738 135.104 59.9593 134.726 59.0517 134.575C57.3151 134.223 55.5504 134.046 53.7634 134.046C51.6234 134.046 49.4693 134.097 47.3041 134.197L47.531 134.385C45.265 139.841 43.4135 145.461 41.9765 151.244L41.562 151.96L41.5256 150.903C42.7104 145.221 44.321 139.664 46.3602 134.234C41.6768 134.511 36.9543 135.266 32.1925 136.496L31.551 136.683L31.4754 136.723L31.439 136.723C31.439 136.723 31.4446 136.728 31.4586 136.742C31.4726 136.753 31.4782 136.762 31.4782 136.762L31.5538 136.762L32.7247 137.215C32.2205 137.416 31.7051 137.629 31.1757 137.855L28.7192 136.874L28.1141 136.611L27.9629 136.574L27.9629 136.555C27.9629 136.555 27.9685 136.535 27.9825 136.535L28.0777 136.535L28.3802 136.423L29.6659 136.085L31.7443 135.52C39.0718 133.761 46.6543 133.043 54.486 133.37C56.2731 133.42 58.049 133.683 59.8136 134.161C60.7716 134.388 61.5755 134.966 62.2309 135.895C62.7099 136.902 62.836 137.88 62.6091 138.837L62.6035 138.839ZM80.6618 144.424L80.435 144.989C78.1689 145.165 75.914 145.416 73.6732 145.744C72.5892 145.92 71.5192 146.146 70.4632 146.423C70.2111 146.473 69.9478 146.535 69.6705 146.611L69.2924 146.722L69.1047 146.798L68.8414 146.873L66.3485 147.74L67.3316 146.457L67.8974 145.702C67.9227 145.626 67.9479 145.565 67.9731 145.514C67.9731 145.489 67.9843 145.464 68.0123 145.439L68.0879 145.212C68.1383 144.935 68.0991 144.698 67.9759 144.496C67.9002 144.396 67.8246 144.334 67.749 144.309C67.6734 144.284 67.5613 144.273 67.4101 144.273C66.3009 144.248 65.3065 144.586 64.4269 145.291L63.8611 146.988L62.7659 150.495L60.5755 157.435L60.1217 158L60.1217 157.094L62.0489 149.93L63.032 146.348C63.3345 145.14 63.7995 143.946 64.4297 142.766C64.6314 143.068 64.8443 143.37 65.0712 143.672C65.1216 143.646 65.158 143.635 65.1832 143.635C65.3093 143.56 65.4465 143.509 65.5978 143.484C65.9759 143.358 66.3401 143.283 66.693 143.258L66.7294 143.258C66.9059 143.233 67.0823 143.221 67.2588 143.221C67.4353 143.221 67.637 143.246 67.8638 143.297C68.1159 143.347 68.354 143.473 68.5809 143.674C68.7574 143.876 68.8834 144.088 68.9591 144.315C69.1103 144.768 69.1103 145.207 68.9591 145.635L68.847 145.973L69.5277 145.786L70.3596 145.598C71.4688 145.372 72.5892 145.184 73.7208 145.033C76.0373 144.757 78.3538 144.555 80.673 144.429L80.6618 144.424ZM95.583 144.687C96.2637 144.586 96.4514 144.675 96.1488 144.949C94.9892 145.503 93.5411 145.822 91.8044 145.911C90.0678 145.998 88.5552 145.766 87.2723 145.212C87.1211 145.137 86.995 145.036 86.8942 144.91C86.7933 144.785 86.6925 144.684 86.5917 144.608C86.4908 144.533 86.3648 144.522 86.2135 144.572L85.7598 144.798L83.8718 145.665L82.0203 146.496C81.9951 146.496 81.9699 146.507 81.9447 146.532C81.6674 146.708 81.3145 146.82 80.8859 146.871C80.659 146.871 80.4321 146.809 80.2053 146.683C79.9784 146.557 79.8159 146.331 79.7151 146.004C79.7151 145.752 79.7459 145.545 79.8103 145.38C79.8719 145.218 79.942 145.084 80.0176 144.983C80.0428 144.983 80.054 144.972 80.054 144.947C80.2053 144.695 80.3817 144.457 80.5834 144.231C80.5834 144.231 80.5946 144.217 80.6198 144.194C81.0736 143.741 81.5778 143.389 82.1324 143.137C83.3172 142.584 84.5497 142.483 85.8354 142.835C85.5077 143.112 85.2051 143.439 84.9278 143.817C84.0203 143.641 83.152 143.781 82.3201 144.231C81.9167 144.432 81.5638 144.695 81.2613 145.022C81.11 145.173 80.9727 145.349 80.8467 145.551C80.7459 145.677 80.6954 145.777 80.6954 145.853L80.7347 145.853C80.7599 145.878 80.7851 145.897 80.8103 145.909C80.8355 145.92 80.8607 145.914 80.8859 145.889C81.012 145.914 81.1884 145.878 81.4153 145.777C81.491 145.727 81.5778 145.691 81.6786 145.665L85.5329 144.007L85.7962 143.932L86.0987 143.781C86.4768 143.68 86.8045 143.744 87.0818 143.968C87.2583 144.169 87.3703 144.306 87.4208 144.382C87.446 144.407 87.4712 144.432 87.4964 144.457L87.7597 144.684C88.7429 145.187 90.0005 145.383 91.5383 145.268C93.0733 145.156 94.4234 144.961 95.5802 144.684L95.583 144.687ZM105.555 144.424C105.58 144.323 105.591 144.248 105.591 144.197C105.591 144.071 105.572 143.976 105.535 143.915C105.499 143.853 105.479 143.783 105.479 143.708C105.479 143.658 105.504 143.596 105.555 143.521L105.742 143.521C106.121 143.521 106.308 143.708 106.308 144.085C106.308 144.538 106.146 145.103 105.818 145.783L107.972 145.481C110.364 145.179 112.115 144.916 113.224 144.689L113.941 144.653C114.067 144.653 114.129 144.667 114.129 144.689C114.129 145.042 112.064 145.52 107.933 146.124L105.364 146.577C105.062 146.577 104.911 146.476 104.911 146.275C104.911 146.074 104.997 145.746 105.174 145.293C102.303 145.646 99.4317 145.872 96.5606 145.973C96.5354 145.998 96.5354 146.074 96.5606 146.199C96.5606 146.325 96.5858 146.426 96.6362 146.501L96.6362 146.577C96.7119 146.652 96.7987 146.728 96.8995 146.803C97.0004 146.879 97.1124 146.929 97.2384 146.954C97.2889 147.005 97.3505 147.036 97.4261 147.05C97.5018 147.061 97.5774 147.055 97.653 147.03C97.653 147.131 97.5774 147.217 97.4261 147.293C97.2749 147.368 97.1124 147.393 96.9359 147.368C96.5326 147.268 96.2441 147.016 96.0676 146.613C95.9668 146.211 95.9556 145.808 96.0284 145.405L96.0284 145.293C96.0536 145.243 96.0676 145.168 96.0676 145.067C96.0928 144.866 96.1544 144.594 96.2553 144.256C96.3561 143.918 96.5326 143.546 96.7847 143.143L97.4653 144.276C97.4653 144.301 97.4541 144.312 97.4261 144.312C97.4261 144.337 97.4149 144.348 97.3897 144.348C97.3897 144.399 97.3645 144.449 97.3141 144.499C97.2132 144.675 97.1012 144.877 96.9752 145.103C96.9247 145.154 96.8883 145.204 96.8631 145.254C100.062 145.204 102.958 144.927 105.552 144.424L105.555 144.424ZM128.865 144.46C129.067 144.51 129.179 144.566 129.204 144.631C129.229 144.692 129.19 144.757 129.092 144.818C128.991 144.88 128.865 144.949 128.714 145.025C125.213 145.906 121.675 146.633 118.098 147.212C117.921 147.237 117.745 147.262 117.568 147.287C116.837 147.388 116.084 147.438 115.302 147.438C114.823 147.438 114.344 147.287 113.868 146.985C113.616 146.834 113.415 146.608 113.263 146.306C113.162 146.004 113.137 145.716 113.188 145.439C113.389 144.331 114.006 143.529 115.039 143.026C115.543 142.799 116.059 142.698 116.588 142.724C116.865 142.749 117.129 142.799 117.381 142.875C117.709 142.975 117.91 143.056 117.986 143.121C118.061 143.182 118.067 143.252 118.005 143.328C117.944 143.403 117.835 143.479 117.683 143.554C117.456 143.655 117.255 143.792 117.078 143.968C116.372 143.741 115.706 143.831 115.076 144.231C114.773 144.432 114.535 144.695 114.358 145.022C114.283 145.173 114.227 145.33 114.188 145.495C114.148 145.657 114.143 145.791 114.168 145.892C114.218 146.093 114.406 146.255 114.734 146.381C115.062 146.507 115.426 146.557 115.829 146.532C116.661 146.532 117.515 146.457 118.398 146.306C121.924 145.828 125.411 145.212 128.862 144.457L128.865 144.46ZM135.212 144.122L135.1 144.309L134.193 146.873C135.352 146.999 136.434 146.949 137.442 146.722C138.047 146.647 138.551 146.446 138.954 146.118C139.156 145.967 139.302 145.78 139.389 145.553C139.475 145.327 139.47 145.1 139.369 144.874C139.193 144.446 138.84 144.183 138.31 144.083C137.806 143.982 137.277 143.932 136.725 143.932C136.221 143.932 135.716 143.993 135.215 144.119L135.212 144.122ZM134.002 147.665C133.12 150.103 132.176 152.581 131.168 155.095L130.602 155.735L130.714 154.717C131.546 152.379 132.338 150.042 133.095 147.701C132.767 147.751 132.439 147.788 132.112 147.813C131.507 147.838 130.865 147.763 130.184 147.586C129.857 147.486 129.56 147.29 129.296 147.002C129.033 146.714 128.862 146.353 128.787 145.928C128.787 145.5 128.888 145.117 129.089 144.779C129.291 144.441 129.543 144.18 129.845 144.007C130.35 143.705 130.829 143.529 131.28 143.479C131.406 143.453 131.518 143.428 131.619 143.403C132.198 143.328 132.778 143.277 133.355 143.252L134.375 143.177L134.487 142.914C134.915 141.605 135.28 140.436 135.582 139.407C135.733 138.828 135.896 138.263 136.072 137.71C136.375 137.911 136.677 138.188 136.98 138.54C136.854 138.943 136.728 139.332 136.602 139.709C136.249 140.842 135.885 141.971 135.506 143.104C136.011 143.028 136.526 142.992 137.055 142.992C137.66 142.992 138.291 143.093 138.943 143.294C139.271 143.42 139.56 143.632 139.812 143.934C140.064 144.236 140.215 144.6 140.265 145.028C140.265 145.456 140.153 145.833 139.926 146.16C139.7 146.487 139.436 146.739 139.134 146.915C138.63 147.192 138.139 147.343 137.66 147.368C137.534 147.393 137.422 147.419 137.321 147.444C136.742 147.494 136.137 147.544 135.509 147.595L134.036 147.595L133.999 147.67L134.002 147.665ZM133.397 146.873L134.002 144.687C134.103 144.41 134.19 144.133 134.266 143.856C133.308 143.806 132.403 143.892 131.546 144.119C130.941 144.22 130.451 144.446 130.072 144.798C129.871 144.949 129.733 145.137 129.658 145.363C129.582 145.59 129.607 145.816 129.733 146.043C129.91 146.471 130.263 146.722 130.792 146.798C131.322 146.873 132.19 146.899 133.4 146.873L133.397 146.873ZM157.122 144.572L157.99 144.421L157.652 145.061C156.643 145.288 155.537 145.495 154.327 145.685C153.117 145.872 151.985 145.981 150.926 146.007C149.943 146.007 148.988 145.931 148.055 145.78L147.943 145.967C147.59 146.546 147.15 147.01 146.621 147.363C146.041 147.74 145.425 147.978 144.769 148.079C144.442 148.129 144.103 148.115 143.75 148.042C143.548 148.017 143.352 147.947 143.164 147.835C142.977 147.723 142.817 147.564 142.691 147.363C142.489 146.935 142.414 146.532 142.464 146.155C142.515 145.777 142.627 145.45 142.803 145.173C143.156 144.544 143.635 144.041 144.237 143.666C144.489 143.54 144.627 143.616 144.652 143.892C144.677 144.169 144.565 144.558 144.313 145.061C143.96 145.389 143.722 145.766 143.596 146.194C143.52 146.395 143.509 146.571 143.559 146.722C143.585 146.773 143.61 146.817 143.635 146.854C143.66 146.89 143.711 146.924 143.786 146.949C143.938 147.024 144.125 147.061 144.352 147.061C144.579 147.061 144.806 147.036 145.033 146.985C145.512 146.859 145.94 146.647 146.318 146.345C146.646 146.118 146.923 145.842 147.15 145.514C146.873 145.439 146.621 145.338 146.394 145.212L145.713 144.91C145.562 144.885 145.411 144.815 145.26 144.703C145.108 144.592 145.033 144.446 145.033 144.27C145.033 144.069 145.094 143.881 145.22 143.705C145.346 143.529 145.484 143.403 145.635 143.328C145.988 143.177 146.316 143.101 146.618 143.101C146.795 143.101 146.957 143.107 147.108 143.121C147.26 143.132 147.422 143.151 147.599 143.177C147.8 143.227 147.971 143.333 148.108 143.498C148.246 143.66 148.341 143.845 148.391 144.046C148.467 144.424 148.442 144.776 148.316 145.103C149.223 145.254 150.142 145.33 151.072 145.33C153.086 145.33 155.103 145.078 157.116 144.575L157.122 144.572ZM146.772 144.536C146.823 144.561 146.873 144.586 146.923 144.611C147.075 144.687 147.251 144.762 147.453 144.838L147.453 144.726C147.453 144.701 147.464 144.675 147.492 144.65C147.542 144.449 147.542 144.287 147.492 144.161C147.467 144.136 147.453 144.125 147.453 144.125C147.453 144.099 147.447 144.08 147.433 144.069C147.422 144.057 147.402 144.043 147.377 144.032C147.352 144.018 147.313 144.013 147.265 144.013C147.038 143.962 146.8 143.951 146.548 143.976C146.321 143.976 146.145 144.013 146.019 144.088C145.994 144.113 145.968 144.125 145.943 144.125C145.943 144.15 145.938 144.161 145.924 144.161L145.904 144.161L146.016 144.2C146.092 144.225 146.192 144.27 146.318 144.331C146.445 144.393 146.557 144.452 146.657 144.502C146.708 144.502 146.744 144.516 146.769 144.538L146.772 144.536ZM174.763 144.424L174.536 144.989C172.27 145.165 170.015 145.416 167.774 145.744C166.69 145.92 165.62 146.146 164.564 146.423C164.312 146.473 164.049 146.535 163.772 146.611L163.394 146.722L163.206 146.798L162.943 146.873L160.45 147.74L161.433 146.457L161.999 145.702C162.024 145.626 162.049 145.565 162.074 145.514C162.074 145.489 162.086 145.464 162.114 145.439L162.189 145.212C162.24 144.935 162.2 144.698 162.077 144.496C162.002 144.396 161.926 144.334 161.85 144.309C161.775 144.284 161.663 144.273 161.511 144.273C160.402 144.248 159.408 144.586 158.528 145.291L157.962 146.988L156.867 150.495L154.677 157.435L154.223 158L154.223 157.094L156.15 149.93L157.133 146.348C157.436 145.14 157.901 143.946 158.531 142.766C158.733 143.068 158.946 143.37 159.172 143.672C159.223 143.646 159.259 143.635 159.285 143.635C159.411 143.56 159.548 143.509 159.699 143.484C160.077 143.358 160.441 143.283 160.794 143.258L160.831 143.258C161.007 143.233 161.184 143.221 161.36 143.221C161.537 143.221 161.738 143.246 161.965 143.297C162.217 143.347 162.455 143.473 162.682 143.674C162.859 143.876 162.985 144.088 163.06 144.315C163.212 144.768 163.212 145.207 163.06 145.635L162.948 145.973L163.629 145.786L164.461 145.598C165.57 145.372 166.69 145.184 167.822 145.033C170.139 144.757 172.455 144.555 174.774 144.429L174.763 144.424ZM194.637 144.348C194.41 144.524 194.172 144.687 193.919 144.838C193.567 145.039 193.253 145.19 192.976 145.291C192.9 145.341 192.536 145.478 191.88 145.704C191.225 145.931 190.432 146.118 189.499 146.269C188.743 146.395 187.889 146.496 186.931 146.571C186.578 146.571 186.427 146.44 186.477 146.174C186.528 145.911 186.654 145.576 186.855 145.176C186.956 144.924 187.057 144.661 187.158 144.385C187.133 144.359 187.107 144.348 187.082 144.348L186.97 144.348L186.743 144.424C183.67 146.132 180.547 147.29 177.374 147.894L175.9 148.006L175.522 148.006C175.371 148.031 175.234 148.042 175.108 148.042C175.032 148.042 174.926 148.037 174.786 148.023C174.648 148.011 174.503 147.967 174.351 147.891C174.2 147.816 174.088 147.715 174.012 147.589C173.912 147.413 173.861 147.212 173.861 146.985C173.811 146.507 173.912 146.029 174.164 145.551C174.441 145.047 174.553 144.533 174.503 144.004C174.704 144.029 174.9 144.116 175.088 144.267C175.276 144.418 175.447 144.58 175.598 144.757L175.335 145.738L175.259 145.965C175.057 146.392 174.982 146.664 175.032 146.775C175.082 146.887 175.346 146.946 175.825 146.946C177.284 147.072 178.746 146.845 180.206 146.267C180.432 146.191 180.685 146.104 180.962 146.004C181.365 145.903 182.032 145.677 182.965 145.324C183.897 144.972 185.281 144.368 187.121 143.515C187.626 143.439 187.878 143.627 187.878 144.08C187.878 144.533 187.715 145.098 187.387 145.777C188.093 145.802 188.81 145.752 189.541 145.626C190.298 145.526 191.04 145.363 191.771 145.137C192.502 144.91 193.149 144.622 193.718 144.27C194.284 143.918 194.592 143.68 194.642 143.554L194.679 143.554L194.679 143.518C195.183 143.442 195.435 143.63 195.435 144.083C195.435 144.536 195.272 145.1 194.945 145.78L197.099 145.478C197.678 145.402 198.244 145.327 198.799 145.251C200.009 145.1 201.191 144.913 202.351 144.687C202.855 144.636 203.143 144.631 203.219 144.667C203.295 144.703 203.225 144.779 203.012 144.894C202.799 145.005 202.513 145.126 202.163 145.251C200.477 145.579 198.777 145.867 197.062 146.118L194.494 146.571C194.141 146.571 193.99 146.44 194.04 146.174C194.09 145.911 194.216 145.576 194.418 145.176C194.519 144.924 194.62 144.661 194.721 144.385C194.695 144.359 194.67 144.348 194.645 144.348L194.637 144.348ZM217.868 144.687C218.549 144.586 218.737 144.675 218.434 144.949C217.275 145.503 215.827 145.822 214.09 145.911C212.353 145.998 210.841 145.766 209.558 145.212C209.406 145.137 209.28 145.036 209.18 144.91C209.079 144.785 208.978 144.684 208.877 144.608C208.776 144.533 208.65 144.522 208.499 144.572L208.045 144.798L206.157 145.665L204.306 146.496C204.281 146.496 204.255 146.507 204.23 146.532C203.953 146.708 203.6 146.82 203.171 146.871C202.944 146.871 202.718 146.809 202.491 146.683C202.264 146.557 202.101 146.331 202.001 146.004C202.001 145.752 202.031 145.545 202.096 145.38C202.157 145.218 202.227 145.084 202.303 144.983C202.328 144.983 202.339 144.972 202.339 144.947C202.491 144.695 202.667 144.457 202.869 144.231C202.869 144.231 202.88 144.217 202.905 144.194C203.359 143.741 203.863 143.389 204.418 143.137C205.603 142.584 206.835 142.483 208.121 142.835C207.793 143.112 207.491 143.439 207.213 143.817C206.306 143.641 205.437 143.781 204.605 144.231C204.202 144.432 203.849 144.695 203.547 145.022C203.395 145.173 203.258 145.349 203.132 145.551C203.031 145.677 202.981 145.777 202.981 145.853L203.017 145.853C203.042 145.878 203.068 145.897 203.093 145.909C203.118 145.92 203.143 145.914 203.169 145.889C203.295 145.914 203.471 145.878 203.698 145.777C203.774 145.727 203.86 145.691 203.961 145.665L207.815 144.007L208.079 143.932L208.381 143.781C208.759 143.68 209.087 143.744 209.364 143.968C209.541 144.169 209.653 144.306 209.703 144.382C209.729 144.407 209.754 144.432 209.779 144.457L210.042 144.684C211.025 145.187 212.283 145.383 213.821 145.268C215.356 145.156 216.703 144.961 217.863 144.684L217.868 144.687ZM224.63 147.589L224.63 147.514L222.93 148.269L222.401 148.532L222.249 148.643C222.501 148.643 222.81 148.607 223.174 148.532C223.538 148.456 223.866 148.336 224.157 148.174C224.445 148.011 224.605 147.816 224.63 147.589ZM225.499 147.1L225.499 147.363C225.473 147.463 225.423 147.589 225.347 147.74C225.272 148.118 225.076 148.395 224.762 148.571C224.448 148.747 224.137 148.884 223.838 148.985C223.787 149.01 223.737 149.021 223.686 149.021C223.132 149.222 222.566 149.298 221.986 149.247L221.608 149.211L221.647 148.797C221.697 148.495 221.829 148.269 222.045 148.118C222.258 147.967 222.479 147.841 222.706 147.74C222.731 147.74 222.756 147.726 222.781 147.704L223.84 147.29L224.521 147.027C224.521 147.002 224.515 146.982 224.501 146.971C224.487 146.96 224.482 146.94 224.482 146.915L224.482 146.879C224.457 146.879 224.445 146.865 224.445 146.84L224.37 146.764C224.37 146.739 224.359 146.714 224.333 146.689C224.157 146.311 224.07 146.009 224.07 145.783C224.07 145.556 224.095 145.394 224.146 145.293C224.171 145.218 224.176 145.173 224.165 145.162C224.151 145.151 224.109 145.156 224.034 145.182C223.958 145.207 223.882 145.257 223.807 145.333L223.504 145.559L222.521 146.163C222.143 146.415 221.754 146.602 221.35 146.728C221.275 146.778 221.199 146.829 221.123 146.879C221.048 146.929 220.885 146.991 220.633 147.066C220.406 147.142 220.179 147.203 219.952 147.254C219.751 147.279 219.499 147.329 219.196 147.405C219.07 147.455 218.913 147.466 218.723 147.441C218.535 147.416 218.35 147.34 218.174 147.215C217.997 147.064 217.877 146.893 217.815 146.706C217.754 146.518 217.709 146.348 217.684 146.197C217.684 146.046 217.672 145.883 217.647 145.707C217.622 145.43 217.734 145.123 217.986 144.784C218.238 144.446 218.415 144.186 218.516 144.013C218.667 143.786 218.894 143.649 219.196 143.599C219.524 143.825 219.686 144.127 219.686 144.505C219.006 145.587 218.773 146.171 218.986 146.258C219.199 146.345 219.471 146.39 219.798 146.39C220.177 146.289 220.566 146.177 220.969 146.051C221.297 145.951 221.611 145.788 221.913 145.562L222.933 144.771C222.958 144.745 223.008 144.72 223.084 144.695C223.16 144.62 223.272 144.533 223.423 144.432C223.574 144.331 223.711 144.245 223.838 144.169C224.014 144.043 224.185 143.948 224.347 143.887C224.51 143.825 224.644 143.806 224.745 143.831C224.77 143.831 224.795 143.842 224.821 143.867C224.871 143.867 224.908 143.873 224.933 143.887C224.958 143.898 224.994 143.918 225.045 143.943L225.196 144.13L225.232 144.166L225.232 144.242L225.196 144.544L225.196 144.807L225.084 145.145L225.008 145.484L225.008 145.559C224.983 145.584 224.972 145.621 224.972 145.671L224.972 145.973C224.972 146.023 224.978 146.074 224.992 146.124C225.003 146.174 225.022 146.199 225.048 146.199C225.048 146.225 225.118 146.244 225.255 146.255C225.392 146.269 225.563 146.261 225.765 146.236C226.118 146.135 226.496 146.009 226.899 145.858C227.655 145.506 228.599 145.243 229.734 145.067C229.759 145.067 229.784 145.053 229.809 145.031C229.86 145.005 229.921 144.98 229.997 144.955C230.375 144.754 231.117 144.768 232.227 144.991C232.454 145.042 232.574 145.098 232.585 145.162C232.596 145.226 232.554 145.288 232.454 145.349C232.353 145.411 232.227 145.481 232.075 145.556C231.243 145.481 230.683 145.495 230.395 145.593C230.106 145.693 229.683 145.8 229.129 145.914C228.574 146.026 227.882 146.272 227.05 146.65L226.899 146.725C226.546 146.876 226.182 146.988 225.804 147.064C225.703 147.089 225.602 147.1 225.501 147.1L225.499 147.1ZM250.433 144.687C250.938 144.636 251.226 144.631 251.302 144.667C251.377 144.703 251.307 144.779 251.095 144.894C250.882 145.005 250.596 145.126 250.246 145.251C249.792 145.352 249.12 145.514 248.223 145.741C247.33 145.967 246.397 146.213 245.428 146.476C244.459 146.739 243.621 146.974 242.915 147.175C242.21 147.377 241.857 147.477 241.857 147.477C241.453 147.477 241.322 147.301 241.459 146.949C241.596 146.597 241.831 146.132 242.159 145.553C242.26 145.402 242.361 145.24 242.462 145.064C242.436 145.039 242.411 145.028 242.386 145.028L242.274 145.028L242.047 145.103C239.126 146.286 236.381 147.178 233.812 147.782L232.302 148.009L231.924 148.009C231.773 148.034 231.636 148.045 231.51 148.045C231.434 148.045 231.327 148.039 231.187 148.025C231.05 148.014 230.905 147.97 230.753 147.894C230.602 147.819 230.49 147.718 230.414 147.592C230.314 147.416 230.263 147.215 230.263 146.988C230.213 146.711 230.3 146.404 230.526 146.065C230.753 145.727 231.017 145.38 231.319 145.028C231.798 144.474 232.112 143.971 232.263 143.521C232.465 143.546 232.661 143.632 232.848 143.783C233.036 143.934 233.207 144.097 233.358 144.273C233.358 144.273 233.288 144.359 233.151 144.536C233.014 144.712 232.848 144.933 232.661 145.196C232.473 145.458 232.308 145.73 232.171 146.007C232.033 146.283 231.958 146.51 231.944 146.686C231.93 146.862 232.025 146.949 232.227 146.949C232.706 146.899 233.134 146.843 233.512 146.778C233.89 146.717 234.28 146.633 234.683 146.532C235.036 146.457 235.425 146.37 235.854 146.269C236.157 146.219 236.529 146.138 236.969 146.023C237.409 145.911 238.053 145.716 238.896 145.439C239.739 145.162 240.918 144.748 242.428 144.194C243.008 144.069 243.341 144.189 243.428 144.552C243.515 144.916 243.145 145.626 242.313 146.683C242.313 146.683 242.647 146.597 243.313 146.42C243.98 146.244 244.787 146.037 245.731 145.797C246.674 145.559 247.582 145.338 248.45 145.137C249.319 144.936 249.98 144.785 250.433 144.684L250.433 144.687Z" fill="rgb(0,0,0)" fill-rule="nonzero" />
			<path id="Vector" d="M263.279 143.593L263.43 143.518C263.934 143.442 264.186 143.629 264.186 144.082C264.186 144.535 264.024 145.1 263.696 145.78L265.85 145.478C266.43 145.402 266.996 145.327 267.55 145.251C268.76 145.1 269.942 144.913 271.102 144.686C271.606 144.636 271.895 144.631 271.97 144.667C272.046 144.703 271.976 144.779 271.763 144.893C271.55 145.005 271.264 145.125 270.914 145.251C269.228 145.579 267.528 145.867 265.814 146.118L263.245 146.571C262.892 146.571 262.741 146.44 262.791 146.174C262.842 145.911 262.968 145.576 263.169 145.176C263.27 144.924 263.371 144.661 263.472 144.384C263.447 144.359 263.422 144.348 263.396 144.348L263.284 144.348L263.172 144.384L262.758 144.647L261.85 145.061C260.943 145.514 260.024 145.928 259.091 146.306L258.94 146.381C258.713 146.532 258.424 146.633 258.072 146.683C256.612 147.212 255.15 147.614 253.691 147.891L252.217 148.003L251.839 148.003C251.688 148.028 251.551 148.039 251.425 148.039C251.349 148.039 251.243 148.034 251.102 148.02C250.965 148.009 250.82 147.964 250.668 147.888C250.517 147.813 250.405 147.712 250.329 147.586C250.229 147.41 250.178 147.209 250.178 146.982C250.128 146.504 250.229 146.026 250.481 145.548C250.758 145.044 250.87 144.53 250.82 144.001C251.021 144.027 251.217 144.113 251.405 144.264C251.593 144.415 251.764 144.577 251.915 144.754L251.651 145.735L251.576 145.962C251.374 146.389 251.299 146.661 251.349 146.773C251.399 146.884 251.663 146.943 252.142 146.943C253.601 147.069 255.063 146.842 256.522 146.264C256.623 146.238 256.724 146.202 256.825 146.152C256.775 146.076 256.738 145.976 256.713 145.85C256.713 145.598 256.744 145.391 256.808 145.226C256.873 145.064 256.94 144.93 257.016 144.829C257.041 144.829 257.052 144.818 257.052 144.793C257.203 144.541 257.38 144.303 257.581 144.077L257.618 144.04C258.072 143.587 258.576 143.235 259.127 142.983C260.363 142.43 261.494 142.318 262.528 142.645C262.2 142.922 261.898 143.249 261.62 143.627C261.318 143.551 260.959 143.557 260.545 143.646C260.13 143.733 259.721 143.878 259.318 144.08C258.915 144.281 258.562 144.544 258.259 144.871C258.108 145.022 257.971 145.198 257.845 145.4C257.744 145.525 257.693 145.626 257.693 145.702L257.733 145.702C257.758 145.727 257.783 145.746 257.808 145.757C257.833 145.771 257.859 145.763 257.884 145.738C258.01 145.763 258.186 145.727 258.413 145.626C258.489 145.576 258.576 145.539 258.677 145.514L262.531 143.856L262.794 143.78L263.097 143.629C263.147 143.604 263.209 143.593 263.284 143.593L263.279 143.593Z" fill="rgb(0,0,0)" fill-rule="nonzero" />
		</g>
	</g>
</svg>
