<svg viewBox="0 0 1200 366" xmlns="http://www.w3.org/2000/svg" xmlns:xlink="http://www.w3.org/1999/xlink" width="1200.000000" height="366.000000" fill="none" customFrame="#000000">
	<g id="Group 1">
		<g id="1">
			<path id="Vector" d="M6.23106 39.225L5.27231 40.5335L5.18809 38.4348L13.2209 5.85224C13.3375 5.96884 13.48 6.08544 13.6549 6.20204C14.2379 6.66843 14.8469 7.10243 15.4882 7.51052L6.22458 39.225L6.23106 39.225ZM22.6594 30.7523L22.0505 30.8365L21.4415 30.7523L19.9581 28.0446L22.6659 28.0446L22.6659 30.7523L22.6594 30.7523ZM76.4014 1.04583C88.2238 -0.878024 99.9037 -0.146051 111.435 3.2288C114.408 3.98668 117.142 5.29517 119.649 7.16073C122.331 9.02629 124.19 11.5267 125.239 14.6748C126.172 18.0496 125.764 21.1978 124.015 24.1127C122.324 26.8528 120.174 29.0357 117.55 30.6681C114.926 32.2421 112.277 33.583 109.601 34.6842C106.919 35.8502 104.186 36.9255 101.387 37.9166C95.855 39.8987 90.2903 41.6412 84.6997 43.157C80.3918 44.2646 76.0775 45.314 71.7695 46.3051L70.6359 49.8872L69.4115 51.6362L69.5864 49.0128L70.2861 46.5642C63.7044 47.9634 57.0903 49.2136 50.4503 50.3212L43.9852 50.8459L51.9337 48.9221C58.2239 47.8144 64.4558 46.5642 70.6294 45.165C73.8879 32.5855 76.5439 19.8569 78.578 6.98583C78.9861 7.33562 79.4525 7.68542 79.9772 8.03521C80.2688 8.2684 80.5862 8.5016 80.936 8.73479C78.5456 20.9063 75.637 32.9353 72.1971 44.8152C76.9714 43.7076 81.7198 42.4574 86.4359 41.0582C92.143 39.4841 97.7336 37.5927 103.208 35.3773C105.948 34.3279 108.656 33.162 111.331 31.8859C114.013 30.7199 116.488 29.2365 118.755 27.4293C121.029 25.5637 122.57 23.2641 123.387 20.5306C124.086 17.6739 123.62 15.057 121.987 12.6667C120.413 10.2765 118.321 8.47569 115.697 7.25141C113.132 6.02714 110.398 5.09436 107.483 4.45307C95.9521 1.77133 84.473 1.68712 73.0587 4.19397C68.9257 5.01015 65.3692 6.02714 62.4023 7.25141L60.3941 8.1259C59.8694 8.41739 59.5779 8.67649 59.5196 8.90969C59.5196 9.02629 59.5325 9.20118 59.5649 9.43438C59.5908 9.66757 59.6685 9.86838 59.7851 10.0433C60.0184 10.4514 60.3941 10.8012 60.9188 11.0927C61.0937 11.6756 61.4111 12.2586 61.8776 12.8416C62.344 13.4246 62.8104 13.9493 63.2768 14.4157C62.4606 14.2991 61.5731 14.0983 60.6143 13.8068C59.6556 13.5153 58.7681 12.9323 57.9519 12.0578C57.1939 11.125 56.8441 10.0174 56.9024 8.73479C57.0773 8.03521 57.3688 7.45222 57.777 6.98583C58.2434 6.51944 58.7098 6.16965 59.1762 5.93645C62.4995 4.47898 66.0494 3.33244 69.8326 2.48387C73.6158 1.64178 75.8054 1.15595 76.3819 1.03936L76.4014 1.04583ZM162.987 27.4293L164.995 27.0795L164.211 28.5628C161.879 29.0875 159.32 29.5669 156.522 30.0074C153.723 30.4414 151.106 30.694 148.658 30.7523C146.384 30.7523 144.175 30.5774 142.018 30.2276L141.758 30.6616C140.942 32.0025 139.925 33.0778 138.701 33.8939C137.36 34.7684 135.935 35.319 134.419 35.5522C133.661 35.6688 132.877 35.6364 132.061 35.468C131.594 35.4097 131.141 35.2478 130.707 34.9887C130.273 34.7296 129.904 34.3603 129.612 33.8939C129.146 32.9029 128.971 31.9701 129.087 31.0956C129.204 30.2211 129.463 29.4632 129.871 28.822C130.687 27.3645 131.795 26.1985 133.188 25.3305C133.771 25.039 134.088 25.2139 134.147 25.8552C134.205 26.4965 133.946 27.3969 133.363 28.5628C132.547 29.3207 131.996 30.1952 131.705 31.1863C131.53 31.6527 131.504 32.0608 131.62 32.4106C131.679 32.5272 131.737 32.6308 131.795 32.715C131.854 32.7992 131.97 32.877 132.145 32.9353C132.495 33.1102 132.929 33.1944 133.454 33.1944C133.978 33.1944 134.503 33.1361 135.028 33.0195C136.136 32.728 137.127 32.2357 138.001 31.5361C138.759 31.0114 139.4 30.3701 139.925 29.6122C139.284 29.4373 138.701 29.2041 138.176 28.9126L136.602 28.2131C136.252 28.1548 135.902 27.9928 135.552 27.7337C135.203 27.4746 135.028 27.1378 135.028 26.7297C135.028 26.2633 135.17 25.8293 135.462 25.4212C135.753 25.0131 136.071 24.7216 136.421 24.5467C137.237 24.1969 137.995 24.022 138.694 24.022C139.102 24.022 139.478 24.035 139.828 24.0674C140.178 24.0933 140.554 24.1386 140.962 24.1969C141.428 24.3135 141.823 24.5597 142.141 24.9418C142.458 25.3176 142.678 25.7451 142.795 26.2115C142.97 27.0859 142.912 27.9021 142.62 28.66C144.719 29.0098 146.844 29.1847 149.001 29.1847C153.659 29.1847 158.323 28.6017 162.981 27.4357L162.987 27.4293ZM139.051 27.3451C139.167 27.4034 139.284 27.4617 139.4 27.5199C139.75 27.6948 140.158 27.8697 140.625 28.0446L140.625 27.7855C140.625 27.7272 140.651 27.6689 140.715 27.6106C140.832 27.1442 140.832 26.7685 140.715 26.477C140.657 26.4188 140.625 26.3928 140.625 26.3928C140.625 26.3345 140.612 26.2892 140.579 26.2633C140.547 26.2309 140.508 26.205 140.45 26.1791C140.392 26.1467 140.307 26.1337 140.191 26.1337C139.666 26.0171 139.115 25.9912 138.532 26.0495C138.008 26.0495 137.6 26.1337 137.308 26.3086C137.25 26.3669 137.191 26.3928 137.133 26.3928C137.133 26.4511 137.12 26.477 137.088 26.477L137.042 26.477L137.302 26.5677C137.476 26.626 137.71 26.7297 138.001 26.8722C138.293 27.0147 138.552 27.1507 138.785 27.2673C138.902 27.2673 138.986 27.2997 139.044 27.3515L139.051 27.3451ZM185.006 23.3289C188.154 22.2795 191.18 21.0294 194.095 19.5719C195.96 18.6974 197.619 17.6221 199.076 16.3395C199.776 15.6983 200.359 14.9728 200.825 14.1566C201.059 13.6902 201.175 13.2821 201.175 12.9323C201.175 12.291 200.871 11.8376 200.255 11.5785C199.64 11.3194 198.927 11.1833 198.118 11.1833C197.418 11.1833 196.718 11.2546 196.019 11.4036C195.319 11.5461 194.736 11.7404 194.27 11.9736C191.996 12.9064 190.046 14.3639 188.413 16.3395C186.956 18.3217 185.848 20.5047 185.097 22.8884L185.006 23.3224L185.006 23.3289ZM184.656 24.9872C184.19 26.6196 183.782 28.2778 183.432 29.9685L182.557 34.4251L190.597 26.3864C191.063 25.92 191.588 25.5119 192.171 25.1621C192.637 24.8706 193.188 24.7281 193.829 24.7281C194.237 24.7281 194.613 24.8123 194.963 24.9872C195.371 25.1621 195.721 25.4212 196.012 25.771C196.304 26.1208 196.537 26.4706 196.712 26.8204C196.887 27.2868 196.971 27.7791 196.971 28.3037C199.536 27.4876 202.095 26.9629 204.66 26.7297L208.767 26.5548C211.741 26.5548 214.708 26.7556 217.681 27.1637C218.031 27.2803 218.323 27.3839 218.556 27.4681C218.789 27.5523 218.906 27.6301 218.906 27.6884C218.906 27.805 218.731 27.9086 218.381 27.9928C218.031 28.077 217.448 28.1548 216.632 28.2131C214.475 28.0382 212.292 27.954 210.083 27.954C208.1 27.954 206.15 28.0446 204.226 28.2131C201.544 28.4463 199.012 29.0875 196.628 30.1369C196.569 30.2535 196.511 30.3377 196.453 30.396C196.336 30.6292 196.252 30.8624 196.194 31.0956C195.96 31.6203 195.585 32.145 195.06 32.6697L194.976 32.7539C194.917 32.8705 194.814 33 194.671 33.149C194.529 33.2915 194.334 33.4276 194.101 33.5442L194.017 33.5442C193.784 33.6607 193.492 33.7191 193.142 33.7191L192.883 33.7191C192.533 33.6608 192.255 33.5442 192.054 33.3693C191.853 33.1944 191.691 33.0195 191.575 32.8446L191.05 31.8859C191.75 31.2446 192.391 30.7199 192.974 30.3118C193.557 29.9037 194.283 29.4956 195.157 29.0875C195.215 28.8543 195.248 28.5952 195.248 28.3037C195.248 27.954 195.157 27.6365 194.989 27.3451C194.639 26.8204 194.231 26.5613 193.764 26.5613C193.473 26.5613 193.155 26.7038 192.806 26.9953C192.223 27.4616 191.639 28.0122 191.056 28.6535L190.448 29.2624C189.69 30.0786 189.094 30.7199 188.653 31.1863C188.219 31.6527 187.882 32.0025 187.649 32.2357C187.416 32.5272 187.183 32.7863 186.949 33.0195C186.716 33.2527 186.399 33.5701 185.991 33.9782C185.583 34.3862 184.915 35.0534 183.982 35.9862C183.808 36.1611 183.646 36.3231 183.503 36.4656C183.361 36.6081 183.166 36.7441 182.933 36.8607C182.467 37.0939 182 37.2105 181.534 37.2105C181.3 37.2105 181.067 37.1781 180.834 37.1198L180.743 37.1198C180.627 37.0615 180.543 37.0032 180.484 36.9449C180.426 36.8866 180.394 36.8283 180.394 36.77C180.394 35.7789 180.426 35.1377 180.484 34.8462L180.484 33.9717C180.543 33.1555 180.601 32.5596 180.659 32.1774C180.717 31.8017 180.763 31.4907 180.789 31.2575C180.821 31.0244 180.892 30.7912 181.009 30.558C181.067 30.1499 181.242 29.3337 181.534 28.1094C181.65 27.2932 181.825 26.5094 182.058 25.7516C174.252 28.0252 166.246 29.5086 158.031 30.2082L156.548 30.2989C155.382 30.2989 154.831 30.1823 154.889 29.9491C154.889 29.5993 156.347 29.2495 159.256 28.8997C167.178 27.9669 174.926 26.3345 182.499 24.0091L182.674 23.3095C183.257 21.4439 183.853 19.8699 184.462 18.5938C185.071 17.3112 186.049 15.8861 187.39 14.312C189.197 12.3299 191.38 10.8789 193.946 9.94611C195.403 9.47972 196.887 9.24653 198.403 9.24653L199.977 9.33721C201.143 9.57041 201.914 10.0368 202.289 10.7364C202.665 11.436 202.859 12.1615 202.859 12.9193L202.769 14.0529C202.361 15.4521 201.486 16.6764 200.145 17.7193C198.396 19.235 196.537 20.401 194.555 21.2107C191.348 22.7265 188.057 23.9767 184.682 24.9678L184.656 24.9872ZM248.258 27.5199C250.065 27.1119 250.804 27.0665 250.486 27.3904C250.169 27.7078 249.333 28.1936 247.999 28.8349C246.016 29.1264 243.192 29.9426 239.525 31.2835C236.494 32.3328 233.352 33.2915 230.087 34.166C226.822 35.0405 223.881 35.4356 221.264 35.3449C218.64 35.2607 216.748 34.2826 215.582 32.417C214.824 30.7264 214.799 28.9774 215.492 27.1766C216.658 24.4366 218.582 22.5775 221.257 21.5864C221.724 21.4115 222.294 21.3079 222.961 21.282C223.628 21.2496 224.257 21.3662 224.84 21.6318C225.423 21.8909 225.74 22.3767 225.798 23.0763C225.798 23.4844 225.682 23.9508 225.448 24.4755C224.924 25.3499 224.107 26.1661 223 26.924C221.309 28.1483 219.476 29.0487 217.493 29.6317C217.318 31.4389 218.31 32.6632 220.467 33.298C222.741 33.7644 225.604 33.6025 229.07 32.8187C232.535 32.0349 236.221 31.0308 240.121 29.8066C242.861 28.9904 245.569 28.2325 248.245 27.5329L248.258 27.5199ZM222.922 23.6787C221.29 23.6787 219.832 24.6698 218.556 26.6519C220.48 25.9524 222.106 25.052 223.447 23.9443L222.922 23.6852L222.922 23.6787ZM287.664 27.0859L287.139 28.3944C281.898 28.8025 276.683 29.3855 271.501 30.1434C268.994 30.5515 266.519 31.0762 264.077 31.7175C263.494 31.8341 262.885 31.9766 262.244 32.1515L261.369 32.4106L260.935 32.5855L260.326 32.7604L254.561 34.7684L256.835 31.7952L258.143 30.0462C258.202 29.8713 258.26 29.7288 258.318 29.6122C258.318 29.5539 258.351 29.4956 258.409 29.4373L258.584 28.9126C258.7 28.2714 258.61 27.7208 258.325 27.2544C258.15 27.0212 257.975 26.8787 257.8 26.8204C257.625 26.7621 257.366 26.7362 257.016 26.7362C254.451 26.6779 252.151 27.4617 250.117 29.094L248.808 33.0259L246.275 41.1489L241.21 57.2264L240.16 58.5349L240.16 56.4361L244.617 39.8404L246.891 31.5426C247.59 28.7442 248.666 25.9783 250.123 23.2447C250.59 23.9443 251.082 24.6439 251.607 25.3435C251.723 25.2852 251.808 25.2593 251.866 25.2593C252.157 25.0844 252.475 24.9678 252.825 24.9095C253.699 24.618 254.541 24.4431 255.358 24.3848L255.442 24.3848C255.85 24.3265 256.258 24.3006 256.666 24.3006C257.074 24.3006 257.541 24.3589 258.065 24.4755C258.648 24.5921 259.199 24.8836 259.724 25.3499C260.132 25.8163 260.423 26.3086 260.598 26.8333C260.948 27.8827 260.948 28.8997 260.598 29.8908L260.339 30.6746L261.913 30.2406L263.837 29.8066C266.403 29.2819 268.994 28.8479 271.611 28.4981C276.968 27.8568 282.326 27.3904 287.69 27.0989L287.664 27.0859ZM330.212 27.6948C331.378 27.5782 332.045 27.5653 332.22 27.6495C332.395 27.7337 332.233 27.9086 331.74 28.1742C331.248 28.4333 330.587 28.7118 329.778 29.0033C328.728 29.2365 327.173 29.6122 325.1 30.1369C323.034 30.6616 320.877 31.2316 318.635 31.8405C316.394 32.4494 314.457 32.9936 312.824 33.4599C311.192 33.9263 310.376 34.1595 310.376 34.1595C309.443 34.1595 309.138 33.7514 309.456 32.9353C309.773 32.1191 310.317 31.0438 311.075 29.7029C311.309 29.3531 311.542 28.9774 311.775 28.5693C311.717 28.511 311.658 28.4851 311.6 28.4851L311.341 28.4851L310.816 28.66C304.06 31.4001 297.711 33.4664 291.771 34.8656L288.279 35.3903L287.405 35.3903C287.055 35.4486 286.737 35.481 286.446 35.481C286.271 35.481 286.025 35.468 285.701 35.4356C285.383 35.4097 285.047 35.3061 284.697 35.1312C284.347 34.9563 284.088 34.7231 283.913 34.4316C283.68 34.0235 283.563 33.5571 283.563 33.0324C283.446 32.3911 283.654 31.6786 284.172 30.8948C284.697 30.111 285.306 29.3078 286.005 28.4916C287.113 27.209 287.839 26.043 288.188 25.0001C288.655 25.0584 289.108 25.2593 289.542 25.609C289.976 25.9588 290.372 26.3345 290.721 26.7426C290.721 26.7426 290.559 26.9434 290.242 27.3515C289.925 27.7596 289.542 28.2714 289.108 28.8803C288.674 29.4892 288.292 30.1175 287.975 30.7588C287.657 31.4001 287.482 31.9247 287.45 32.3328C287.424 32.7409 287.638 32.9417 288.104 32.9417C289.212 32.8251 290.203 32.6956 291.078 32.5466C291.952 32.4041 292.853 32.2098 293.785 31.9766C294.602 31.8017 295.502 31.6009 296.493 31.3677C297.193 31.2511 298.055 31.0632 299.072 30.7976C300.089 30.5385 301.579 30.0851 303.528 29.4438C305.478 28.8025 308.206 27.8438 311.697 26.5613C313.038 26.2698 313.809 26.5483 314.01 27.3904C314.211 28.2325 313.356 29.8778 311.432 32.3264C311.432 32.3264 312.203 32.1255 313.744 31.7175C315.286 31.3094 317.152 30.83 319.335 30.2729C321.518 29.7223 323.617 29.2106 325.625 28.7442C327.633 28.2778 329.162 27.928 330.212 27.6948ZM363.321 27.5199C365.128 27.1119 365.867 27.0665 365.549 27.3904C365.232 27.7078 364.396 28.1936 363.062 28.8349C361.079 29.1264 358.255 29.9426 354.589 31.2835C351.557 32.3328 348.415 33.2915 345.15 34.166C341.885 35.0405 338.944 35.4356 336.327 35.3449C333.703 35.2607 331.812 34.2826 330.646 32.417C329.888 30.7264 329.862 28.9774 330.555 27.1766C331.721 24.4366 333.645 22.5775 336.32 21.5864C336.787 21.4115 337.357 21.3079 338.024 21.282C338.691 21.2496 339.32 21.3662 339.903 21.6318C340.486 21.8909 340.803 22.3767 340.862 23.0763C340.862 23.4844 340.745 23.9508 340.512 24.4755C339.987 25.3499 339.171 26.1661 338.063 26.924C336.372 28.1483 334.539 29.0487 332.557 29.6317C332.382 31.4389 333.373 32.6632 335.524 33.298C337.797 33.7644 340.667 33.6025 344.126 32.8187C347.592 32.0349 351.278 31.0308 355.178 29.8066C357.918 28.9904 360.626 28.2325 363.301 27.5329L363.321 27.5199ZM337.985 23.6787C336.353 23.6787 334.895 24.6698 333.619 26.6519C335.543 25.9524 337.169 25.052 338.51 23.9443L337.985 23.6852L337.985 23.6787ZM46.6865 80.9864C47.8526 80.8698 48.5198 80.8568 48.6947 80.941C48.8696 81.0252 48.7077 81.2001 48.2153 81.4657C47.723 81.7248 47.0622 82.0034 46.2525 82.2949C45.203 82.5281 43.6483 82.9038 41.5753 83.4285C39.5088 83.9531 37.3516 84.5232 35.1102 85.1321C32.8688 85.741 30.9319 86.2851 29.2994 86.7515C27.6669 87.2179 26.8507 87.4511 26.8507 87.4511C25.9179 87.4511 25.6134 87.043 25.9308 86.2268C26.2483 85.4106 26.7924 84.3353 27.5439 82.9945C27.7771 82.6447 28.0103 82.269 28.2435 81.8609C28.1852 81.8026 28.1269 81.7767 28.0686 81.7767L27.8095 81.7767L27.2847 81.9516C20.5281 84.6916 14.1796 86.758 8.23926 88.1571L4.74758 88.6818L3.87305 88.6818C3.52323 88.7401 3.20581 88.766 2.91429 88.766C2.73939 88.766 2.49322 88.7531 2.16932 88.7207C1.85189 88.6948 1.51503 88.5911 1.16522 88.4162C0.815404 88.2413 0.556282 88.0082 0.381374 87.7167C0.148164 87.3086 0.0315593 86.8422 0.0315593 86.3175C-0.0850457 85.6762 0.122252 84.9637 0.640497 84.1799C1.16522 83.3961 1.77416 82.5928 2.47379 81.7767C3.58153 80.4941 4.30708 79.3281 4.65689 78.2852C5.12331 78.3435 5.57678 78.5443 6.0108 78.8941C6.44483 79.2439 6.84 79.6196 7.18981 80.0277C7.18981 80.0277 7.02786 80.2285 6.71043 80.6366C6.39301 81.0447 6.0108 81.5564 5.57677 82.1653C5.14275 82.7742 4.76054 83.4025 4.44312 84.0438C4.12569 84.6851 3.95078 85.2098 3.91839 85.6179C3.886 86.026 4.10626 86.2268 4.57268 86.2268C5.68042 86.1102 6.67157 85.9807 7.5461 85.8317C8.42064 85.6892 9.32109 85.4948 10.2539 85.2616C11.0702 85.0867 11.9706 84.8859 12.9618 84.6527C13.6614 84.5361 14.523 84.3483 15.54 84.0827C16.5571 83.8236 18.047 83.3702 19.9969 82.7289C21.9468 82.0876 24.6741 81.1289 28.1658 79.8463C29.5067 79.5548 30.2776 79.8334 30.4784 80.6755C30.6792 81.5176 29.8241 83.1629 27.9002 85.6114C27.9002 85.6114 28.671 85.4106 30.2128 85.0025C31.7546 84.5944 33.6203 84.1151 35.8034 83.558C37.9865 83.0074 40.0854 82.4957 42.0936 82.0293C44.1018 81.5629 45.6306 81.2131 46.68 80.9799L46.6865 80.9864ZM108.209 80.4617C108.675 80.5783 108.934 80.7078 108.992 80.8568C109.051 80.9993 108.96 81.1483 108.727 81.2908C108.494 81.4333 108.202 81.5953 107.852 81.7702C99.7547 83.8106 91.573 85.4948 83.3005 86.8357C82.8924 86.894 82.4843 86.9523 82.0761 87.0106C80.3854 87.2438 78.6428 87.3604 76.8354 87.3604C75.7276 87.3604 74.6199 87.0106 73.5121 86.311C72.9291 85.9612 72.4627 85.4365 72.1129 84.7369C71.8797 84.0374 71.8214 83.3702 71.938 82.7289C72.4044 80.1637 73.8296 78.3046 76.22 77.1387C77.386 76.614 78.578 76.3808 79.8023 76.4391C80.4437 76.4974 81.0526 76.614 81.6356 76.7889C82.3936 77.0221 82.86 77.2099 83.0349 77.3589C83.2098 77.5014 83.2227 77.6634 83.0802 77.8383C82.9312 78.0132 82.6851 78.188 82.3353 78.3629C81.8105 78.5961 81.3441 78.9135 80.936 79.3216C79.3035 78.7969 77.7618 79.0042 76.3042 79.9305C75.6046 80.3969 75.0539 81.0058 74.6458 81.7637C74.4709 82.1135 74.3413 82.4762 74.2506 82.8584C74.16 83.2341 74.147 83.5451 74.2053 83.7783C74.3219 84.2446 74.7559 84.6203 75.5139 84.9118C76.2718 85.2033 77.1139 85.3199 78.0468 85.2616C79.9708 85.2616 81.9466 85.0867 83.9872 84.7369C92.143 83.6293 100.208 82.2042 108.189 80.4552L108.209 80.4617ZM128.653 76.6205C131.802 75.5711 134.827 74.3209 137.742 72.8634C139.608 71.9889 141.266 70.9137 142.724 69.6311C143.423 68.9898 144.006 68.2643 144.473 67.4481C144.706 66.9817 144.823 66.5736 144.823 66.2238C144.823 65.5826 144.518 65.1291 143.903 64.87C143.294 64.6109 142.575 64.4749 141.765 64.4749C141.065 64.4749 140.366 64.5461 139.666 64.6951C138.966 64.8376 138.383 65.032 137.917 65.2652C135.643 66.1979 133.693 67.6554 132.061 69.6311C130.603 71.6132 129.495 73.7962 128.744 76.1865L128.653 76.6205ZM128.304 78.2787C127.837 79.9111 127.429 81.5694 127.079 83.26L126.205 87.7167L134.244 79.6779C134.71 79.2115 135.235 78.8034 135.818 78.4536C136.285 78.1621 136.835 78.0196 137.476 78.0196C137.885 78.0196 138.26 78.1038 138.61 78.2787C139.018 78.4536 139.368 78.7127 139.66 79.0625C139.951 79.4123 140.184 79.7621 140.359 80.1119C140.534 80.5783 140.618 81.0706 140.618 81.5953C143.184 80.7791 145.742 80.2544 148.308 80.0212L152.415 79.8463C155.388 79.8463 158.355 80.0471 161.329 80.4552C161.678 80.5718 161.97 80.6755 162.203 80.7597C162.436 80.8439 162.553 80.9216 162.553 80.9799C162.553 81.0965 162.378 81.2002 162.028 81.2844C161.678 81.3751 161.095 81.4463 160.279 81.5046C158.122 81.3297 155.939 81.2455 153.73 81.2455C151.748 81.2455 149.798 81.3297 147.874 81.5046C145.192 81.7378 142.659 82.3791 140.275 83.4285C140.217 83.5451 140.158 83.6293 140.1 83.6876C139.983 83.9208 139.899 84.154 139.841 84.3872C139.608 84.9118 139.232 85.4365 138.707 85.9612L138.623 86.0454C138.565 86.162 138.461 86.2916 138.319 86.4406C138.176 86.5831 137.982 86.7191 137.749 86.8357L137.664 86.8357C137.431 86.9523 137.14 87.0106 136.79 87.0106L136.531 87.0106C136.181 86.9523 135.902 86.8357 135.701 86.6608C135.501 86.4859 135.339 86.311 135.222 86.1361L134.697 85.1774C135.397 84.5361 136.038 84.0114 136.621 83.6034C137.204 83.1953 137.93 82.7872 138.804 82.3791C138.863 82.1459 138.889 81.8868 138.889 81.5953C138.889 81.2455 138.804 80.9281 138.63 80.6366C138.28 80.1119 137.872 79.8528 137.405 79.8528C137.114 79.8528 136.796 79.9953 136.446 80.2868C135.863 80.7532 135.28 81.3038 134.697 81.9451L134.088 82.554C133.331 83.3702 132.735 84.0114 132.3 84.4778C131.866 84.9442 131.53 85.294 131.296 85.5272C131.063 85.8187 130.83 86.0778 130.597 86.311C130.364 86.5442 130.046 86.8616 129.638 87.2697C129.23 87.6778 128.563 88.345 127.63 89.2778C127.455 89.4527 127.293 89.6146 127.15 89.7571C127.008 89.8996 126.814 90.0356 126.58 90.1522C126.114 90.3854 125.648 90.502 125.181 90.502C124.948 90.502 124.715 90.4697 124.481 90.4178L124.391 90.4178C124.274 90.3595 124.19 90.3012 124.132 90.2429C124.073 90.1846 124.047 90.1263 124.047 90.068C124.047 89.077 124.073 88.4357 124.132 88.1442L124.132 87.2697C124.19 86.4535 124.248 85.8576 124.307 85.4819C124.365 85.1062 124.41 84.7952 124.436 84.562C124.469 84.3288 124.54 84.0957 124.656 83.8625C124.715 83.4544 124.89 82.6382 125.181 81.4139C125.298 80.5977 125.473 79.8139 125.706 79.0561C117.9 81.3297 109.893 82.8131 101.679 83.5127L100.195 83.5969C99.0292 83.5969 98.4786 83.4803 98.5369 83.2471C98.5369 82.8973 99.9944 82.5475 102.903 82.1977C110.826 81.2649 118.574 79.6326 126.146 77.3071L126.321 76.6075C126.904 74.7419 127.5 73.1679 128.109 71.8918C128.718 70.6092 129.696 69.1841 131.037 67.6101C132.845 65.6279 135.028 64.1769 137.593 63.2441C139.051 62.7777 140.534 62.5445 142.05 62.5445L143.624 62.6288C144.79 62.862 145.561 63.3283 145.937 64.0279C146.313 64.7275 146.507 65.453 146.507 66.2109L146.416 67.3445C146.008 68.7436 145.134 69.9679 143.793 71.0108C142.044 72.5266 140.184 73.6926 138.202 74.5023C134.995 76.018 131.705 77.2682 128.329 78.2593L128.304 78.2787ZM191.031 80.7208L193.039 80.371L192.255 81.8544C189.923 82.3791 187.364 82.8584 184.565 83.2989C181.767 83.7329 179.15 83.9855 176.701 84.0438C174.427 84.0438 172.218 83.8689 170.061 83.5191L169.802 83.9531C168.986 85.294 167.969 86.3693 166.744 87.1855C165.403 88.06 163.978 88.6106 162.462 88.8438C161.704 88.9604 160.921 88.9345 160.104 88.7596C159.638 88.7013 159.184 88.5393 158.75 88.2802C158.316 88.0211 157.947 87.6519 157.656 87.1855C157.189 86.1944 157.014 85.2616 157.131 84.3872C157.247 83.5127 157.507 82.7548 157.915 82.1135C158.731 80.656 159.839 79.4901 161.231 78.622C161.815 78.3306 162.132 78.5054 162.19 79.1467C162.249 79.788 161.989 80.6884 161.406 81.8544C160.59 82.6123 160.04 83.4868 159.748 84.4778C159.573 84.9442 159.547 85.3523 159.664 85.7021C159.722 85.8187 159.78 85.9224 159.839 86.0066C159.897 86.0973 160.014 86.1685 160.189 86.2268C160.538 86.4017 160.972 86.4859 161.497 86.4859C162.022 86.4859 162.547 86.4276 163.071 86.311C164.179 86.0195 165.17 85.5272 166.045 84.8276C166.803 84.3029 167.444 83.6617 167.969 82.9038C167.327 82.7289 166.744 82.4957 166.22 82.2042L164.645 81.5046C164.296 81.4463 163.946 81.2844 163.596 81.0253C163.246 80.7662 163.071 80.4293 163.071 80.0212C163.071 79.5548 163.214 79.1208 163.505 78.7127C163.797 78.3046 164.114 78.0132 164.464 77.8383C165.28 77.4885 166.038 77.3136 166.738 77.3136C167.146 77.3136 167.522 77.3265 167.871 77.3589C168.221 77.3848 168.597 77.4302 169.005 77.4885C169.472 77.6051 169.867 77.8512 170.184 78.2334C170.508 78.6091 170.722 79.0366 170.838 79.503C171.013 80.3775 170.955 81.1937 170.664 81.9516C172.762 82.3013 174.887 82.4762 177.044 82.4762C181.702 82.4762 186.366 81.8933 191.024 80.7273L191.031 80.7208ZM167.094 80.6366C167.211 80.6949 167.327 80.7532 167.444 80.8115C167.794 80.9864 168.202 81.1613 168.668 81.3362L168.668 81.0771C168.668 81.0188 168.694 80.9605 168.759 80.9022C168.876 80.4358 168.876 80.0601 168.759 79.7686C168.701 79.7103 168.668 79.6844 168.668 79.6844C168.668 79.6261 168.655 79.5807 168.623 79.5548C168.591 79.5224 168.552 79.4965 168.493 79.4706C168.435 79.4382 168.351 79.4253 168.234 79.4253C167.71 79.3087 167.159 79.2828 166.576 79.3411C166.051 79.3411 165.643 79.4253 165.352 79.6002C165.293 79.6585 165.235 79.6844 165.177 79.6844C165.177 79.7427 165.164 79.7686 165.131 79.7686L165.086 79.7686L165.345 79.8528C165.52 79.9111 165.753 80.0147 166.045 80.1572C166.336 80.2998 166.595 80.4358 166.829 80.5524C166.945 80.5524 167.029 80.5848 167.088 80.6366L167.094 80.6366Z" fill="rgb(0,0,0)" fill-rule="nonzero" />
			<path id="Vector" d="M206.318 79.4123L206.843 79.2374L207.542 78.8876C207.776 78.8293 208.035 78.8034 208.326 78.8034C207.452 77.0545 206.201 75.4545 204.569 73.997C204.044 73.4723 203.494 72.98 202.911 72.5136C202.619 72.2805 202.328 72.0213 202.036 71.7299L200.637 70.6805L200.112 70.3307C199.821 70.0975 199.503 69.8384 199.153 69.5469L198.978 69.372C198.745 69.1971 198.544 68.9639 198.37 68.6724C198.02 68.1477 197.819 67.623 197.761 67.0983C197.761 66.4571 197.961 65.9324 198.37 65.5243C198.836 65.0579 199.27 64.7664 199.678 64.6498C200.961 64.1251 202.211 63.8077 203.435 63.6911C205.942 63.4579 208.359 63.3413 210.684 63.3413L215.75 63.6911C215.983 63.7494 216.242 63.8077 216.534 63.866C217.933 64.1575 219.417 64.6239 220.991 65.2652C219.941 65.032 218.983 64.8895 218.108 64.8312L217.499 64.8312L214.182 64.6563L208.851 64.9154C206.461 64.9737 204.103 65.2328 201.777 65.6992C201.194 65.8158 200.656 65.9907 200.157 66.2239C199.665 66.4571 199.471 66.8068 199.587 67.2732C199.646 67.5064 199.762 67.7072 199.937 67.8821C200.112 68.057 200.313 68.2319 200.546 68.4068L201.945 69.5404C203.986 70.9396 205.819 72.5396 207.452 74.3468C209.259 76.0375 210.334 77.4626 210.684 78.6285C210.917 79.503 211.06 80.2026 211.118 80.7273L211.377 80.9864C213.651 82.1524 216.56 82.6058 220.116 82.3402C223.666 82.0811 226.782 81.6277 229.464 80.9864C231.038 80.7532 231.472 80.954 230.773 81.5953C228.091 82.8779 224.742 83.6163 220.725 83.8236C216.709 84.0244 213.211 83.4868 210.244 82.2042C209.894 82.0293 209.602 81.7961 209.369 81.5046C209.311 81.4463 209.253 81.3621 209.194 81.2455L209.11 81.2455C208.702 81.0706 208.326 80.8698 207.976 80.6366C207.918 80.6949 207.86 80.7208 207.802 80.7208L206.752 81.2455L202.386 83.2536L198.104 85.1774L197.929 85.2616C197.288 85.6697 196.471 85.9288 195.48 86.0454C194.956 86.0454 194.431 85.9029 193.906 85.6114C193.381 85.3199 193.006 84.7952 192.772 84.0374C192.772 83.4544 192.844 82.975 192.993 82.5928C193.135 82.2171 193.297 81.9062 193.472 81.673C193.53 81.673 193.556 81.6471 193.556 81.5888C193.906 81.0058 194.314 80.4552 194.781 79.9305L194.871 79.8463C195.921 78.797 197.087 77.9808 198.363 77.3978C201.22 76.1152 203.837 75.8561 206.227 76.614C205.469 77.2553 204.77 78.0132 204.128 78.8876C203.429 78.7127 202.6 78.7257 201.641 78.933C200.682 79.1338 199.736 79.4706 198.804 79.937C197.871 80.4034 197.054 81.0123 196.355 81.7702C196.005 82.12 195.688 82.5281 195.396 82.9945C195.163 83.286 195.046 83.5191 195.046 83.694L195.137 83.694C195.195 83.7523 195.254 83.7977 195.312 83.8236C195.37 83.856 195.428 83.8366 195.487 83.7783C195.778 83.8366 196.186 83.7523 196.711 83.5191C196.886 83.4025 197.087 83.3183 197.32 83.26L206.234 79.4188L206.318 79.4188L206.318 79.4123ZM261.187 80.7208L263.195 80.371L262.412 81.8544C260.079 82.3791 257.521 82.8584 254.722 83.2989C251.924 83.7329 249.306 83.9855 246.858 84.0438C244.584 84.0438 242.375 83.8689 240.218 83.5191L239.959 83.9532C239.142 85.294 238.125 86.3693 236.901 87.1855C235.56 88.06 234.135 88.6106 232.619 88.8438C231.861 88.9604 231.077 88.9345 230.261 88.7596C229.795 88.7013 229.341 88.5393 228.907 88.2802C228.473 88.0211 228.104 87.6519 227.812 87.1855C227.346 86.1944 227.171 85.2616 227.288 84.3872C227.404 83.5127 227.663 82.7548 228.071 82.1135C228.888 80.656 229.995 79.4901 231.395 78.6221C231.978 78.3306 232.295 78.5055 232.353 79.1468C232.412 79.788 232.153 80.6884 231.57 81.8544C230.753 82.6123 230.203 83.4868 229.911 84.4778C229.736 84.9442 229.71 85.3523 229.827 85.7021C229.885 85.8187 229.944 85.9224 230.002 86.0066C230.06 86.0973 230.177 86.1685 230.352 86.2268C230.701 86.4017 231.135 86.4859 231.66 86.4859C232.185 86.4859 232.71 86.4276 233.234 86.311C234.342 86.0195 235.333 85.5272 236.208 84.8276C236.966 84.3029 237.607 83.6617 238.132 82.9038C237.49 82.7289 236.907 82.4957 236.383 82.2042L234.809 81.5046C234.459 81.4463 234.109 81.2844 233.759 81.0253C233.409 80.7662 233.234 80.4293 233.234 80.0212C233.234 79.5548 233.377 79.1208 233.668 78.7127C233.96 78.3047 234.277 78.0132 234.627 77.8383C235.443 77.4885 236.201 77.3136 236.901 77.3136C237.309 77.3136 237.685 77.3265 238.035 77.3589C238.384 77.3848 238.76 77.4302 239.168 77.4885C239.635 77.6051 240.03 77.8512 240.347 78.2334C240.665 78.6091 240.885 79.0366 241.002 79.503C241.176 80.3775 241.118 81.1937 240.827 81.9516C242.926 82.3014 245.05 82.4763 247.208 82.4763C251.865 82.4763 256.529 81.8933 261.187 80.7273L261.187 80.7208ZM237.251 80.6366C237.367 80.6949 237.484 80.7532 237.601 80.8115C237.95 80.9864 238.359 81.1613 238.825 81.3362L238.825 81.0771C238.825 81.0188 238.851 80.9605 238.909 80.9022C239.026 80.4358 239.026 80.0601 238.909 79.7686C238.851 79.7103 238.825 79.6844 238.825 79.6844C238.825 79.6261 238.812 79.5807 238.78 79.5548C238.747 79.5224 238.708 79.4965 238.65 79.4706C238.592 79.4382 238.508 79.4253 238.391 79.4253C237.866 79.3087 237.316 79.2828 236.733 79.3411C236.208 79.3411 235.8 79.4253 235.508 79.6002C235.45 79.6585 235.392 79.6844 235.333 79.6844C235.333 79.7427 235.32 79.7686 235.288 79.7686L235.243 79.7686L235.502 79.8528C235.677 79.9111 235.91 80.0148 236.201 80.1573C236.493 80.2998 236.752 80.4358 236.985 80.5524C237.102 80.5524 237.186 80.5848 237.244 80.6366L237.251 80.6366ZM302.167 80.7208C304.616 80.6042 305.646 80.7338 305.27 81.116C304.895 81.4917 303.45 81.8026 300.943 82.0358C293.02 82.9686 285.273 84.6009 277.7 86.9264L276.741 89.8996C275.808 92.3482 274.5 94.5894 272.809 96.6299C271.001 98.6121 268.818 100.063 266.253 100.996C264.271 101.637 262.263 101.838 260.222 101.605C258.764 101.255 257.89 100.588 257.598 99.5967C257.307 98.6056 257.249 97.7052 257.423 96.889C257.89 95.4898 258.764 94.2656 260.047 93.2227C261.854 91.7069 263.714 90.5409 265.638 89.7312C268.896 88.1572 272.252 86.8746 275.685 85.89C275.86 85.4819 275.977 85.0155 276.035 84.4908C276.093 84.0827 276.152 83.7329 276.21 83.4414C276.268 83.2082 276.294 83.0657 276.294 83.0074C276.294 82.9491 276.281 82.9038 276.249 82.8779C276.216 82.852 276.177 82.8066 276.119 82.7483L275.86 82.7483C274.811 82.8066 273.645 83.0074 272.368 83.3572C271.435 83.5904 270.535 83.8495 269.66 84.141C269.369 84.1993 269.077 84.2835 268.786 84.4001L265.029 85.6244L264.07 85.8835L263.636 85.9677L263.377 85.9677C263.26 86.026 263.118 86.0519 262.943 86.0519C262.36 86.1685 261.822 86.1685 261.323 86.0519C260.831 85.9353 260.436 85.6438 260.144 85.1774C260.086 85.0025 260.086 84.86 260.144 84.7434L260.144 83.694C260.144 83.5775 260.17 83.4479 260.228 83.2989C260.287 83.1564 260.345 83.0204 260.403 82.9038L260.753 82.2042L261.362 81.2455L262.237 80.4617C263.461 79.5289 264.744 78.8876 266.078 78.5378C268.818 77.8966 271.494 77.6958 274.117 77.929C273.01 78.6868 271.96 79.5613 270.969 80.5524C268.695 80.5524 266.57 80.9864 264.588 81.8609C264.122 82.1524 263.746 82.4439 263.455 82.7354L263.02 83.3443L262.846 83.6034L263.02 83.6034C264.187 83.3119 265.379 82.9621 266.603 82.554C267.711 82.2042 268.818 81.8868 269.92 81.5953C271.144 81.1872 272.368 80.8957 273.586 80.7208C274.228 80.5459 274.895 80.4617 275.594 80.4617C276.061 80.4617 276.573 80.533 277.123 80.682C277.674 80.8309 278.069 81.1613 278.302 81.686C278.535 82.2107 278.594 82.7937 278.477 83.435L278.302 84.4843C278.186 84.7758 278.127 85.009 278.127 85.1839C285.933 82.9103 293.94 81.4269 302.154 80.7273L302.167 80.7208ZM275.083 88.06L275.083 87.8851C275.141 87.8268 275.167 87.7426 275.167 87.626C272.018 88.6754 268.993 89.9255 266.078 91.383C264.271 92.2575 262.612 93.3328 261.096 94.6153C260.397 95.2566 259.814 95.9821 259.347 96.7983C258.823 98.0809 258.972 98.91 259.781 99.2857C260.598 99.6614 261.628 99.7975 262.884 99.6809C264.135 99.5643 265.139 99.3311 265.897 98.9813C268.229 98.0485 270.179 96.591 271.753 94.6153C273.21 92.6332 274.318 90.4502 275.07 88.06L275.083 88.06ZM339.125 80.9864C340.699 80.7532 341.133 80.954 340.433 81.5953C337.751 82.8779 334.402 83.6163 330.386 83.8236C326.369 84.0244 322.871 83.4868 319.904 82.2042C319.554 82.0293 319.263 81.7961 319.03 81.5046C318.797 81.2131 318.563 80.9799 318.33 80.805C318.097 80.6301 317.805 80.6042 317.456 80.7208L316.406 81.2455L312.04 83.2536L307.758 85.1774C307.7 85.1774 307.641 85.2033 307.583 85.2616C306.942 85.6697 306.125 85.9288 305.134 86.0454C304.61 86.0454 304.085 85.9029 303.56 85.6114C303.035 85.3199 302.66 84.7952 302.427 84.0374C302.427 83.4544 302.498 82.975 302.647 82.5928C302.789 82.2171 302.951 81.9062 303.126 81.673C303.184 81.673 303.217 81.6471 303.217 81.5888C303.567 81.0058 303.975 80.4552 304.441 79.9305C304.441 79.9305 304.467 79.8982 304.525 79.8463C305.575 78.797 306.741 77.9808 308.024 77.3978C310.764 76.1152 313.614 75.882 316.588 76.6982C315.83 77.3395 315.13 78.0974 314.489 78.9719C312.39 78.5638 310.382 78.8812 308.458 79.9305C307.525 80.3969 306.708 81.0058 306.009 81.7637C305.659 82.1135 305.342 82.5216 305.05 82.988C304.817 83.2795 304.7 83.5127 304.7 83.6876L304.785 83.6876C304.843 83.7459 304.901 83.7912 304.959 83.8171C305.018 83.8495 305.076 83.8301 305.134 83.7718C305.426 83.8301 305.834 83.7459 306.359 83.5127C306.534 83.3961 306.734 83.3119 306.968 83.2536L315.881 79.4123L316.49 79.2374L317.19 78.8876C318.065 78.6544 318.822 78.8034 319.464 79.3216C319.872 79.788 320.131 80.1054 320.248 80.2803C320.306 80.3386 320.364 80.3969 320.423 80.4552L321.031 80.9799C323.305 82.1459 326.214 82.5993 329.77 82.3337C333.32 82.0746 336.443 81.6212 339.118 80.9799L339.125 80.9864Z" fill="rgb(0,0,0)" fill-rule="nonzero" />
		</g>
		<g id="2">
			<path id="Vector" d="M285.525 192.74L288.842 193.265L285.001 193.964C281.859 194.081 278.853 194.224 276.003 194.398L271.462 194.483C270.587 194.599 269.687 194.541 268.754 194.308C268.462 194.249 268.171 194.165 267.879 194.049C267.588 193.932 267.387 193.802 267.27 193.654C267.154 193.511 267.212 193.375 267.445 193.258L270.244 191.425L272.517 189.676C273.392 189.035 274.325 188.368 275.316 187.668C275.957 187.202 276.625 186.709 277.324 186.185C280.298 183.853 282.856 181.236 285.014 178.321C286.121 176.805 286.879 175.173 287.287 173.43C287.462 172.556 287.404 171.668 287.112 170.768C286.821 169.868 286.329 169.149 285.629 168.63C284.871 168.047 283.958 167.652 282.876 167.451C281.801 167.251 280.764 167.115 279.773 167.056C278.723 167.056 277.706 167.141 276.715 167.315L276.54 167.315C276.482 167.315 276.437 167.328 276.411 167.361C276.385 167.393 276.365 167.406 276.365 167.406C276.365 167.406 276.352 167.419 276.32 167.451C276.294 167.477 276.249 167.523 276.19 167.581C276.19 167.581 276.165 167.607 276.106 167.665C276.106 167.724 276.093 167.749 276.061 167.749C276.029 167.749 276.016 167.762 276.016 167.795L276.016 167.84L276.106 167.84C275.931 167.898 275.685 167.866 275.361 167.756C275.044 167.639 274.733 167.464 274.441 167.231C274.325 166.998 274.208 166.719 274.092 166.402C273.975 166.085 273.891 165.774 273.832 165.482C274.124 165.249 274.461 165.087 274.837 165.003C275.212 164.912 275.549 164.841 275.841 164.783C276.365 164.666 276.916 164.608 277.499 164.608C278.665 164.549 279.857 164.608 281.081 164.783C282.422 164.899 283.731 165.249 285.014 165.832C285.655 166.124 286.309 166.519 286.976 167.011C287.644 167.503 288.188 168.073 288.596 168.715C289.412 169.997 289.846 171.221 289.905 172.381C289.963 173.547 289.788 174.564 289.38 175.438C288.738 177.304 287.806 178.988 286.581 180.504C284.249 183.302 281.541 185.803 278.458 188.018C277.583 188.659 276.709 189.268 275.834 189.851C275.076 190.318 274.377 190.784 273.735 191.25L271.027 193.083L276.009 192.999C277.059 192.941 278.108 192.915 279.157 192.915C281.256 192.798 283.381 192.74 285.538 192.74L285.525 192.74ZM299.68 187.318L299.071 187.403L298.462 187.318L296.979 184.611L299.686 184.611L299.686 187.318L299.68 187.318ZM353.338 202.262L352.288 203.746L352.379 201.388L360.852 168.274C353.921 172.407 346.756 176.164 339.358 179.545C337.376 180.478 335.225 180.828 332.893 180.595C331.727 180.42 330.652 179.927 329.66 179.111C328.786 178.178 328.203 177.129 327.911 175.963C327.445 173.631 327.477 171.422 327.996 169.323C328.404 167.108 329.162 165.042 330.269 163.118C330.736 163.992 331.286 164.834 331.928 165.651C331.053 167.341 330.47 169.142 330.179 171.066C329.771 173.048 329.861 174.791 330.438 176.306C331.196 177.764 332.446 178.548 334.195 178.664C335.944 178.664 337.719 178.23 339.526 177.356C343.251 175.723 346.95 174.033 350.623 172.29L356.039 169.492C356.622 169.2 357.205 168.909 357.788 168.617C359.129 167.976 360.295 167.335 361.286 166.694L361.811 164.686L362.595 165.294L362.685 164.686L362.685 165.385L364.085 166.434L353.338 202.256L353.338 202.262ZM381.038 212.659L379.813 215.107C379.813 213.941 379.904 212.808 380.073 211.7C381.297 206.868 382.664 202.087 384.18 197.372L386.453 190.298L387.587 186.716L388.196 185.058C388.254 184.941 388.287 184.857 388.287 184.799C388.403 184.565 388.475 184.378 388.507 184.229C388.533 184.086 388.52 183.95 388.462 183.833C388.345 183.717 388.241 183.659 388.157 183.659C388.073 183.659 387.937 183.684 387.762 183.743L387.503 183.743C387.036 183.801 386.57 183.918 386.104 184.092C385.987 184.092 385.87 184.125 385.754 184.177C384.588 184.527 383.422 184.935 382.256 185.401L378.764 186.625C378.239 186.8 377.689 187.033 377.106 187.325C376.523 187.558 375.94 187.791 375.357 188.024C374.249 188.549 373.083 189.016 371.865 189.424L369.857 189.948C369.157 190.123 368.373 190.065 367.499 189.773C367.266 189.715 367.032 189.598 366.799 189.424C366.566 189.249 366.365 189.048 366.19 188.815C366.132 188.756 366.106 188.672 366.106 188.556C365.931 188.322 365.801 188.089 365.711 187.856C365.62 187.623 365.607 187.39 365.665 187.156L365.925 186.373L366.184 185.848L366.618 184.973C367.259 183.807 368.043 182.732 368.976 181.741C369.209 182.791 369.5 183.807 369.85 184.799C369.5 185.207 369.209 185.641 368.976 186.107C368.801 186.34 368.658 186.599 368.542 186.891L368.283 187.416C368.341 187.474 368.47 187.5 368.678 187.5L369.332 187.5C371.373 187.092 373.556 186.366 375.888 185.317L377.637 184.617L379.386 184.092L382.878 182.959C384.044 182.493 385.268 182.143 386.544 181.91L387.069 181.825C387.127 181.825 387.186 181.793 387.244 181.741L387.769 181.741C388.41 181.683 388.961 181.774 389.427 182C389.893 182.175 390.243 182.551 390.476 183.134C390.476 183.25 390.502 183.367 390.561 183.484L390.561 183.918L390.386 184.701L388.986 188.458L387.762 191.866L385.313 198.764C383.797 203.363 382.372 207.995 381.031 212.652L381.038 212.659ZM416.68 179.895C419.828 178.846 422.854 177.595 425.769 176.138C427.634 175.263 429.293 174.188 430.75 172.906C431.45 172.264 432.033 171.539 432.5 170.723C432.733 170.256 432.849 169.848 432.849 169.498C432.849 168.857 432.545 168.404 431.929 168.145C431.32 167.885 430.601 167.749 429.792 167.749C429.092 167.749 428.392 167.821 427.693 167.97C426.993 168.119 426.41 168.307 425.944 168.54C423.67 169.472 421.72 170.93 420.088 172.906C418.63 174.888 417.522 177.071 416.764 179.461L416.68 179.895ZM416.33 181.553C415.864 183.186 415.456 184.844 415.106 186.535L414.231 190.991L422.271 182.952C422.737 182.486 423.262 182.078 423.845 181.728C424.311 181.437 424.862 181.294 425.503 181.294C425.911 181.294 426.287 181.378 426.637 181.553C427.045 181.728 427.395 181.987 427.686 182.337C427.978 182.687 428.211 183.037 428.386 183.386C428.561 183.853 428.645 184.345 428.645 184.87C431.21 184.054 433.769 183.529 436.335 183.296L440.442 183.121C443.415 183.121 446.382 183.322 449.355 183.73C449.705 183.846 449.997 183.95 450.23 184.034C450.463 184.118 450.58 184.196 450.58 184.254C450.58 184.371 450.405 184.475 450.055 184.559C449.705 184.643 449.122 184.721 448.306 184.779C446.149 184.604 443.966 184.52 441.75 184.52C439.768 184.52 437.818 184.604 435.894 184.779C433.212 185.012 430.679 185.654 428.295 186.703C428.237 186.82 428.179 186.904 428.12 186.962C428.004 187.195 427.919 187.428 427.861 187.662C427.628 188.186 427.252 188.711 426.728 189.236L426.643 189.32C426.585 189.437 426.481 189.566 426.339 189.715C426.19 189.858 426.002 189.994 425.769 190.11L425.678 190.11C425.445 190.227 425.153 190.285 424.804 190.285L424.544 190.285C424.195 190.227 423.916 190.11 423.715 189.935C423.514 189.76 423.352 189.586 423.236 189.411L422.711 188.452C423.411 187.811 424.052 187.286 424.635 186.878C425.218 186.47 425.944 186.062 426.818 185.654C426.877 185.42 426.902 185.161 426.902 184.87C426.902 184.52 426.818 184.203 426.643 183.911C426.294 183.386 425.885 183.127 425.419 183.127C425.127 183.127 424.81 183.27 424.46 183.561C423.877 184.028 423.294 184.578 422.711 185.22L422.102 185.829C421.344 186.645 420.748 187.286 420.314 187.752C419.88 188.219 419.543 188.569 419.31 188.802C419.077 189.093 418.844 189.352 418.611 189.586C418.377 189.819 418.06 190.136 417.652 190.544C417.244 190.952 416.576 191.62 415.644 192.552C415.469 192.727 415.307 192.889 415.164 193.032C415.022 193.174 414.827 193.31 414.594 193.427C414.128 193.66 413.661 193.777 413.195 193.777C412.962 193.777 412.728 193.744 412.495 193.686L412.411 193.686C412.294 193.628 412.21 193.569 412.152 193.511C412.094 193.453 412.061 193.394 412.061 193.336C412.061 192.345 412.094 191.704 412.152 191.412L412.152 190.538C412.21 189.722 412.269 189.126 412.327 188.75C412.385 188.374 412.43 188.063 412.456 187.83C412.482 187.597 412.56 187.364 412.677 187.131C412.735 186.722 412.91 185.906 413.201 184.682C413.318 183.866 413.493 183.082 413.726 182.324C405.92 184.598 397.913 186.081 389.699 186.781L388.216 186.865C387.049 186.865 386.499 186.748 386.557 186.515C386.557 186.165 388.015 185.816 390.923 185.466C398.846 184.533 406.594 182.901 414.167 180.575L414.341 179.876C414.925 178.01 415.521 176.436 416.129 175.16C416.738 173.877 417.717 172.452 419.058 170.878C420.865 168.896 423.048 167.445 425.607 166.512C427.064 166.046 428.548 165.813 430.064 165.813L431.638 165.897C432.804 166.13 433.575 166.596 433.951 167.296C434.326 167.996 434.521 168.721 434.521 169.479L434.436 170.613C434.028 172.012 433.154 173.236 431.813 174.279C430.064 175.795 428.205 176.961 426.222 177.77C423.016 179.286 419.725 180.536 416.35 181.527L416.33 181.553ZM483.171 183.743C483.637 183.859 483.896 183.989 483.955 184.138C484.013 184.28 483.929 184.429 483.696 184.572C483.462 184.714 483.171 184.876 482.821 185.051C474.723 187.092 466.542 188.776 458.269 190.117C457.861 190.175 457.453 190.233 457.045 190.292C455.354 190.525 453.612 190.641 451.804 190.641C450.696 190.641 449.589 190.292 448.487 189.592C447.904 189.242 447.438 188.718 447.088 188.018C446.855 187.318 446.797 186.651 446.913 186.01C447.38 183.445 448.805 181.586 451.195 180.42C452.361 179.895 453.553 179.662 454.778 179.72C455.419 179.778 456.028 179.895 456.611 180.07C457.369 180.303 457.835 180.491 458.01 180.64C458.185 180.782 458.198 180.944 458.055 181.119C457.913 181.294 457.66 181.469 457.31 181.644C456.786 181.877 456.319 182.195 455.911 182.603C454.279 182.078 452.737 182.285 451.279 183.212C450.58 183.678 450.029 184.287 449.621 185.045C449.446 185.395 449.317 185.757 449.226 186.139C449.142 186.515 449.122 186.826 449.18 187.059C449.297 187.526 449.731 187.901 450.489 188.193C451.247 188.484 452.089 188.601 453.022 188.543C454.946 188.543 456.922 188.368 458.962 188.018C467.118 186.91 475.183 185.485 483.164 183.736L483.171 183.743ZM537.599 184.086C538.591 184.144 539.608 184.17 540.657 184.17C539.433 184.637 538.182 185.045 536.9 185.395C533.058 185.919 529.185 186.237 525.278 186.353L522.305 186.528C521.372 186.645 520.413 186.671 519.422 186.612C518.897 186.554 518.373 186.437 517.848 186.263C517.323 186.088 516.915 185.77 516.624 185.304C516.39 184.896 516.248 184.546 516.19 184.254C516.073 183.905 515.956 183.626 515.84 183.425C515.723 183.225 515.522 183.088 515.231 183.03C514.706 182.914 514.065 182.946 513.307 183.114C513.074 183.173 512.84 183.231 512.607 183.289C511.674 183.522 510.741 183.814 509.809 184.164C508.06 184.747 506.343 185.531 504.652 186.522L502.203 188.096C501.737 188.387 501.212 188.62 500.629 188.795C500.046 188.97 499.437 188.97 498.796 188.795C498.504 188.737 498.213 188.575 497.921 188.316C497.63 188.057 497.429 187.778 497.312 187.487C497.079 187.02 496.963 186.554 496.963 186.088C496.904 185.971 496.872 185.854 496.872 185.738L496.872 185.038C496.872 184.805 496.846 184.604 496.788 184.429C496.729 184.254 496.671 184.138 496.613 184.08C496.555 184.021 496.496 183.963 496.438 183.905C495.563 183.905 494.605 184.047 493.555 184.339C492.214 184.688 490.834 185.213 489.403 185.913C487.971 186.612 486.708 187.396 485.6 188.271L482.283 190.803C481.467 190.862 480.975 190.557 480.8 189.884C480.625 189.216 480.638 188.4 480.845 187.435C481.046 186.476 481.266 185.589 481.5 184.773C481.558 184.481 481.616 184.222 481.674 183.989L482.024 182.939L482.374 182.156C483.015 180.757 483.566 180.206 484.032 180.497C484.499 180.789 484.79 181.605 484.907 182.946L483.598 186.612L484.382 186.088C484.615 185.971 484.849 185.829 485.082 185.654C487.531 184.138 490.18 182.946 493.03 182.071C493.613 181.897 494.255 181.78 494.954 181.722L495.388 181.722C495.563 181.663 495.738 181.637 495.913 181.637C496.263 181.637 496.755 181.722 497.397 181.897C497.863 182.13 498.213 182.447 498.446 182.855C498.738 183.263 498.913 183.639 498.971 183.989L498.971 184.073C499.029 184.656 499.062 185.207 499.062 185.731C499.062 185.965 499.074 186.152 499.107 186.301C499.133 186.444 499.178 186.548 499.236 186.606C499.236 186.664 499.249 186.709 499.282 186.735C499.314 186.761 499.34 186.794 499.366 186.82C499.392 186.846 499.437 186.865 499.496 186.865C499.904 186.982 500.487 186.781 501.245 186.256C501.769 185.906 502.352 185.556 502.994 185.207C503.285 185.032 503.577 184.857 503.868 184.682C505.734 183.749 507.626 182.933 509.549 182.233L512.607 181.45L514.266 181.191C514.557 181.191 514.907 181.223 515.315 181.281C515.723 181.34 516.131 181.514 516.539 181.806C516.947 182.097 517.239 182.434 517.414 182.81C517.589 183.186 517.705 183.497 517.764 183.73C517.822 183.905 517.88 184.047 517.939 184.164C517.997 184.28 518.029 184.365 518.029 184.423C518.088 184.423 518.12 184.449 518.12 184.507C518.237 184.682 518.47 184.812 518.82 184.902C519.169 184.993 519.545 185.032 519.953 185.032C520.886 185.09 521.845 185.064 522.836 184.948L525.809 184.863C529.826 184.805 533.758 184.546 537.606 184.08L537.599 184.086ZM559.878 179.895C563.026 178.846 566.051 177.595 568.966 176.138C570.832 175.263 572.49 174.188 573.948 172.906C574.647 172.264 575.23 171.539 575.697 170.723C575.93 170.256 576.047 169.848 576.047 169.498C576.047 168.857 575.742 168.404 575.127 168.145C574.518 167.885 573.799 167.749 572.989 167.749C572.289 167.749 571.59 167.821 570.89 167.97C570.191 168.119 569.608 168.307 569.141 168.54C566.867 169.472 564.917 170.93 563.285 172.906C561.827 174.888 560.72 177.071 559.968 179.461L559.878 179.895ZM559.528 181.553C559.061 183.186 558.653 184.844 558.303 186.535L557.429 190.991L565.468 182.952C565.934 182.486 566.459 182.078 567.042 181.728C567.509 181.437 568.059 181.294 568.701 181.294C569.109 181.294 569.484 181.378 569.834 181.553C570.242 181.728 570.592 181.987 570.884 182.337C571.175 182.687 571.408 183.037 571.583 183.386C571.758 183.853 571.843 184.345 571.843 184.87C574.408 184.054 576.967 183.529 579.532 183.296L583.639 183.121C586.612 183.121 589.579 183.322 592.553 183.73C592.903 183.846 593.194 183.95 593.427 184.034C593.661 184.118 593.777 184.196 593.777 184.254C593.777 184.371 593.602 184.475 593.252 184.559C592.903 184.643 592.32 184.721 591.503 184.779C589.346 184.604 587.163 184.52 584.948 184.52C582.965 184.52 581.015 184.604 579.091 184.779C576.41 185.012 573.877 185.654 571.493 186.703C571.434 186.82 571.376 186.904 571.318 186.962C571.201 187.195 571.117 187.428 571.059 187.662C570.825 188.186 570.45 188.711 569.925 189.236L569.841 189.32C569.782 189.437 569.679 189.566 569.536 189.715C569.394 189.858 569.199 189.994 568.966 190.11L568.882 190.11C568.649 190.227 568.357 190.285 568.007 190.285L567.748 190.285C567.399 190.227 567.12 190.11 566.919 189.935C566.718 189.76 566.556 189.586 566.44 189.411L565.915 188.452C566.615 187.811 567.256 187.286 567.839 186.878C568.422 186.47 569.148 186.062 570.022 185.654C570.08 185.42 570.106 185.161 570.106 184.87C570.106 184.52 570.022 184.203 569.847 183.911C569.497 183.386 569.089 183.127 568.623 183.127C568.331 183.127 568.014 183.27 567.664 183.561C567.081 184.028 566.498 184.578 565.915 185.22L565.306 185.829C564.548 186.645 563.952 187.286 563.518 187.752C563.084 188.219 562.747 188.569 562.514 188.802C562.281 189.093 562.048 189.352 561.814 189.586C561.581 189.819 561.264 190.136 560.856 190.544C560.448 190.952 559.78 191.62 558.848 192.552C558.673 192.727 558.511 192.889 558.368 193.032C558.226 193.174 558.031 193.31 557.798 193.427C557.332 193.66 556.865 193.777 556.399 193.777C556.166 193.777 555.932 193.744 555.699 193.686L555.615 193.686C555.498 193.628 555.414 193.569 555.356 193.511C555.298 193.453 555.272 193.394 555.272 193.336C555.272 192.345 555.304 191.704 555.356 191.412L555.356 190.538C555.414 189.722 555.472 189.126 555.531 188.75C555.589 188.374 555.634 188.063 555.66 187.83C555.693 187.597 555.764 187.364 555.881 187.131C555.939 186.722 556.114 185.906 556.405 184.682C556.522 183.866 556.697 183.082 556.93 182.324C549.124 184.598 541.117 186.081 532.903 186.781L531.419 186.865C530.253 186.865 529.703 186.748 529.761 186.515C529.761 186.165 531.219 185.816 534.127 185.466C542.05 184.533 549.798 182.901 557.37 180.575L557.545 179.876C558.128 178.01 558.724 176.436 559.333 175.16C559.942 173.877 560.921 172.452 562.261 170.878C564.069 168.896 566.252 167.445 568.817 166.512C570.275 166.046 571.758 165.813 573.274 165.813L574.848 165.897C576.014 166.13 576.785 166.596 577.161 167.296C577.537 167.996 577.731 168.721 577.731 169.479L577.64 170.613C577.232 172.012 576.358 173.236 575.017 174.279C573.268 175.795 571.408 176.961 569.426 177.77C566.22 179.286 562.929 180.536 559.554 181.527L559.528 181.553ZM623.136 184.086C624.943 183.678 625.682 183.633 625.364 183.956C625.047 184.274 624.211 184.76 622.877 185.401C620.894 185.692 618.07 186.509 614.403 187.85C611.372 188.899 608.23 189.858 604.965 190.732C601.7 191.607 598.759 192.002 596.142 191.911C593.518 191.827 591.626 190.849 590.46 188.983C589.703 187.292 589.677 185.544 590.37 183.743C591.536 181.003 593.46 179.144 596.135 178.153C596.602 177.978 597.172 177.874 597.839 177.848C598.506 177.816 599.135 177.932 599.718 178.198C600.301 178.457 600.618 178.943 600.676 179.642C600.676 180.05 600.56 180.517 600.326 181.042C599.802 181.916 598.986 182.732 597.878 183.49C596.187 184.714 594.354 185.615 592.371 186.198C592.197 188.005 593.188 189.229 595.345 189.864C597.619 190.33 600.488 190.169 603.948 189.385C607.413 188.601 611.099 187.597 614.999 186.373C617.74 185.556 620.447 184.799 623.123 184.099L623.136 184.086ZM597.8 180.245C596.168 180.245 594.71 181.236 593.434 183.218C595.358 182.518 596.984 181.618 598.325 180.51L597.8 180.251L597.8 180.245ZM645.414 183.652C645.472 183.419 645.498 183.244 645.498 183.127C645.498 182.836 645.453 182.616 645.368 182.473C645.284 182.331 645.239 182.169 645.239 181.994C645.239 181.877 645.297 181.735 645.414 181.56L645.848 181.56C646.722 181.56 647.156 181.994 647.156 182.868C647.156 183.918 646.781 185.226 646.023 186.8L651.004 186.101C656.537 185.401 660.585 184.792 663.151 184.267L664.809 184.183C665.101 184.183 665.243 184.216 665.243 184.267C665.243 185.084 660.469 186.191 650.914 187.59L644.973 188.64C644.274 188.64 643.924 188.407 643.924 187.94C643.924 187.474 644.131 186.716 644.533 185.667C637.893 186.483 631.253 187.007 624.613 187.241C624.554 187.299 624.554 187.474 624.613 187.765C624.613 188.057 624.671 188.29 624.788 188.465L624.788 188.64C624.963 188.815 625.163 188.99 625.397 189.165C625.63 189.339 625.889 189.456 626.18 189.514C626.297 189.631 626.44 189.702 626.614 189.735C626.789 189.76 626.964 189.747 627.139 189.689C627.139 189.922 626.964 190.123 626.614 190.298C626.265 190.473 625.889 190.531 625.481 190.473C624.548 190.24 623.881 189.657 623.473 188.724C623.239 187.791 623.214 186.858 623.382 185.926L623.382 185.667C623.44 185.55 623.473 185.375 623.473 185.142C623.531 184.676 623.673 184.047 623.907 183.263C624.14 182.48 624.548 181.618 625.131 180.685L626.705 183.309C626.705 183.367 626.679 183.393 626.614 183.393C626.614 183.451 626.589 183.477 626.53 183.477C626.53 183.594 626.472 183.71 626.355 183.827C626.122 184.235 625.863 184.701 625.571 185.226C625.455 185.343 625.371 185.459 625.312 185.576C632.71 185.459 639.409 184.818 645.407 183.652L645.414 183.652ZM686.038 183.652C686.096 183.419 686.128 183.244 686.128 183.127C686.128 182.836 686.083 182.616 685.999 182.473C685.915 182.331 685.869 182.169 685.869 181.994C685.869 181.877 685.927 181.735 686.044 181.56L686.478 181.56C687.353 181.56 687.787 181.994 687.787 182.868C687.787 183.918 687.411 185.226 686.653 186.8L691.635 186.101C697.167 185.401 701.216 184.792 703.781 184.267L705.439 184.183C705.731 184.183 705.873 184.216 705.873 184.267C705.873 185.084 701.099 186.191 691.544 187.59L685.604 188.64C684.904 188.64 684.554 188.407 684.554 187.94C684.554 187.474 684.761 186.716 685.163 185.667C678.523 186.483 671.883 187.007 665.243 187.241C665.185 187.299 665.185 187.474 665.243 187.765C665.243 188.057 665.301 188.29 665.418 188.465L665.418 188.64C665.593 188.815 665.794 188.99 666.027 189.165C666.26 189.339 666.519 189.456 666.811 189.514C666.927 189.631 667.07 189.702 667.245 189.735C667.42 189.76 667.595 189.747 667.77 189.689C667.77 189.922 667.595 190.123 667.245 190.298C666.895 190.473 666.519 190.531 666.111 190.473C665.178 190.24 664.511 189.657 664.103 188.724C663.87 187.791 663.844 186.858 664.019 185.926L664.019 185.667C664.077 185.55 664.103 185.375 664.103 185.142C664.161 184.676 664.304 184.047 664.537 183.263C664.77 182.48 665.178 181.618 665.761 180.685L667.335 183.309C667.335 183.367 667.31 183.393 667.245 183.393C667.245 183.451 667.219 183.477 667.161 183.477C667.161 183.594 667.102 183.71 666.986 183.827C666.752 184.235 666.493 184.701 666.202 185.226C666.085 185.343 666.001 185.459 665.943 185.576C673.341 185.459 680.039 184.818 686.038 183.652ZM712.598 185.66L712.948 185.835C713.297 186.01 713.705 186.185 714.172 186.36L714.172 186.101C714.172 186.042 714.204 185.984 714.256 185.926C714.373 185.459 714.373 185.084 714.256 184.792L714.172 184.701C714.172 184.643 714.159 184.598 714.126 184.572C714.101 184.546 714.055 184.514 713.997 184.488C713.939 184.462 713.854 184.442 713.738 184.442C713.213 184.326 712.662 184.3 712.079 184.358C711.555 184.358 711.147 184.442 710.855 184.617C710.797 184.676 710.738 184.701 710.68 184.701L710.68 184.792L710.596 184.792L710.855 184.876C711.03 184.935 711.263 185.038 711.555 185.181C711.846 185.323 712.105 185.459 712.339 185.576C712.455 185.576 712.539 185.602 712.598 185.66ZM702.991 191.341L702.991 190.991C702.991 190.933 703.023 190.849 703.081 190.732L703.081 190.557L703.172 189.683L703.431 188.024L704.131 184.701L704.131 184.617L704.215 184.533C704.273 184.242 704.416 183.633 704.649 182.7C704.999 181.359 705.64 179.61 706.573 177.459L708.147 180.608L708.147 180.692C708.089 180.75 708.057 180.808 708.057 180.867L707.882 181.216C707.707 181.683 707.506 182.22 707.273 182.836C707.039 183.445 706.806 184.086 706.573 184.76C706.34 185.427 706.165 186.029 706.048 186.548L705.439 189.696L705.18 190.829L705.355 191.004C705.413 191.121 705.53 191.205 705.705 191.263C706.055 191.438 706.489 191.522 707.014 191.522C707.538 191.522 708.063 191.464 708.588 191.347C709.696 191.056 710.687 190.564 711.561 189.864C712.319 189.339 712.96 188.698 713.485 187.94C712.844 187.765 712.261 187.532 711.736 187.241L710.162 186.541C709.812 186.483 709.462 186.321 709.112 186.062C708.763 185.803 708.588 185.466 708.588 185.058C708.588 184.591 708.737 184.157 709.022 183.749C709.313 183.341 709.631 183.05 709.981 182.875C710.797 182.525 711.555 182.35 712.254 182.35C712.662 182.35 713.038 182.363 713.388 182.395C713.738 182.421 714.114 182.467 714.522 182.525C714.988 182.642 715.383 182.888 715.701 183.27C716.018 183.646 716.238 184.073 716.355 184.539C716.53 185.414 716.472 186.23 716.18 186.988C718.279 187.338 720.404 187.513 722.561 187.513L722.561 187.428C723.435 185.155 724.103 183.393 724.569 182.143C725.036 180.893 725.411 179.973 725.703 179.39C725.994 178.807 726.286 178.34 726.577 177.991C727.044 178.807 727.594 179.565 728.236 180.264C727.303 182.363 726.59 183.963 726.098 185.071C725.606 186.178 725.269 186.975 725.094 187.474C724.919 187.966 724.835 188.335 724.835 188.569C724.835 189.093 724.861 189.469 724.925 189.702C724.984 189.76 725.01 189.819 725.01 189.877C725.185 189.994 725.385 190.136 725.619 190.311C726.376 190.603 727.309 190.687 728.417 190.57C729.583 190.454 730.717 190.253 731.825 189.961C732.991 189.611 734.707 188.97 736.981 188.037C738.614 187.338 740.214 186.697 741.788 186.114C743.362 185.531 744.645 185.135 745.629 184.935C746.62 184.734 747.029 184.889 746.854 185.414C741.729 188.212 736.69 190.395 731.74 191.969C730.516 192.377 729.266 192.637 727.983 192.753C727.342 192.811 726.655 192.798 725.93 192.708C725.204 192.624 724.485 192.345 723.792 191.879C723.092 191.296 722.658 190.57 722.483 189.696C722.425 189.113 722.425 188.562 722.483 188.037L722.224 189.087C719.95 189.087 717.741 188.912 715.584 188.562L715.325 188.996C714.509 190.337 713.492 191.412 712.267 192.228C710.926 193.103 709.501 193.654 707.985 193.887C707.227 194.003 706.443 193.971 705.627 193.802C705.161 193.744 704.707 193.582 704.273 193.323C703.839 193.064 703.47 192.695 703.179 192.228L703.179 192.054C703.12 191.995 703.088 191.879 703.088 191.704C703.03 191.587 702.997 191.471 702.997 191.354L702.991 191.341Z" fill="rgb(0,0,0)" fill-rule="nonzero" />
			<path id="Vector" d="M770.348 167.574C769.182 168.39 767.958 169.148 766.682 169.848L764.848 170.807C764.732 170.865 764.615 170.923 764.498 170.981C764.265 171.098 764.006 171.215 763.715 171.331C763.423 171.448 763.106 171.564 762.756 171.681C762.231 171.856 761.648 171.914 761.007 171.856C760.424 171.681 759.957 171.48 759.607 171.247C759.549 171.189 759.491 171.156 759.433 171.156C758.85 170.69 758.416 170.282 758.124 169.932C758.007 169.757 757.865 169.582 757.69 169.407C757.398 169.058 757.165 168.824 756.99 168.708C756.932 168.591 756.861 168.507 756.77 168.449C756.686 168.39 756.595 168.287 756.511 168.144C756.42 168.002 756.291 167.781 756.116 167.49L758.565 165.482C758.739 165.89 758.914 166.253 759.089 166.577C759.264 166.894 759.394 167.147 759.484 167.322C759.575 167.496 759.588 167.496 759.53 167.322C759.646 167.555 759.763 167.756 759.88 167.93C760.171 168.339 760.43 168.656 760.663 168.889C760.838 169.122 761.013 169.297 761.188 169.414C761.363 169.53 761.596 169.589 761.888 169.589C762.413 169.53 763.021 169.388 763.721 169.155L765.645 168.371C766.869 167.846 768.12 167.237 769.402 166.538L770.536 166.622L770.361 167.581L770.348 167.574ZM787.819 184.261C788.986 184.144 789.653 184.131 789.828 184.215C790.003 184.299 789.841 184.461 789.348 184.695C788.856 184.928 788.195 185.219 787.385 185.569C786.336 186.094 784.762 186.69 782.669 187.357C780.57 188.024 778.4 188.685 776.159 189.32C773.918 189.961 771.981 190.473 770.348 190.848C768.716 191.224 767.899 191.386 767.899 191.328C767.433 191.328 767.213 191.095 767.245 190.628C767.271 190.162 767.42 189.592 767.679 188.925C767.938 188.257 768.249 187.597 768.599 186.962C769.007 186.146 769.266 185.537 769.383 185.129C769.325 185.07 769.266 185.038 769.208 185.038L768.949 185.038L768.424 185.213C761.959 187.953 755.028 190.019 747.63 191.418L744.138 191.943L743.263 191.943C742.914 192.001 742.596 192.027 742.305 192.027C742.13 192.027 741.884 192.014 741.56 191.982C741.242 191.956 740.905 191.852 740.556 191.678C740.206 191.503 739.947 191.269 739.772 190.978C739.539 190.57 739.422 190.103 739.422 189.579C739.305 188.937 739.526 188.296 740.076 187.655C740.627 187.014 741.404 186.288 742.389 185.472C743.788 184.364 745.388 182.848 747.196 180.931C747.662 180.989 748.115 181.19 748.549 181.54C748.984 181.89 749.379 182.266 749.728 182.674L744.138 187.13C742.972 188.121 742.35 188.763 742.259 189.054C742.169 189.346 742.739 189.488 743.963 189.488C747.28 189.197 750.661 188.672 754.101 187.914C754.801 187.797 755.662 187.61 756.679 187.344C757.697 187.085 759.186 186.631 761.136 185.99C763.086 185.349 765.813 184.39 769.305 183.108C770.53 182.874 771.08 183.341 770.964 184.507C770.847 185.673 770.18 187.331 768.955 189.488C769.014 189.605 769.785 189.52 771.268 189.229C772.751 188.937 774.591 188.503 776.774 187.92C778.957 187.337 781.069 186.729 783.11 186.087C785.151 185.446 786.718 184.837 787.826 184.254L787.819 184.261Z" fill="rgb(0,0,0)" fill-rule="nonzero" />
			<path id="Vector" d="M649.261 237.293L651.269 236.943L650.485 238.426C648.153 238.951 645.594 239.431 642.796 239.871C639.997 240.305 637.38 240.558 634.931 240.616C632.658 240.616 630.449 240.441 628.291 240.091L628.032 240.525C627.216 241.866 626.199 242.941 624.975 243.758C623.634 244.632 622.208 245.183 620.693 245.416C619.935 245.532 619.151 245.5 618.335 245.332C617.868 245.273 617.415 245.111 616.981 244.852C616.547 244.593 616.177 244.224 615.886 243.758C615.419 242.767 615.245 241.834 615.361 240.959C615.478 240.085 615.737 239.327 616.145 238.686C616.961 237.228 618.069 236.062 619.468 235.194C620.051 234.903 620.369 235.078 620.427 235.719C620.485 236.36 620.226 237.261 619.643 238.426C618.827 239.184 618.276 240.059 617.985 241.05C617.81 241.516 617.784 241.924 617.901 242.274C617.959 242.391 618.017 242.494 618.075 242.579C618.134 242.663 618.25 242.741 618.425 242.799C618.775 242.974 619.209 243.058 619.734 243.058C620.259 243.058 620.783 243 621.308 242.883C622.416 242.592 623.407 242.099 624.281 241.4C625.039 240.875 625.681 240.234 626.205 239.476C625.564 239.301 624.981 239.068 624.456 238.776L622.882 238.077C622.532 238.018 622.183 237.856 621.833 237.597C621.483 237.338 621.308 237.001 621.308 236.593C621.308 236.127 621.457 235.693 621.742 235.285C622.034 234.877 622.351 234.585 622.701 234.41C623.517 234.061 624.275 233.886 624.975 233.886C625.383 233.886 625.758 233.899 626.108 233.931C626.458 233.957 626.834 234.002 627.242 234.061C627.708 234.177 628.104 234.423 628.421 234.805C628.738 235.181 628.959 235.609 629.075 236.075C629.25 236.95 629.192 237.766 628.9 238.524C630.999 238.873 633.124 239.048 635.281 239.048C639.939 239.048 644.603 238.465 649.261 237.299L649.261 237.293ZM625.318 237.209C625.435 237.267 625.551 237.325 625.668 237.384C626.018 237.559 626.426 237.733 626.892 237.908L626.892 237.649C626.892 237.591 626.918 237.533 626.976 237.474C627.093 237.008 627.093 236.632 626.976 236.341C626.918 236.282 626.892 236.256 626.892 236.256C626.892 236.198 626.879 236.153 626.847 236.127C626.814 236.095 626.776 236.069 626.717 236.043C626.659 236.01 626.575 235.997 626.458 235.997C625.933 235.881 625.383 235.855 624.8 235.913C624.275 235.913 623.867 235.997 623.575 236.172C623.517 236.231 623.459 236.256 623.4 236.256C623.4 236.315 623.387 236.341 623.355 236.341L623.31 236.341L623.569 236.425C623.744 236.483 623.977 236.587 624.268 236.729C624.56 236.872 624.819 237.008 625.052 237.124C625.169 237.124 625.253 237.15 625.311 237.209L625.318 237.209ZM690.675 237.384C691.608 237.209 692.146 237.183 692.295 237.299C692.444 237.416 692.34 237.591 691.99 237.824C691.64 238.057 691.148 238.316 690.507 238.608C689.224 239.016 687.475 239.411 685.266 239.787C683.05 240.163 680.809 240.532 678.535 240.882C676.028 241.231 674.052 241.549 672.595 241.84C672.245 241.899 671.953 241.957 671.72 242.015C671.545 242.073 671.357 242.119 671.15 242.145C670.949 242.171 670.671 242.19 670.321 242.19L670.237 242.19C670.004 242.132 669.757 242.06 669.492 241.97C669.233 241.886 669.038 241.691 668.922 241.4C668.863 241.108 668.863 240.804 668.922 240.48C668.98 240.163 669.064 239.884 669.181 239.651L669.181 239.56C669.356 239.094 669.459 238.673 669.485 238.29C669.511 237.915 669.414 237.636 669.181 237.461C668.889 237.228 668.514 237.086 668.047 237.027C667.697 236.969 667.289 237.001 666.823 237.112C664.957 237.52 663.156 238.129 661.407 238.945C659.6 239.644 657.825 240.428 656.076 241.303L653.452 242.527C652.578 242.935 651.761 243.019 651.003 242.786C650.595 242.611 650.291 242.333 650.083 241.957C649.883 241.581 649.805 241.154 649.863 240.687C649.863 239.929 649.954 239.405 650.122 239.113C650.181 238.997 650.213 238.88 650.213 238.763C650.213 238.705 650.239 238.647 650.297 238.588C650.356 238.297 650.472 237.902 650.647 237.41C650.822 236.917 651.023 236.451 651.256 236.01C651.489 235.576 651.69 235.265 651.865 235.091C652.273 235.149 652.649 235.382 652.999 235.79C653.174 235.965 653.258 236.14 653.258 236.315C653.316 236.49 653.349 236.665 653.349 236.839C653.349 237.073 653.336 237.261 653.303 237.41C653.277 237.552 653.232 237.714 653.174 237.889L653.174 237.973L652.649 239.456L652.474 240.065C652.474 240.124 652.461 240.182 652.429 240.24C652.396 240.299 652.383 240.324 652.383 240.324L656.141 238.666C656.724 238.433 657.333 238.2 657.974 237.967C659.14 237.442 660.364 236.976 661.64 236.567C662.515 236.218 663.448 235.9 664.439 235.609C664.556 235.609 664.672 235.576 664.789 235.518C665.547 235.227 666.505 235.084 667.671 235.084C668.021 235.084 668.313 235.142 668.546 235.259L668.721 235.259C669.012 235.259 669.304 235.343 669.595 235.518L670.12 235.777L670.645 236.302C670.995 236.652 671.196 237.06 671.254 237.526C671.312 237.993 671.312 238.368 671.254 238.66C671.196 238.951 671.137 239.21 671.079 239.443C671.021 239.502 670.995 239.56 670.995 239.618L670.645 240.493L671.079 240.493C671.429 240.435 671.746 240.376 672.038 240.318C672.329 240.201 672.647 240.117 672.996 240.059C674.279 239.884 675.996 239.651 678.153 239.359C680.485 239.068 682.83 238.75 685.188 238.401C687.546 238.051 689.366 237.701 690.649 237.351L690.675 237.384ZM699.498 238.951L699.848 239.126C700.198 239.301 700.606 239.476 701.072 239.651L701.072 239.392C701.072 239.333 701.098 239.275 701.156 239.217C701.273 238.75 701.273 238.375 701.156 238.083L701.072 237.993C701.072 237.934 701.059 237.889 701.027 237.863C701.001 237.837 700.956 237.805 700.897 237.779C700.839 237.753 700.755 237.733 700.638 237.733C700.114 237.617 699.563 237.591 698.98 237.649C698.455 237.649 698.047 237.733 697.756 237.908C697.697 237.967 697.639 237.993 697.581 237.993L697.581 238.083L697.496 238.083L697.756 238.167C697.93 238.226 698.164 238.329 698.455 238.472C698.747 238.614 699.006 238.75 699.239 238.867C699.356 238.867 699.44 238.893 699.498 238.951ZM689.885 244.632L689.885 244.282C689.885 244.224 689.917 244.14 689.975 244.023L689.975 243.848L690.06 242.974L690.319 241.316L691.018 237.993L691.018 237.908L691.103 237.824C691.161 237.533 691.303 236.924 691.537 235.991C691.886 234.65 692.528 232.901 693.461 230.75L695.035 233.899L695.035 233.983C694.976 234.041 694.951 234.099 694.951 234.158L694.776 234.508C694.601 234.974 694.4 235.512 694.167 236.127C693.933 236.736 693.7 237.377 693.467 238.051C693.234 238.718 693.059 239.32 692.942 239.839L692.333 242.987L692.074 244.12L692.249 244.295C692.307 244.412 692.424 244.496 692.599 244.554C692.949 244.729 693.383 244.813 693.908 244.813C694.432 244.813 694.957 244.755 695.482 244.639C696.589 244.347 697.581 243.855 698.455 243.155C699.213 242.63 699.854 241.989 700.379 241.231C699.738 241.056 699.155 240.823 698.63 240.532L697.056 239.832C696.706 239.774 696.356 239.612 696.006 239.353C695.657 239.094 695.482 238.757 695.482 238.349C695.482 237.882 695.631 237.448 695.916 237.04C696.207 236.632 696.525 236.341 696.875 236.166C697.691 235.816 698.449 235.641 699.148 235.641C699.556 235.641 699.932 235.654 700.282 235.686C700.632 235.712 701.008 235.758 701.416 235.816C701.882 235.933 702.277 236.179 702.595 236.561C702.919 236.937 703.132 237.364 703.249 237.831C703.424 238.705 703.366 239.521 703.074 240.279C705.173 240.629 707.298 240.804 709.455 240.804L709.455 240.72C710.329 238.446 710.997 236.684 711.463 235.434C711.93 234.184 712.305 233.264 712.597 232.681C712.888 232.098 713.18 231.631 713.471 231.282C713.938 232.098 714.488 232.856 715.13 233.555C714.197 235.654 713.484 237.254 712.992 238.362C712.5 239.469 712.163 240.266 711.988 240.765C711.813 241.257 711.729 241.626 711.729 241.86C711.729 242.384 711.755 242.76 711.813 242.993C711.871 243.052 711.904 243.11 711.904 243.168C712.079 243.285 712.279 243.427 712.513 243.602C713.271 243.894 714.203 243.978 715.311 243.861C716.477 243.745 717.611 243.544 718.719 243.252C719.885 242.903 721.601 242.261 723.875 241.328C725.508 240.629 727.108 239.988 728.682 239.405C730.256 238.822 731.539 238.426 732.523 238.226C733.514 238.025 733.922 238.18 733.748 238.705C728.623 241.503 723.584 243.686 718.634 245.26C717.41 245.669 716.16 245.928 714.877 246.044C714.236 246.103 713.549 246.09 712.823 245.999C712.098 245.915 711.379 245.636 710.686 245.17C709.986 244.587 709.552 243.861 709.377 242.987C709.319 242.404 709.319 241.853 709.377 241.328L709.118 242.378C706.844 242.378 704.635 242.203 702.478 241.853L702.219 242.287C701.403 243.628 700.386 244.703 699.161 245.52C697.82 246.394 696.395 246.945 694.879 247.178C694.121 247.294 693.338 247.262 692.521 247.094C692.055 247.035 691.601 246.873 691.167 246.614C690.733 246.355 690.364 245.986 690.073 245.52L690.073 245.345C690.014 245.286 689.988 245.17 689.988 244.995C689.93 244.878 689.898 244.762 689.898 244.645L689.885 244.632ZM786.952 237.384C787.943 237.442 788.96 237.468 790.01 237.468C788.785 237.934 787.535 238.342 786.252 238.692C782.411 239.217 778.537 239.534 774.631 239.651L771.657 239.826C770.724 239.942 769.766 239.968 768.774 239.91C768.25 239.852 767.725 239.735 767.2 239.56C766.676 239.385 766.267 239.068 765.976 238.601C765.743 238.193 765.6 237.844 765.542 237.552C765.425 237.202 765.309 236.924 765.192 236.723C765.075 236.522 764.875 236.386 764.583 236.328C764.058 236.211 763.417 236.244 762.659 236.412C762.426 236.47 762.193 236.529 761.96 236.587C761.027 236.82 760.094 237.112 759.161 237.461C757.412 238.044 755.695 238.828 754.005 239.819L751.556 241.393C751.089 241.685 750.565 241.918 749.982 242.093C749.399 242.268 748.79 242.268 748.148 242.093C747.857 242.035 747.565 241.873 747.274 241.613C746.982 241.354 746.781 241.076 746.665 240.784C746.432 240.318 746.315 239.852 746.315 239.385C746.257 239.269 746.224 239.152 746.224 239.035L746.224 238.336C746.224 238.103 746.198 237.902 746.14 237.727C746.082 237.552 746.023 237.435 745.965 237.377C745.907 237.319 745.849 237.261 745.79 237.202C744.916 237.202 743.957 237.345 742.908 237.636C741.567 237.986 740.187 238.511 738.755 239.21C737.323 239.91 736.06 240.694 734.953 241.568L731.636 244.101C730.82 244.159 730.327 243.855 730.152 243.181C729.977 242.514 729.99 241.698 730.198 240.733C730.398 239.774 730.619 238.886 730.852 238.07C730.91 237.779 730.969 237.52 731.027 237.286L731.377 236.237L731.726 235.453C732.368 234.054 732.918 233.503 733.385 233.795C733.851 234.086 734.143 234.903 734.259 236.244L732.951 239.91L733.735 239.385C733.968 239.269 734.201 239.126 734.434 238.951C736.883 237.435 739.533 236.244 742.383 235.369C742.966 235.194 743.607 235.078 744.307 235.019L744.741 235.019C744.916 234.961 745.091 234.935 745.266 234.935C745.615 234.935 746.108 235.019 746.749 235.194C747.215 235.427 747.565 235.745 747.799 236.153C748.09 236.561 748.265 236.937 748.323 237.286L748.323 237.371C748.382 237.954 748.414 238.504 748.414 239.029C748.414 239.262 748.427 239.45 748.459 239.599C748.492 239.741 748.531 239.845 748.589 239.903C748.589 239.962 748.602 240.007 748.634 240.033C748.66 240.065 748.693 240.091 748.718 240.117C748.744 240.143 748.79 240.163 748.848 240.163C749.256 240.279 749.839 240.078 750.597 239.554C751.122 239.204 751.705 238.854 752.346 238.504C752.638 238.329 752.929 238.154 753.221 237.98C755.086 237.047 756.978 236.231 758.902 235.531L761.96 234.747L763.618 234.488C763.909 234.488 764.259 234.52 764.667 234.572C765.075 234.631 765.484 234.806 765.892 235.097C766.3 235.388 766.591 235.725 766.766 236.101C766.941 236.477 767.058 236.788 767.116 237.021C767.174 237.196 767.233 237.338 767.291 237.455C767.349 237.571 767.382 237.656 767.382 237.714C767.44 237.714 767.472 237.74 767.472 237.798C767.589 237.973 767.822 238.103 768.172 238.193C768.522 238.278 768.898 238.323 769.306 238.323C770.239 238.381 771.197 238.349 772.188 238.239L775.162 238.154C779.178 238.096 783.11 237.837 786.958 237.371L786.952 237.384Z" fill="rgb(0,0,0)" fill-rule="nonzero" />
		</g>
		<g id="3">
			<path id="Vector" d="M574.179 347.39L570.946 347.74L574.704 346.081C579.186 344.857 583.352 343.082 587.2 340.75C589.24 339.584 590.983 338.217 592.44 336.643C593.257 335.827 593.866 334.985 594.274 334.111C594.857 333.061 594.973 332.128 594.624 331.312C594.449 331.021 594.17 330.775 593.794 330.567C593.419 330.36 593.023 330.205 592.615 330.088C592.091 329.855 591.566 329.68 591.041 329.563C590.75 329.505 590.458 329.421 590.167 329.304C588.418 328.896 586.643 328.52 584.835 328.171C584.719 328.112 584.602 328.086 584.485 328.086C584.252 328.028 584.019 327.957 583.786 327.866C583.553 327.775 583.378 327.646 583.261 327.471C583.086 327.238 583.002 326.979 583.002 326.687C583.002 326.396 583.06 326.104 583.177 325.813C583.235 325.638 583.352 325.463 583.527 325.288C583.585 325.171 583.643 325.087 583.702 325.029C583.876 324.854 584.051 324.679 584.226 324.504C584.518 324.213 584.835 323.895 585.185 323.546C586.643 322.438 588.126 321.421 589.642 320.488C591.158 319.555 592.7 318.655 594.274 317.78C594.39 317.78 594.475 317.768 594.533 317.735C594.591 317.709 594.637 317.677 594.662 317.651C594.695 317.619 594.708 317.606 594.708 317.606C594.708 317.547 594.721 317.521 594.753 317.521C594.786 317.521 594.798 317.508 594.798 317.476L594.798 317.431C594.74 317.372 594.695 317.327 594.669 317.301C594.643 317.275 594.565 317.256 594.449 317.256L593.84 317.256C590.348 317.081 586.908 317.431 583.533 318.305C583.941 317.314 584.408 316.355 584.932 315.423C586.74 315.073 588.515 314.872 590.264 314.814L592.887 314.814L594.196 314.898L594.63 314.982L595.239 315.066C595.705 315.066 596.114 315.125 596.463 315.241C597.105 315.474 597.513 315.941 597.688 316.64C597.863 317.223 597.72 317.832 597.254 318.474C597.079 318.765 596.82 319.024 596.47 319.257C596.12 319.491 595.77 319.665 595.42 319.782L594.287 320.391C592.829 321.032 591.404 321.816 590.005 322.749C589.713 322.924 589.422 323.125 589.13 323.358C588.022 323.999 587.005 324.724 586.073 325.541C585.781 325.832 585.548 326.065 585.373 326.24L585.289 326.24L585.813 326.415C587.562 326.765 589.279 327.199 590.97 327.724C591.786 327.899 592.628 328.158 593.503 328.507C593.736 328.566 593.937 328.65 594.112 328.767C594.345 328.941 594.604 329.084 594.896 329.201C595.362 329.375 595.828 329.842 596.295 330.6C596.586 331.416 596.671 332.187 596.554 332.912C596.437 333.638 596.204 334.298 595.854 334.875C595.155 336.099 594.371 337.09 593.496 337.848C591.747 339.539 589.797 340.996 587.64 342.214C583.391 344.429 578.901 346.146 574.185 347.37L574.179 347.39ZM605.546 338.217L604.937 338.302L604.328 338.217L602.844 335.51L605.552 335.51L605.552 338.217L605.546 338.217ZM715.731 321.615C715.206 323.131 714.565 324.588 713.807 325.981C714.39 324.057 714.681 322.14 714.681 320.216C714.915 318.001 714.332 316.051 712.932 314.36C711.416 312.961 709.616 312.087 707.517 311.737C703.5 310.921 699.419 310.513 695.286 310.513C690.337 310.513 685.355 310.629 680.348 310.862L680.872 311.296C675.632 323.934 671.35 336.954 668.026 350.35L667.068 352.008L666.983 349.56C669.724 336.397 673.449 323.526 678.165 310.947C667.333 311.588 656.411 313.337 645.399 316.187L643.915 316.621L643.74 316.712L643.656 316.712C643.656 316.712 643.669 316.725 643.701 316.757C643.734 316.783 643.747 316.802 643.747 316.802L643.922 316.802L646.629 317.852C645.463 318.318 644.271 318.81 643.047 319.335L637.366 317.061L635.967 316.453L635.617 316.368L635.617 316.323C635.617 316.323 635.63 316.278 635.662 316.278L635.882 316.278L636.582 316.019L639.555 315.235L644.362 313.926C661.309 309.852 678.845 308.187 696.957 308.945C701.09 309.062 705.198 309.67 709.279 310.778C711.494 311.303 713.353 312.644 714.869 314.794C715.977 317.126 716.268 319.393 715.744 321.609L715.731 321.615ZM757.495 334.551L756.97 335.86C751.729 336.268 746.515 336.851 741.332 337.609C738.825 338.017 736.35 338.541 733.908 339.183C733.325 339.299 732.716 339.442 732.075 339.617L731.2 339.876L730.766 340.051L730.157 340.225L724.392 342.234L726.666 339.26L727.974 337.511C728.033 337.336 728.091 337.194 728.149 337.077C728.149 337.019 728.175 336.961 728.24 336.902L728.415 336.378C728.531 335.736 728.441 335.186 728.156 334.719C727.981 334.486 727.806 334.344 727.631 334.285C727.456 334.227 727.197 334.201 726.847 334.201C724.282 334.143 721.982 334.927 719.948 336.559L718.639 340.491L716.107 348.614L711.041 364.692L709.991 366L709.991 363.901L714.448 347.306L716.722 339.008C717.422 336.209 718.497 333.443 719.955 330.71C720.421 331.409 720.913 332.109 721.438 332.809C721.555 332.75 721.639 332.724 721.697 332.724C721.989 332.549 722.306 332.433 722.656 332.375C723.53 332.083 724.373 331.908 725.189 331.85L725.273 331.85C725.681 331.792 726.089 331.766 726.497 331.766C726.905 331.766 727.372 331.824 727.897 331.941C728.48 332.057 729.03 332.349 729.555 332.815C729.963 333.281 730.255 333.774 730.43 334.298C730.779 335.348 730.779 336.365 730.43 337.356L730.17 338.14L731.745 337.706L733.669 337.272C736.234 336.747 738.825 336.313 741.442 335.963C746.8 335.322 752.157 334.855 757.521 334.564L757.495 334.551ZM792.003 335.16C793.578 334.927 794.012 335.134 793.312 335.769C790.63 337.051 787.281 337.79 783.265 337.997C779.248 338.198 775.75 337.66 772.783 336.378C772.433 336.203 772.142 335.97 771.909 335.678C771.675 335.387 771.442 335.154 771.209 334.979C770.976 334.804 770.684 334.778 770.334 334.894L769.285 335.419L764.919 337.427L760.637 339.351C760.578 339.351 760.52 339.377 760.462 339.435C759.82 339.843 759.004 340.102 758.013 340.219C757.488 340.219 756.964 340.076 756.439 339.785C755.914 339.493 755.538 338.969 755.305 338.211C755.305 337.628 755.377 337.149 755.526 336.766C755.668 336.391 755.83 336.08 756.005 335.847C756.063 335.847 756.089 335.821 756.089 335.762C756.439 335.179 756.847 334.629 757.313 334.104C757.313 334.104 757.339 334.072 757.398 334.02C758.447 332.971 759.613 332.154 760.896 331.571C763.636 330.289 766.486 330.056 769.46 330.872C768.702 331.513 768.002 332.271 767.361 333.145C765.262 332.737 763.254 333.061 761.33 334.104C760.397 334.571 759.581 335.179 758.881 335.937C758.531 336.287 758.214 336.695 757.922 337.162C757.689 337.453 757.573 337.686 757.573 337.861L757.663 337.861C757.722 337.919 757.78 337.965 757.838 337.991C757.896 338.017 757.955 338.004 758.013 337.945C758.305 338.004 758.713 337.919 759.237 337.686C759.412 337.57 759.613 337.485 759.846 337.427L768.76 333.586L769.369 333.411L770.069 333.061C770.943 332.828 771.701 332.977 772.343 333.495C772.751 333.962 773.01 334.279 773.126 334.454C773.185 334.512 773.243 334.571 773.301 334.629L773.91 335.154C776.184 336.319 779.093 336.773 782.649 336.507C786.199 336.248 789.322 335.795 791.997 335.154L792.003 335.16ZM815.065 334.551C815.124 334.318 815.15 334.143 815.15 334.026C815.15 333.735 815.104 333.515 815.02 333.372C814.936 333.23 814.89 333.068 814.89 332.893C814.89 332.776 814.949 332.634 815.065 332.459L815.499 332.459C816.374 332.459 816.808 332.893 816.808 333.767C816.808 334.817 816.432 336.125 815.674 337.699L820.656 337C826.188 336.3 830.237 335.691 832.802 335.166L834.461 335.082C834.752 335.082 834.895 335.115 834.895 335.166C834.895 335.983 830.12 337.09 820.565 338.489L814.625 339.539C813.925 339.539 813.575 339.306 813.575 338.839C813.575 338.373 813.776 337.615 814.184 336.566C807.544 337.382 800.904 337.906 794.264 338.14C794.206 338.198 794.206 338.373 794.264 338.664C794.264 338.956 794.323 339.189 794.439 339.364L794.439 339.539C794.614 339.714 794.815 339.889 795.048 340.064C795.281 340.238 795.54 340.355 795.832 340.413C795.949 340.53 796.091 340.601 796.266 340.634C796.441 340.659 796.616 340.647 796.791 340.588C796.791 340.821 796.616 341.022 796.266 341.197C795.916 341.372 795.54 341.43 795.132 341.372C794.2 341.139 793.532 340.556 793.124 339.623C792.891 338.69 792.865 337.757 793.033 336.825L793.033 336.566C793.092 336.449 793.124 336.274 793.124 336.041C793.182 335.575 793.325 334.946 793.558 334.162C793.791 333.379 794.2 332.517 794.783 331.584L796.357 334.208C796.357 334.266 796.331 334.292 796.266 334.292C796.266 334.35 796.24 334.376 796.182 334.376C796.182 334.493 796.123 334.609 796.007 334.726C795.774 335.134 795.515 335.6 795.223 336.125C795.106 336.242 795.022 336.358 794.964 336.475C802.362 336.358 809.06 335.717 815.059 334.551L815.065 334.551ZM868.976 334.635C869.442 334.752 869.701 334.881 869.76 335.03C869.818 335.173 869.727 335.322 869.5 335.464C869.267 335.607 868.976 335.769 868.626 335.944C860.528 337.984 852.347 339.668 844.074 341.009C843.666 341.068 843.258 341.126 842.85 341.184C841.159 341.417 839.416 341.534 837.609 341.534C836.501 341.534 835.393 341.184 834.292 340.485C833.709 340.135 833.243 339.61 832.893 338.911C832.66 338.211 832.601 337.544 832.718 336.902C833.184 334.337 834.61 332.478 837 331.312C838.166 330.788 839.358 330.554 840.582 330.613C841.224 330.671 841.833 330.788 842.416 330.962C843.174 331.196 843.64 331.384 843.815 331.532C843.99 331.675 844.003 331.837 843.86 332.012C843.718 332.187 843.465 332.362 843.115 332.536C842.591 332.77 842.124 333.087 841.716 333.495C840.084 332.971 838.542 333.178 837.084 334.104C836.385 334.571 835.834 335.179 835.426 335.937C835.251 336.287 835.121 336.65 835.031 337.032C834.94 337.408 834.927 337.719 834.985 337.952C835.102 338.418 835.536 338.794 836.294 339.085C837.052 339.377 837.894 339.493 838.827 339.435C840.751 339.435 842.727 339.26 844.767 338.911C852.923 337.803 860.988 336.378 868.969 334.629L868.976 334.635ZM883.655 333.852L883.396 334.285L881.297 340.225C883.979 340.517 886.479 340.4 888.812 339.876C890.211 339.701 891.377 339.234 892.31 338.477C892.776 338.127 893.113 337.693 893.314 337.168C893.515 336.643 893.502 336.119 893.268 335.594C892.86 334.603 892.044 333.994 890.82 333.761C889.654 333.528 888.429 333.411 887.153 333.411C885.987 333.411 884.821 333.554 883.661 333.845L883.655 333.852ZM880.856 342.059C878.816 347.707 876.633 353.446 874.301 359.27L872.992 360.753L873.251 358.395C875.175 352.98 877.008 347.565 878.758 342.143C878 342.259 877.242 342.344 876.484 342.402C875.084 342.46 873.601 342.285 872.027 341.877C871.269 341.644 870.582 341.191 869.973 340.523C869.364 339.856 868.969 339.021 868.794 338.036C868.794 337.045 869.027 336.158 869.494 335.374C869.96 334.59 870.543 333.987 871.243 333.586C872.409 332.886 873.517 332.478 874.56 332.362C874.851 332.303 875.11 332.245 875.344 332.187C876.685 332.012 878.026 331.895 879.36 331.837L881.718 331.662L881.977 331.053C882.968 328.022 883.81 325.314 884.51 322.93C884.86 321.589 885.236 320.281 885.644 318.998C886.343 319.465 887.043 320.106 887.743 320.922C887.451 321.855 887.16 322.755 886.868 323.63C886.052 326.253 885.21 328.87 884.335 331.494C885.501 331.319 886.693 331.234 887.917 331.234C889.317 331.234 890.774 331.468 892.284 331.934C893.042 332.226 893.709 332.718 894.292 333.418C894.875 334.117 895.225 334.959 895.341 335.95C895.341 336.941 895.082 337.816 894.557 338.574C894.033 339.332 893.424 339.915 892.724 340.323C891.558 340.964 890.425 341.314 889.317 341.372C889.025 341.43 888.766 341.489 888.533 341.547C887.192 341.664 885.793 341.78 884.342 341.897L880.934 341.897L880.85 342.072L880.856 342.059ZM879.457 340.225L880.856 335.16C881.09 334.519 881.291 333.877 881.465 333.236C879.25 333.12 877.157 333.32 875.175 333.845C873.776 334.078 872.642 334.603 871.768 335.419C871.301 335.769 870.984 336.203 870.809 336.728C870.634 337.252 870.692 337.777 870.984 338.302C871.392 339.293 872.208 339.876 873.433 340.051C874.657 340.225 876.665 340.284 879.464 340.225L879.457 340.225ZM934.326 334.894L936.334 334.545L935.551 336.028C933.219 336.553 930.66 337.032 927.861 337.472C925.063 337.906 922.446 338.159 919.997 338.217C917.723 338.217 915.514 338.043 913.357 337.693L913.098 338.127C912.281 339.468 911.264 340.543 910.04 341.359C908.699 342.234 907.274 342.784 905.758 343.017C905 343.134 904.216 343.102 903.4 342.933C902.934 342.875 902.48 342.713 902.046 342.454C901.612 342.195 901.243 341.825 900.951 341.359C900.485 340.368 900.31 339.435 900.427 338.561C900.543 337.686 900.802 336.928 901.211 336.287C902.027 334.83 903.134 333.664 904.527 332.796C905.11 332.504 905.428 332.679 905.486 333.32C905.544 333.962 905.285 334.862 904.702 336.028C903.886 336.786 903.335 337.66 903.044 338.651C902.869 339.118 902.843 339.526 902.96 339.876C903.018 339.992 903.076 340.096 903.134 340.18C903.193 340.264 903.309 340.342 903.484 340.4C903.834 340.575 904.268 340.659 904.793 340.659C905.318 340.659 905.842 340.601 906.367 340.485C907.475 340.193 908.466 339.701 909.34 339.001C910.098 338.477 910.74 337.835 911.264 337.077C910.623 336.902 910.04 336.669 909.515 336.378L907.941 335.678C907.591 335.62 907.242 335.458 906.892 335.199C906.542 334.94 906.367 334.603 906.367 334.195C906.367 333.728 906.51 333.294 906.801 332.886C907.093 332.478 907.41 332.187 907.76 332.012C908.576 331.662 909.334 331.487 910.034 331.487C910.442 331.487 910.817 331.5 911.167 331.532C911.517 331.558 911.893 331.604 912.301 331.662C912.767 331.779 913.163 332.025 913.48 332.407C913.797 332.783 914.018 333.21 914.134 333.677C914.309 334.551 914.251 335.367 913.959 336.125C916.058 336.475 918.183 336.65 920.334 336.65C924.991 336.65 929.656 336.067 934.313 334.901L934.326 334.894ZM910.39 334.81C910.506 334.868 910.623 334.927 910.74 334.985C911.09 335.16 911.498 335.335 911.964 335.51L911.964 335.251C911.964 335.192 911.99 335.134 912.055 335.076C912.171 334.609 912.171 334.234 912.055 333.942C911.996 333.884 911.964 333.858 911.964 333.858C911.964 333.8 911.951 333.754 911.919 333.728C911.893 333.703 911.847 333.67 911.789 333.644C911.731 333.612 911.64 333.599 911.53 333.599C911.005 333.482 910.455 333.456 909.872 333.515C909.347 333.515 908.939 333.599 908.647 333.774C908.589 333.832 908.531 333.858 908.472 333.858C908.472 333.916 908.459 333.942 908.427 333.942L908.382 333.942L908.641 334.033C908.816 334.091 909.049 334.195 909.34 334.337C909.632 334.48 909.891 334.616 910.124 334.732C910.241 334.732 910.325 334.765 910.383 334.817L910.39 334.81ZM975.125 334.551L974.6 335.86C969.36 336.268 964.145 336.851 958.962 337.609C956.455 338.017 953.981 338.541 951.539 339.183C950.955 339.299 950.347 339.442 949.705 339.617L948.831 339.876L948.397 340.051L947.788 340.225L942.022 342.234L944.296 339.26L945.605 337.511C945.663 337.336 945.721 337.194 945.78 337.077C945.78 337.019 945.805 336.961 945.87 336.902L946.045 336.378C946.162 335.736 946.071 335.186 945.786 334.719C945.611 334.486 945.436 334.344 945.261 334.285C945.086 334.227 944.827 334.201 944.477 334.201C941.912 334.143 939.612 334.927 937.578 336.559L936.27 340.491L933.737 348.614L928.671 364.692L927.622 366L927.622 363.901L932.078 347.306L934.352 339.008C935.052 336.209 936.127 333.443 937.585 330.71C938.051 331.409 938.544 332.109 939.068 332.809C939.185 332.75 939.269 332.724 939.327 332.724C939.619 332.549 939.936 332.433 940.286 332.375C941.161 332.083 942.003 331.908 942.819 331.85L942.903 331.85C943.311 331.792 943.719 331.766 944.128 331.766C944.536 331.766 945.002 331.824 945.527 331.941C946.11 332.057 946.661 332.349 947.185 332.815C947.593 333.281 947.885 333.774 948.06 334.298C948.41 335.348 948.41 336.365 948.06 337.356L947.801 338.14L949.375 337.706L951.299 337.272C953.864 336.747 956.455 336.313 959.073 335.963C964.43 335.322 969.787 334.855 975.151 334.564L975.125 334.551ZM1021.09 334.376C1020.56 334.784 1020.01 335.16 1019.43 335.51C1018.61 335.976 1017.89 336.326 1017.25 336.559C1017.07 336.676 1016.23 336.993 1014.71 337.518C1013.2 338.043 1011.36 338.477 1009.21 338.826C1007.46 339.118 1005.48 339.351 1003.27 339.526C1002.45 339.526 1002.1 339.221 1002.22 338.606C1002.33 337.997 1002.62 337.22 1003.09 336.294C1003.32 335.711 1003.56 335.102 1003.79 334.46C1003.73 334.402 1003.67 334.376 1003.62 334.376L1003.36 334.376L1002.83 334.551C995.725 338.509 988.502 341.191 981.163 342.59L977.755 342.849L976.881 342.849C976.531 342.907 976.213 342.933 975.922 342.933C975.747 342.933 975.501 342.92 975.177 342.888C974.859 342.862 974.523 342.758 974.173 342.583C973.823 342.408 973.564 342.175 973.389 341.884C973.156 341.476 973.039 341.009 973.039 340.485C972.923 339.377 973.156 338.269 973.739 337.162C974.38 335.996 974.639 334.804 974.523 333.579C974.989 333.638 975.443 333.839 975.877 334.188C976.311 334.538 976.706 334.914 977.056 335.322L976.447 337.596L976.272 338.12C975.805 339.111 975.63 339.74 975.747 339.999C975.864 340.258 976.473 340.394 977.58 340.394C980.955 340.685 984.337 340.161 987.712 338.82C988.237 338.645 988.82 338.444 989.461 338.211C990.394 337.978 991.936 337.453 994.093 336.637C996.25 335.821 999.45 334.422 1003.71 332.446C1004.87 332.271 1005.46 332.705 1005.46 333.754C1005.46 334.804 1005.08 336.112 1004.32 337.686C1005.95 337.745 1007.61 337.628 1009.3 337.336C1011.05 337.103 1012.77 336.728 1014.46 336.203C1016.15 335.678 1017.65 335.011 1018.96 334.195C1020.27 333.379 1020.98 332.828 1021.1 332.536L1021.18 332.536L1021.18 332.452C1022.35 332.277 1022.93 332.711 1022.93 333.761C1022.93 334.81 1022.56 336.119 1021.8 337.693L1026.78 336.993C1028.12 336.818 1029.43 336.643 1030.71 336.468C1033.51 336.119 1036.25 335.685 1038.93 335.16C1040.09 335.043 1040.76 335.03 1040.94 335.115C1041.11 335.199 1040.95 335.374 1040.46 335.639C1039.96 335.898 1039.3 336.177 1038.49 336.468C1034.59 337.226 1030.66 337.894 1026.7 338.477L1020.76 339.526C1019.94 339.526 1019.59 339.221 1019.71 338.606C1019.82 337.997 1020.12 337.22 1020.58 336.294C1020.81 335.711 1021.05 335.102 1021.28 334.46C1021.22 334.402 1021.16 334.376 1021.11 334.376L1021.09 334.376ZM1074.82 335.16C1076.39 334.927 1076.82 335.134 1076.12 335.769C1073.44 337.051 1070.09 337.79 1066.08 337.997C1062.06 338.198 1058.56 337.66 1055.6 336.378C1055.25 336.203 1054.95 335.97 1054.72 335.678C1054.49 335.387 1054.25 335.154 1054.02 334.979C1053.79 334.804 1053.5 334.778 1053.15 334.894L1052.1 335.419L1047.73 337.427L1043.45 339.351C1043.39 339.351 1043.33 339.377 1043.27 339.435C1042.63 339.843 1041.82 340.102 1040.83 340.219C1040.3 340.219 1039.78 340.076 1039.25 339.785C1038.73 339.493 1038.35 338.969 1038.12 338.211C1038.12 337.628 1038.19 337.149 1038.34 336.766C1038.48 336.391 1038.64 336.08 1038.82 335.847C1038.88 335.847 1038.9 335.821 1038.9 335.762C1039.25 335.179 1039.66 334.629 1040.13 334.104C1040.13 334.104 1040.15 334.072 1040.21 334.02C1041.26 332.971 1042.43 332.154 1043.71 331.571C1046.45 330.289 1049.3 330.056 1052.27 330.872C1051.51 331.513 1050.81 332.271 1050.17 333.145C1048.07 332.737 1046.07 333.061 1044.14 334.104C1043.21 334.571 1042.39 335.179 1041.69 335.937C1041.34 336.287 1041.03 336.695 1040.73 337.162C1040.5 337.453 1040.39 337.686 1040.39 337.861L1040.47 337.861C1040.53 337.919 1040.59 337.965 1040.64 337.991C1040.7 338.017 1040.76 338.004 1040.82 337.945C1041.11 338.004 1041.52 337.919 1042.04 337.686C1042.22 337.57 1042.42 337.485 1042.65 337.427L1051.57 333.586L1052.18 333.411L1052.87 333.061C1053.75 332.828 1054.51 332.977 1055.15 333.495C1055.56 333.962 1055.82 334.279 1055.93 334.454C1055.99 334.512 1056.05 334.571 1056.11 334.629L1056.72 335.154C1058.99 336.319 1061.9 336.773 1065.46 336.507C1069.01 336.248 1072.12 335.795 1074.8 335.154L1074.82 335.16ZM1090.45 341.884L1090.45 341.709L1086.52 343.458L1085.3 344.067L1084.95 344.326C1085.53 344.326 1086.24 344.242 1087.09 344.067C1087.93 343.892 1088.69 343.613 1089.36 343.238C1090.03 342.862 1090.4 342.408 1090.45 341.884ZM1092.46 340.75L1092.46 341.359C1092.4 341.592 1092.29 341.884 1092.11 342.234C1091.94 343.108 1091.48 343.749 1090.76 344.157C1090.03 344.565 1089.31 344.883 1088.62 345.116C1088.5 345.174 1088.39 345.2 1088.27 345.2C1086.99 345.667 1085.68 345.842 1084.34 345.725L1083.46 345.641L1083.55 344.682C1083.67 343.983 1083.98 343.458 1084.47 343.108C1084.97 342.758 1085.48 342.467 1086 342.234C1086.06 342.234 1086.12 342.201 1086.18 342.149L1088.63 341.191L1090.2 340.582C1090.2 340.523 1090.19 340.478 1090.16 340.452C1090.12 340.426 1090.11 340.381 1090.11 340.323L1090.11 340.238C1090.05 340.238 1090.03 340.206 1090.03 340.148L1089.85 339.973C1089.85 339.915 1089.83 339.856 1089.77 339.798C1089.36 338.923 1089.16 338.224 1089.16 337.699C1089.16 337.175 1089.22 336.799 1089.33 336.566C1089.39 336.391 1089.4 336.287 1089.38 336.261C1089.35 336.235 1089.25 336.248 1089.07 336.307C1088.9 336.365 1088.72 336.481 1088.55 336.656L1087.85 337.181L1085.58 338.58C1084.7 339.163 1083.8 339.597 1082.87 339.889C1082.69 340.005 1082.52 340.122 1082.34 340.238C1082.17 340.355 1081.79 340.498 1081.21 340.672C1080.69 340.847 1080.16 340.99 1079.64 341.106C1079.17 341.165 1078.59 341.281 1077.89 341.456C1077.59 341.573 1077.23 341.599 1076.79 341.54C1076.36 341.482 1075.93 341.307 1075.52 341.016C1075.11 340.666 1074.84 340.271 1074.69 339.837C1074.55 339.403 1074.45 339.008 1074.39 338.658C1074.39 338.308 1074.36 337.932 1074.3 337.524C1074.25 336.883 1074.5 336.17 1075.09 335.387C1075.67 334.603 1076.08 334 1076.31 333.599C1076.66 333.074 1077.19 332.757 1077.89 332.64C1078.64 333.165 1079.02 333.864 1079.02 334.739C1077.45 337.246 1076.91 338.6 1077.4 338.8C1077.89 339.001 1078.52 339.105 1079.28 339.105C1080.15 338.872 1081.05 338.613 1081.99 338.321C1082.74 338.088 1083.47 337.712 1084.17 337.187L1086.53 335.354C1086.59 335.296 1086.7 335.238 1086.88 335.179C1087.05 335.005 1087.31 334.804 1087.66 334.57C1088.01 334.337 1088.33 334.137 1088.62 333.962C1089.03 333.67 1089.42 333.45 1089.8 333.307C1090.18 333.165 1090.49 333.12 1090.72 333.178C1090.78 333.178 1090.84 333.204 1090.89 333.262C1091.01 333.262 1091.1 333.275 1091.15 333.307C1091.21 333.333 1091.3 333.379 1091.41 333.437L1091.76 333.871L1091.85 333.955L1091.85 334.13L1091.76 334.83L1091.76 335.439L1091.5 336.222L1091.33 337.006L1091.33 337.181C1091.27 337.239 1091.24 337.323 1091.24 337.44L1091.24 338.14C1091.24 338.256 1091.26 338.373 1091.29 338.489C1091.32 338.606 1091.36 338.664 1091.42 338.664C1091.42 338.723 1091.58 338.768 1091.9 338.794C1092.22 338.826 1092.61 338.807 1093.08 338.749C1093.89 338.515 1094.77 338.224 1095.7 337.874C1097.45 337.058 1099.63 336.449 1102.26 336.041C1102.32 336.041 1102.37 336.009 1102.43 335.957C1102.55 335.898 1102.69 335.84 1102.87 335.782C1103.74 335.315 1105.46 335.348 1108.02 335.866C1108.55 335.983 1108.83 336.112 1108.85 336.261C1108.88 336.41 1108.78 336.553 1108.55 336.695C1108.31 336.838 1108.02 337 1107.67 337.175C1105.75 337 1104.45 337.032 1103.79 337.259C1103.12 337.492 1102.14 337.738 1100.86 338.004C1099.57 338.263 1097.97 338.833 1096.05 339.707L1095.7 339.882C1094.88 340.232 1094.04 340.491 1093.17 340.666C1092.94 340.724 1092.7 340.75 1092.47 340.75L1092.46 340.75ZM1150.13 335.16C1151.3 335.043 1151.96 335.03 1152.14 335.115C1152.31 335.199 1152.15 335.374 1151.66 335.639C1151.17 335.898 1150.51 336.177 1149.7 336.468C1148.65 336.702 1147.09 337.077 1145.02 337.602C1142.95 338.127 1140.79 338.697 1138.55 339.306C1136.31 339.915 1134.38 340.459 1132.74 340.925C1131.11 341.391 1130.29 341.625 1130.29 341.625C1129.36 341.625 1129.06 341.217 1129.37 340.4C1129.69 339.584 1130.24 338.509 1130.99 337.168C1131.23 336.818 1131.46 336.443 1131.69 336.034C1131.64 335.976 1131.58 335.95 1131.52 335.95L1131.26 335.95L1130.73 336.125C1123.98 338.865 1117.63 340.932 1111.69 342.331L1108.2 342.855L1107.32 342.855C1106.97 342.914 1106.66 342.94 1106.36 342.94C1106.19 342.94 1105.94 342.927 1105.62 342.894C1105.3 342.868 1104.96 342.765 1104.61 342.59C1104.27 342.415 1104.01 342.182 1103.83 341.89C1103.6 341.482 1103.48 341.016 1103.48 340.491C1103.36 339.85 1103.57 339.137 1104.09 338.353C1104.61 337.57 1105.22 336.766 1105.92 335.95C1107.03 334.668 1107.76 333.502 1108.11 332.459C1108.57 332.517 1109.03 332.718 1109.46 333.068C1109.89 333.417 1110.29 333.793 1110.64 334.201C1110.64 334.201 1110.48 334.402 1110.16 334.81C1109.84 335.218 1109.46 335.73 1109.03 336.339C1108.59 336.948 1108.21 337.576 1107.89 338.217C1107.58 338.859 1107.4 339.383 1107.37 339.791C1107.34 340.2 1107.56 340.4 1108.02 340.4C1109.13 340.284 1110.12 340.154 1111 340.005C1111.87 339.863 1112.77 339.668 1113.7 339.435C1114.52 339.26 1115.42 339.06 1116.41 338.826C1117.11 338.71 1117.97 338.522 1118.99 338.256C1120.01 337.997 1121.5 337.544 1123.45 336.902C1125.4 336.261 1128.12 335.302 1131.62 334.02C1132.96 333.728 1133.73 334.007 1133.93 334.849C1134.13 335.691 1133.27 337.336 1131.35 339.785C1131.35 339.785 1132.12 339.584 1133.66 339.176C1135.2 338.768 1137.07 338.289 1139.25 337.732C1141.44 337.181 1143.54 336.669 1145.54 336.203C1147.55 335.736 1149.08 335.387 1150.13 335.154L1150.13 335.16Z" fill="rgb(0,0,0)" fill-rule="nonzero" />
			<path id="Vector" d="M1179.83 332.627L1180.18 332.452C1181.35 332.277 1181.93 332.711 1181.93 333.761C1181.93 334.81 1181.55 336.118 1180.8 337.693L1185.78 336.993C1187.12 336.818 1188.43 336.643 1189.71 336.468C1192.51 336.118 1195.24 335.684 1197.92 335.16C1199.09 335.043 1199.76 335.03 1199.93 335.114C1200.11 335.199 1199.94 335.374 1199.45 335.639C1198.96 335.898 1198.3 336.177 1197.49 336.468C1193.59 337.226 1189.66 337.893 1185.69 338.476L1179.75 339.526C1178.94 339.526 1178.59 339.221 1178.7 338.606C1178.82 337.997 1179.11 337.22 1179.58 336.293C1179.81 335.71 1180.04 335.101 1180.28 334.46C1180.22 334.402 1180.16 334.376 1180.1 334.376L1179.84 334.376L1179.58 334.46L1178.62 335.069L1176.53 336.028C1174.43 337.077 1172.3 338.036 1170.15 338.91L1169.8 339.085C1169.27 339.435 1168.6 339.668 1167.79 339.785C1164.41 341.009 1161.03 341.942 1157.66 342.583L1154.25 342.842L1153.37 342.842C1153.02 342.901 1152.71 342.926 1152.41 342.926C1152.24 342.926 1151.99 342.914 1151.67 342.881C1151.35 342.855 1151.02 342.752 1150.67 342.577C1150.32 342.402 1150.06 342.169 1149.88 341.877C1149.65 341.469 1149.53 341.003 1149.53 340.478C1149.42 339.37 1149.65 338.263 1150.23 337.155C1150.87 335.989 1151.13 334.797 1151.02 333.573C1151.48 333.631 1151.94 333.832 1152.37 334.182C1152.8 334.531 1153.2 334.907 1153.55 335.315L1152.94 337.589L1152.76 338.114C1152.3 339.105 1152.12 339.733 1152.24 339.992C1152.36 340.251 1152.97 340.387 1154.07 340.387C1157.45 340.679 1160.83 340.154 1164.2 338.813C1164.44 338.755 1164.67 338.671 1164.9 338.554C1164.79 338.379 1164.7 338.146 1164.65 337.854C1164.65 337.271 1164.72 336.792 1164.87 336.41C1165.01 336.034 1165.17 335.723 1165.34 335.49C1165.4 335.49 1165.43 335.464 1165.43 335.406C1165.78 334.823 1166.19 334.272 1166.65 333.748L1166.74 333.663C1167.79 332.614 1168.95 331.798 1170.23 331.215C1173.09 329.932 1175.7 329.673 1178.09 330.431C1177.34 331.072 1176.64 331.83 1175.99 332.705C1175.3 332.53 1174.47 332.543 1173.51 332.75C1172.55 332.951 1171.6 333.288 1170.67 333.754C1169.74 334.22 1168.92 334.829 1168.22 335.587C1167.87 335.937 1167.55 336.345 1167.26 336.812C1167.03 337.103 1166.91 337.336 1166.91 337.511L1167 337.511C1167.06 337.569 1167.12 337.615 1167.18 337.641C1167.24 337.673 1167.29 337.654 1167.35 337.595C1167.64 337.654 1168.05 337.569 1168.58 337.336C1168.75 337.22 1168.95 337.135 1169.19 337.077L1178.1 333.236L1178.71 333.061L1179.41 332.711C1179.53 332.653 1179.67 332.627 1179.84 332.627L1179.83 332.627Z" fill="rgb(0,0,0)" fill-rule="nonzero" />
		</g>
	</g>
</svg>
