<svg width="12" height="13" viewBox="0 0 12 13" fill="none" xmlns="http://www.w3.org/2000/svg">
<path opacity="0.66" d="M11.5195 6.07031L0.878906 12C0.707031 12.0938 0.578125 12.1406 0.492188 12.1406C0.359375 12.1406 0.242188 12.0938 0.140625 12C0.046875 11.8984 0 11.7812 0 11.6484C0 11.4531 0.132812 11.2812 0.398438 11.1328L9.51562 6.07031L0.410156 1.00781C0.144531 0.859375 0.0117188 0.6875 0.0117188 0.492188C0.0117188 0.359375 0.0585938 0.246094 0.152344 0.152344C0.253906 0.0507812 0.371094 0 0.503906 0C0.589844 0 0.71875 0.046875 0.890625 0.140625L11.5195 6.07031Z" fill="white"/>
</svg>
