<svg width="12" height="13" viewBox="0 0 12 13" fill="none" xmlns="http://www.w3.org/2000/svg">
<path opacity="0.66" d="M0 6.07031L10.6406 0.140625C10.8125 0.046875 10.9414 0 11.0273 0C11.1602 0 11.2734 0.0507812 11.3672 0.152344C11.4688 0.246094 11.5195 0.359375 11.5195 0.492188C11.5195 0.6875 11.3867 0.859375 11.1211 1.00781L2.00391 6.07031L11.1094 11.1328C11.375 11.2812 11.5078 11.4531 11.5078 11.6484C11.5078 11.7812 11.457 11.8984 11.3555 12C11.2617 12.0938 11.1484 12.1406 11.0156 12.1406C10.9297 12.1406 10.8008 12.0938 10.6289 12L0 6.07031Z" fill="white"/>
</svg>
