<svg width="104" height="240" viewBox="0 0 104 240" fill="none" xmlns="http://www.w3.org/2000/svg">
<path d="M0 30.8892C0 24.6638 4.4135 19.3122 10.5251 18.127L88.5251 3.00095C96.5482 1.44507 104 7.59059 104 15.7632V224.237C104 232.409 96.5482 238.555 88.5251 236.999L10.5251 221.873C4.4135 220.688 0 215.336 0 209.111V30.8892Z" fill="white"/>
<path opacity="0.66" d="M16.1484 120.07L26.7891 114.141C26.9609 114.047 27.0898 114 27.1758 114C27.3086 114 27.4219 114.051 27.5156 114.152C27.6172 114.246 27.668 114.359 27.668 114.492C27.668 114.688 27.5352 114.859 27.2695 115.008L18.1523 120.07L27.2578 125.133C27.5234 125.281 27.6562 125.453 27.6562 125.648C27.6562 125.781 27.6055 125.898 27.5039 126C27.4102 126.094 27.2969 126.141 27.1641 126.141C27.0781 126.141 26.9492 126.094 26.7773 126L16.1484 120.07Z" fill="#121212"/>
</svg>
