<svg width="124" height="54" viewBox="0 0 124 54" fill="none" xmlns="http://www.w3.org/2000/svg">
<path d="M123.5 0V53.9087H20.9345C14.8668 53.9087 9.64783 49.5862 8.48697 43.6073L0 0H123.5Z" fill="white"/>
<path opacity="0.66" d="M27.2148 38.6626L34.1678 34.7879C34.2802 34.7267 34.3644 34.696 34.4205 34.696C34.5073 34.696 34.5813 34.7292 34.6426 34.7956C34.709 34.8569 34.7422 34.9309 34.7422 35.0177C34.7422 35.1453 34.6554 35.2576 34.4818 35.3546L28.5243 38.6626L34.4741 41.9707C34.6477 42.0677 34.7345 42.18 34.7345 42.3076C34.7345 42.3944 34.7013 42.4709 34.635 42.5373C34.5737 42.5986 34.4997 42.6292 34.4129 42.6292C34.3567 42.6292 34.2725 42.5986 34.1602 42.5373L27.2148 38.6626Z" fill="#121212"/>
</svg>
